<svg width="335" height="261" viewBox="0 0 335 261" fill="none" xmlns="http://www.w3.org/2000/svg">
<mask id="path-1-outside-1_3_89" maskUnits="userSpaceOnUse" x="0" y="0" width="335" height="261" fill="black">
<rect fill="white" width="335" height="261"/>
<path fill-rule="evenodd" clip-rule="evenodd" d="M264.324 258.422C264.103 258.716 263.882 259.01 263.645 259.274C264.218 259.352 264.79 259.45 265.363 259.548C266.6 259.76 267.837 259.972 269.076 259.977C281.825 260.034 294.576 259.999 307.713 259.713C308.185 258.641 308.514 257.569 308.829 256.542L308.83 256.542C309.278 255.081 309.699 253.709 310.462 252.556C312.627 249.284 313.479 246.046 312.629 242.245C312.523 241.77 312.398 241.284 312.273 240.793C311.792 238.91 311.293 236.956 311.72 235.272C312.162 233.528 312.599 231.781 313.037 230.033C315.523 220.108 318.013 210.161 321.425 200.539C324.944 190.612 325.543 181.14 322.054 171.27C321.82 170.608 321.576 169.943 321.331 169.275C320.115 165.958 318.874 162.575 318.695 159.179C318.27 151.15 318.267 143.099 318.263 135.049V135.047C318.262 132.42 318.261 129.792 318.245 127.166C318.241 126.502 318.397 125.837 318.593 125.007L318.593 125.005L318.594 125.001C318.698 124.561 318.812 124.074 318.919 123.516L327.703 139.145C328.063 138.191 328.426 137.245 328.787 136.305C332.071 127.758 335.154 119.734 333.574 110.658C332.546 104.752 331.896 98.7716 331.339 92.801C331.133 90.604 331.066 88.3907 330.999 86.1788V86.1783V86.1779V86.1738C330.908 83.1662 330.817 80.161 330.379 77.2024C328.605 65.2049 322.899 55.8302 310.836 51.1638C309.992 50.8373 309.082 50.4034 308.489 49.7639C302.879 43.7228 295.74 42.1798 287.744 42.2637C276.778 42.3788 266.561 39.4964 258.259 32.2376C251.276 26.1315 244.362 19.8121 238.318 12.8341C224.789 -2.78593 201.566 -3.0072 188.027 12.5514C183.088 18.2262 177.664 23.6027 171.862 28.4171C167.52 32.0199 163.002 35.4202 158.484 38.8199L158.482 38.8213C153.176 42.814 147.872 46.8058 142.856 51.1236C138.223 55.1116 133.884 59.429 129.546 63.747L129.546 63.7471L129.546 63.7474L129.543 63.75C125.431 67.8428 121.318 71.9361 116.953 75.7495C103.278 87.6976 90.4061 85.4736 81.9331 69.5447C77.8748 61.9152 74.8061 53.7569 71.7532 45.6407L71.7532 45.6406L71.7531 45.6403L71.7527 45.6394L71.7494 45.6306C71.362 44.6006 70.9748 43.5711 70.5859 42.5436C69.9407 40.8393 70.6499 37.76 71.9295 36.4056C74.4305 33.7583 74.8096 30.7409 75.1898 27.7152V27.7151L75.19 27.7139C75.296 26.8698 75.4023 26.0243 75.5547 25.1867C69.2707 22.805 63.3144 21.9379 57.0458 24.2139C55.8418 24.651 54.506 24.7242 53.1668 24.7976C51.9258 24.8656 50.6818 24.9338 49.5373 25.292C48.7168 25.5488 47.8794 25.794 47.0375 26.0407L47.0375 26.0407C43.4221 27.0996 39.7218 28.1835 36.8966 30.3125C31.874 34.0973 26.9603 36.2884 20.5149 36.2853C12.2156 36.2813 4.02374 42.7116 1.55445 50.0615C0.185845 54.1352 1.28969 56.2149 5.55037 56.8642C9.31464 57.4379 13.1307 57.7606 16.9367 57.9746C17.2611 57.9928 17.5642 58.0089 17.8474 58.0239C20.051 58.1405 21.0515 58.1935 21.4957 58.7178C21.8651 59.1539 21.8498 59.9159 21.8216 61.3117V61.3118C21.8108 61.8442 21.7982 62.4689 21.8044 63.2028C21.8372 67.1067 21.8341 71.0125 21.831 74.9182V74.9207C21.8234 84.3218 21.8159 93.7229 22.3099 103.099C22.6319 109.211 24.2319 115.482 26.4777 121.218C29.4507 128.811 35.9916 132.193 44.26 132.57C52.2122 132.932 57.4235 129.036 60.9679 122.562C62.1832 120.343 63.1671 118 64.1507 115.658C64.5337 114.746 64.9169 113.834 65.3135 112.93C65.8226 111.769 66.3027 110.595 66.8193 109.333L66.8198 109.332L66.8214 109.327C67.0651 108.732 67.3169 108.116 67.5838 107.473C68.1703 107.901 68.718 108.295 69.2374 108.668L69.2376 108.668C70.2773 109.415 71.2038 110.08 72.1015 110.781C84.4546 120.429 98.4198 124.306 113.993 121.577C118.489 120.789 122.9 119.502 127.303 118.217C128.547 117.855 129.792 117.492 131.036 117.14C133.929 116.324 135.483 117.31 136.099 120.07C136.158 120.334 136.219 120.598 136.281 120.862C136.451 121.593 136.621 122.325 136.741 123.064C137.798 129.617 138.864 136.168 139.929 142.719L139.932 142.736L139.935 142.754L139.936 142.76L139.942 142.795C142.775 160.217 145.609 177.638 148.291 195.083C148.462 196.195 148.637 197.308 148.812 198.421L148.814 198.432C150.489 209.097 152.169 219.795 150.644 230.676C149.311 240.184 146.548 248.809 137.181 253.933C135.661 254.764 134.426 256.099 133.192 257.434C132.624 258.048 132.056 258.662 131.46 259.227C133.749 259.261 136.038 259.293 138.328 259.325C143.765 259.402 149.202 259.479 154.639 259.579C155.577 259.596 156.516 259.616 157.458 259.636H157.458H157.459C161.185 259.717 164.956 259.798 168.947 259.7C169.72 253.366 170.36 247.284 170.51 241.191C170.563 239.037 170.393 236.875 170.222 234.714L170.222 234.712V234.711C170.027 232.231 169.831 229.753 169.974 227.292C170.183 223.694 170.601 220.106 171.02 216.519C171.523 212.203 172.026 207.888 172.164 203.56C172.677 187.459 172.977 171.351 173.278 155.243V155.243V155.242V155.241L173.278 155.226C173.393 149.077 173.508 142.928 173.634 136.78C173.651 135.997 173.647 135.214 173.642 134.272C173.64 133.779 173.638 133.242 173.638 132.639C202.103 145.478 228.409 142.071 253.047 124.282C253.286 124.774 253.494 125.235 253.689 125.669C254.079 126.535 254.421 127.295 254.874 127.987C256.188 129.992 257.434 132.059 258.68 134.127C261.623 139.01 264.568 143.896 268.403 147.971C276.099 156.147 280.552 165.098 279.995 176.115C278.93 197.212 277.616 218.3 276.22 239.379C275.733 246.735 273.02 253.061 265.918 256.816C265.279 257.154 264.801 257.788 264.324 258.422L264.324 258.422ZM25.3702 60.501L34.3452 63.4438C39.4549 64.6491 42.3195 67.5365 44.6084 71.5367C47.6621 76.8737 50.8225 82.1518 53.983 87.4298L53.9837 87.4311L53.9839 87.4313C56.8539 92.2243 59.7239 97.0174 62.5142 101.855C63.2763 103.176 63.4872 105.387 62.9133 106.768L62.7217 107.229C60.4364 112.733 58.1304 118.287 55.1111 123.411C50.9476 130.477 44.8534 131.761 37.7506 127.499C33.0576 124.682 28.942 121.265 28.1883 115.304C27.8844 112.9 27.4879 110.502 27.0916 108.105C26.3793 103.796 25.6675 99.4898 25.4942 95.1604C25.1768 87.2264 25.2432 79.2775 25.3115 71.1104V71.104L25.3115 71.1033V71.1031C25.3406 67.6142 25.3702 64.0855 25.3702 60.501ZM305.113 193.669C305.059 196.661 305.006 199.653 304.966 202.645C304.911 218.154 302.039 232.606 298.459 246.973C297.477 250.913 295.159 253.039 290.493 253.662C290.305 250.794 289.666 247.984 289.026 245.17C287.752 239.572 286.476 233.96 288.747 227.864C290.521 223.101 292.014 218.235 293.507 213.37L293.508 213.369L293.508 213.368L293.51 213.362C295.184 207.909 296.857 202.458 298.924 197.153C301.879 189.567 301.969 182.239 300.295 174.565C299.336 170.171 298.466 165.758 297.546 161.09L297.545 161.084C297.122 158.942 296.689 156.745 296.232 154.472C302.732 159.501 305.257 165.607 305.311 172.668C305.365 179.668 305.239 186.669 305.113 193.669ZM319.251 112.353V92.4879C320.005 81.6176 318.186 71.7068 315.523 61.8868L316.539 61.2357C316.977 61.7175 317.467 62.1783 317.958 62.639C319.04 63.6557 320.122 64.6724 320.646 65.9161C322.263 69.7565 323.807 73.768 324.421 77.8487C326.207 89.7295 324.65 101.292 319.251 112.353ZM203.3 95.5416L205.1 115.702C200.06 117.782 193.74 118.822 186.14 118.822C178.54 118.822 172.42 118.022 167.78 116.422C163.22 114.822 159.62 112.302 156.98 108.862C154.34 105.422 152.5 101.382 151.46 96.7416C150.42 92.1016 149.9 86.3816 149.9 79.5816C149.9 72.7816 150.42 67.0616 151.46 62.4216C152.5 57.7016 154.34 53.6216 156.98 50.1816C162.1 43.5416 171.5 40.2216 185.18 40.2216C188.22 40.2216 191.78 40.5416 195.86 41.1816C200.02 41.7416 203.1 42.4616 205.1 43.3416L201.5 61.7016C196.3 60.5816 191.54 60.0216 187.22 60.0216C182.9 60.0216 179.9 60.4216 178.22 61.2216C176.54 62.0216 175.7 63.6216 175.7 66.0216V97.4616C178.82 98.1016 181.98 98.4216 185.18 98.4216C191.98 98.4216 198.02 97.4616 203.3 95.5416ZM260.1 115.702L258.3 95.5416C253.02 97.4616 246.98 98.4216 240.18 98.4216C236.98 98.4216 233.82 98.1016 230.7 97.4616V66.0216C230.7 63.6216 231.54 62.0216 233.22 61.2216C234.9 60.4216 237.9 60.0216 242.22 60.0216C246.54 60.0216 251.3 60.5816 256.5 61.7016L260.1 43.3416C258.1 42.4616 255.02 41.7416 250.86 41.1816C246.78 40.5416 243.22 40.2216 240.18 40.2216C226.5 40.2216 217.1 43.5416 211.98 50.1816C209.34 53.6216 207.5 57.7016 206.46 62.4216C205.42 67.0616 204.9 72.7816 204.9 79.5816C204.9 86.3816 205.42 92.1016 206.46 96.7416C207.5 101.382 209.34 105.422 211.98 108.862C214.62 112.302 218.22 114.822 222.78 116.422C227.42 118.022 233.54 118.822 241.14 118.822C248.74 118.822 255.06 117.782 260.1 115.702Z"/>
</mask>
<path fill-rule="evenodd" clip-rule="evenodd" d="M264.324 258.422C264.103 258.716 263.882 259.01 263.645 259.274C264.218 259.352 264.79 259.45 265.363 259.548C266.6 259.76 267.837 259.972 269.076 259.977C281.825 260.034 294.576 259.999 307.713 259.713C308.185 258.641 308.514 257.569 308.829 256.542L308.83 256.542C309.278 255.081 309.699 253.709 310.462 252.556C312.627 249.284 313.479 246.046 312.629 242.245C312.523 241.77 312.398 241.284 312.273 240.793C311.792 238.91 311.293 236.956 311.72 235.272C312.162 233.528 312.599 231.781 313.037 230.033C315.523 220.108 318.013 210.161 321.425 200.539C324.944 190.612 325.543 181.14 322.054 171.27C321.82 170.608 321.576 169.943 321.331 169.275C320.115 165.958 318.874 162.575 318.695 159.179C318.27 151.15 318.267 143.099 318.263 135.049V135.047C318.262 132.42 318.261 129.792 318.245 127.166C318.241 126.502 318.397 125.837 318.593 125.007L318.593 125.005L318.594 125.001C318.698 124.561 318.812 124.074 318.919 123.516L327.703 139.145C328.063 138.191 328.426 137.245 328.787 136.305C332.071 127.758 335.154 119.734 333.574 110.658C332.546 104.752 331.896 98.7716 331.339 92.801C331.133 90.604 331.066 88.3907 330.999 86.1788V86.1783V86.1779V86.1738C330.908 83.1662 330.817 80.161 330.379 77.2024C328.605 65.2049 322.899 55.8302 310.836 51.1638C309.992 50.8373 309.082 50.4034 308.489 49.7639C302.879 43.7228 295.74 42.1798 287.744 42.2637C276.778 42.3788 266.561 39.4964 258.259 32.2376C251.276 26.1315 244.362 19.8121 238.318 12.8341C224.789 -2.78593 201.566 -3.0072 188.027 12.5514C183.088 18.2262 177.664 23.6027 171.862 28.4171C167.52 32.0199 163.002 35.4202 158.484 38.8199L158.482 38.8213C153.176 42.814 147.872 46.8058 142.856 51.1236C138.223 55.1116 133.884 59.429 129.546 63.747L129.546 63.7471L129.546 63.7474L129.543 63.75C125.431 67.8428 121.318 71.9361 116.953 75.7495C103.278 87.6976 90.4061 85.4736 81.9331 69.5447C77.8748 61.9152 74.8061 53.7569 71.7532 45.6407L71.7532 45.6406L71.7531 45.6403L71.7527 45.6394L71.7494 45.6306C71.362 44.6006 70.9748 43.5711 70.5859 42.5436C69.9407 40.8393 70.6499 37.76 71.9295 36.4056C74.4305 33.7583 74.8096 30.7409 75.1898 27.7152V27.7151L75.19 27.7139C75.296 26.8698 75.4023 26.0243 75.5547 25.1867C69.2707 22.805 63.3144 21.9379 57.0458 24.2139C55.8418 24.651 54.506 24.7242 53.1668 24.7976C51.9258 24.8656 50.6818 24.9338 49.5373 25.292C48.7168 25.5488 47.8794 25.794 47.0375 26.0407L47.0375 26.0407C43.4221 27.0996 39.7218 28.1835 36.8966 30.3125C31.874 34.0973 26.9603 36.2884 20.5149 36.2853C12.2156 36.2813 4.02374 42.7116 1.55445 50.0615C0.185845 54.1352 1.28969 56.2149 5.55037 56.8642C9.31464 57.4379 13.1307 57.7606 16.9367 57.9746C17.2611 57.9928 17.5642 58.0089 17.8474 58.0239C20.051 58.1405 21.0515 58.1935 21.4957 58.7178C21.8651 59.1539 21.8498 59.9159 21.8216 61.3117V61.3118C21.8108 61.8442 21.7982 62.4689 21.8044 63.2028C21.8372 67.1067 21.8341 71.0125 21.831 74.9182V74.9207C21.8234 84.3218 21.8159 93.7229 22.3099 103.099C22.6319 109.211 24.2319 115.482 26.4777 121.218C29.4507 128.811 35.9916 132.193 44.26 132.57C52.2122 132.932 57.4235 129.036 60.9679 122.562C62.1832 120.343 63.1671 118 64.1507 115.658C64.5337 114.746 64.9169 113.834 65.3135 112.93C65.8226 111.769 66.3027 110.595 66.8193 109.333L66.8198 109.332L66.8214 109.327C67.0651 108.732 67.3169 108.116 67.5838 107.473C68.1703 107.901 68.718 108.295 69.2374 108.668L69.2376 108.668C70.2773 109.415 71.2038 110.08 72.1015 110.781C84.4546 120.429 98.4198 124.306 113.993 121.577C118.489 120.789 122.9 119.502 127.303 118.217C128.547 117.855 129.792 117.492 131.036 117.14C133.929 116.324 135.483 117.31 136.099 120.07C136.158 120.334 136.219 120.598 136.281 120.862C136.451 121.593 136.621 122.325 136.741 123.064C137.798 129.617 138.864 136.168 139.929 142.719L139.932 142.736L139.935 142.754L139.936 142.76L139.942 142.795C142.775 160.217 145.609 177.638 148.291 195.083C148.462 196.195 148.637 197.308 148.812 198.421L148.814 198.432C150.489 209.097 152.169 219.795 150.644 230.676C149.311 240.184 146.548 248.809 137.181 253.933C135.661 254.764 134.426 256.099 133.192 257.434C132.624 258.048 132.056 258.662 131.46 259.227C133.749 259.261 136.038 259.293 138.328 259.325C143.765 259.402 149.202 259.479 154.639 259.579C155.577 259.596 156.516 259.616 157.458 259.636H157.458H157.459C161.185 259.717 164.956 259.798 168.947 259.7C169.72 253.366 170.36 247.284 170.51 241.191C170.563 239.037 170.393 236.875 170.222 234.714L170.222 234.712V234.711C170.027 232.231 169.831 229.753 169.974 227.292C170.183 223.694 170.601 220.106 171.02 216.519C171.523 212.203 172.026 207.888 172.164 203.56C172.677 187.459 172.977 171.351 173.278 155.243V155.243V155.242V155.241L173.278 155.226C173.393 149.077 173.508 142.928 173.634 136.78C173.651 135.997 173.647 135.214 173.642 134.272C173.64 133.779 173.638 133.242 173.638 132.639C202.103 145.478 228.409 142.071 253.047 124.282C253.286 124.774 253.494 125.235 253.689 125.669C254.079 126.535 254.421 127.295 254.874 127.987C256.188 129.992 257.434 132.059 258.68 134.127C261.623 139.01 264.568 143.896 268.403 147.971C276.099 156.147 280.552 165.098 279.995 176.115C278.93 197.212 277.616 218.3 276.22 239.379C275.733 246.735 273.02 253.061 265.918 256.816C265.279 257.154 264.801 257.788 264.324 258.422L264.324 258.422ZM25.3702 60.501L34.3452 63.4438C39.4549 64.6491 42.3195 67.5365 44.6084 71.5367C47.6621 76.8737 50.8225 82.1518 53.983 87.4298L53.9837 87.4311L53.9839 87.4313C56.8539 92.2243 59.7239 97.0174 62.5142 101.855C63.2763 103.176 63.4872 105.387 62.9133 106.768L62.7217 107.229C60.4364 112.733 58.1304 118.287 55.1111 123.411C50.9476 130.477 44.8534 131.761 37.7506 127.499C33.0576 124.682 28.942 121.265 28.1883 115.304C27.8844 112.9 27.4879 110.502 27.0916 108.105C26.3793 103.796 25.6675 99.4898 25.4942 95.1604C25.1768 87.2264 25.2432 79.2775 25.3115 71.1104V71.104L25.3115 71.1033V71.1031C25.3406 67.6142 25.3702 64.0855 25.3702 60.501ZM305.113 193.669C305.059 196.661 305.006 199.653 304.966 202.645C304.911 218.154 302.039 232.606 298.459 246.973C297.477 250.913 295.159 253.039 290.493 253.662C290.305 250.794 289.666 247.984 289.026 245.17C287.752 239.572 286.476 233.96 288.747 227.864C290.521 223.101 292.014 218.235 293.507 213.37L293.508 213.369L293.508 213.368L293.51 213.362C295.184 207.909 296.857 202.458 298.924 197.153C301.879 189.567 301.969 182.239 300.295 174.565C299.336 170.171 298.466 165.758 297.546 161.09L297.545 161.084C297.122 158.942 296.689 156.745 296.232 154.472C302.732 159.501 305.257 165.607 305.311 172.668C305.365 179.668 305.239 186.669 305.113 193.669ZM319.251 112.353V92.4879C320.005 81.6176 318.186 71.7068 315.523 61.8868L316.539 61.2357C316.977 61.7175 317.467 62.1783 317.958 62.639C319.04 63.6557 320.122 64.6724 320.646 65.9161C322.263 69.7565 323.807 73.768 324.421 77.8487C326.207 89.7295 324.65 101.292 319.251 112.353ZM203.3 95.5416L205.1 115.702C200.06 117.782 193.74 118.822 186.14 118.822C178.54 118.822 172.42 118.022 167.78 116.422C163.22 114.822 159.62 112.302 156.98 108.862C154.34 105.422 152.5 101.382 151.46 96.7416C150.42 92.1016 149.9 86.3816 149.9 79.5816C149.9 72.7816 150.42 67.0616 151.46 62.4216C152.5 57.7016 154.34 53.6216 156.98 50.1816C162.1 43.5416 171.5 40.2216 185.18 40.2216C188.22 40.2216 191.78 40.5416 195.86 41.1816C200.02 41.7416 203.1 42.4616 205.1 43.3416L201.5 61.7016C196.3 60.5816 191.54 60.0216 187.22 60.0216C182.9 60.0216 179.9 60.4216 178.22 61.2216C176.54 62.0216 175.7 63.6216 175.7 66.0216V97.4616C178.82 98.1016 181.98 98.4216 185.18 98.4216C191.98 98.4216 198.02 97.4616 203.3 95.5416ZM260.1 115.702L258.3 95.5416C253.02 97.4616 246.98 98.4216 240.18 98.4216C236.98 98.4216 233.82 98.1016 230.7 97.4616V66.0216C230.7 63.6216 231.54 62.0216 233.22 61.2216C234.9 60.4216 237.9 60.0216 242.22 60.0216C246.54 60.0216 251.3 60.5816 256.5 61.7016L260.1 43.3416C258.1 42.4616 255.02 41.7416 250.86 41.1816C246.78 40.5416 243.22 40.2216 240.18 40.2216C226.5 40.2216 217.1 43.5416 211.98 50.1816C209.34 53.6216 207.5 57.7016 206.46 62.4216C205.42 67.0616 204.9 72.7816 204.9 79.5816C204.9 86.3816 205.42 92.1016 206.46 96.7416C207.5 101.382 209.34 105.422 211.98 108.862C214.62 112.302 218.22 114.822 222.78 116.422C227.42 118.022 233.54 118.822 241.14 118.822C248.74 118.822 255.06 117.782 260.1 115.702Z" fill="#BC873C"/>
<path d="M201.758 6.52546L201.187 6.60276L201.321 7.59371L201.892 7.51641L201.758 6.52546ZM216.113 5.2032L216.779 5.11302L216.644 4.12206L215.978 4.21224L216.113 5.2032ZM263.645 259.274L262.9 258.606L261.64 260.011L263.51 260.265L263.645 259.274ZM264.324 258.422L263.617 257.715L263.567 257.765L263.525 257.821L264.324 258.422ZM265.363 259.548L265.532 258.562L265.532 258.562L265.363 259.548ZM269.076 259.977L269.071 260.977L269.071 260.977L269.076 259.977ZM307.713 259.713L307.735 260.713L308.372 260.699L308.629 260.115L307.713 259.713ZM308.829 256.542L307.901 256.17L307.886 256.209L307.874 256.248L308.829 256.542ZM308.83 256.542L309.758 256.913L309.773 256.875L309.786 256.835L308.83 256.542ZM310.462 252.556L309.628 252.004L309.628 252.004L310.462 252.556ZM312.629 242.245L313.605 242.027L313.605 242.027L312.629 242.245ZM312.273 240.793L311.304 241.041L311.304 241.041L312.273 240.793ZM311.72 235.272L312.689 235.518L312.689 235.518L311.72 235.272ZM313.037 230.033L312.067 229.79L312.067 229.79L313.037 230.033ZM321.425 200.539L320.482 200.205L320.482 200.205L321.425 200.539ZM322.054 171.27L322.996 170.936L322.996 170.936L322.054 171.27ZM321.331 169.275L322.27 168.931L322.27 168.931L321.331 169.275ZM318.695 159.179L319.693 159.126L319.693 159.126L318.695 159.179ZM318.263 135.049L317.263 135.049L317.263 135.049L318.263 135.049ZM318.263 135.047L319.263 135.047L319.263 135.046L318.263 135.047ZM318.245 127.166L319.245 127.16L319.245 127.16L318.245 127.166ZM318.593 125.007L317.624 124.76L317.621 124.769L317.619 124.778L318.593 125.007ZM318.593 125.005L319.562 125.252L319.564 125.243L319.566 125.234L318.593 125.005ZM318.594 125.001L319.567 125.23L319.567 125.23L318.594 125.001ZM318.919 123.516L319.791 123.026L318.453 120.644L317.937 123.327L318.919 123.516ZM327.703 139.145L326.831 139.635L327.882 141.505L328.638 139.498L327.703 139.145ZM328.787 136.305L327.854 135.946L327.854 135.946L328.787 136.305ZM333.574 110.658L334.559 110.487L334.559 110.486L333.574 110.658ZM331.339 92.801L332.334 92.708L332.334 92.7079L331.339 92.801ZM330.999 86.1788H329.999V86.194L330 86.2091L330.999 86.1788ZM330.999 86.1738H331.999V86.1587L331.999 86.1435L330.999 86.1738ZM330.379 77.2024L329.39 77.3487L329.39 77.3488L330.379 77.2024ZM310.836 51.1638L311.197 50.2312L311.197 50.2312L310.836 51.1638ZM308.489 49.7639L309.221 49.0834L309.221 49.0834L308.489 49.7639ZM287.744 42.2637L287.755 43.2637L287.755 43.2637L287.744 42.2637ZM258.259 32.2376L258.918 31.4848L258.918 31.4848L258.259 32.2376ZM238.318 12.8341L239.074 12.1794L239.074 12.1794L238.318 12.8341ZM188.027 12.5514L188.781 13.2079L188.781 13.2079L188.027 12.5514ZM171.862 28.4171L171.224 27.6476L171.224 27.6476L171.862 28.4171ZM158.484 38.8199L157.883 38.0208L157.871 38.0297L157.859 38.039L158.484 38.8199ZM158.482 38.8213L159.083 39.6204L159.095 39.6115L159.107 39.6022L158.482 38.8213ZM142.856 51.1236L143.508 51.8815L143.508 51.8815L142.856 51.1236ZM129.546 63.747L130.186 64.5152L130.22 64.4869L130.251 64.4558L129.546 63.747ZM129.546 63.7471L128.906 62.9789L128.871 63.0079L128.839 63.04L129.546 63.7471ZM129.543 63.75L130.248 64.4588L130.25 64.4571L129.543 63.75ZM116.953 75.7495L116.295 74.9965L116.295 74.9965L116.953 75.7495ZM81.9331 69.5447L82.816 69.0751L82.816 69.0751L81.9331 69.5447ZM71.7532 45.6407L72.6892 45.2887L72.6789 45.2613L72.667 45.2346L71.7532 45.6407ZM71.7532 45.6406L70.8247 46.012L70.8317 46.0295L70.8394 46.0468L71.7532 45.6406ZM71.7531 45.6403L70.8044 45.9566L70.8137 45.9844L70.8246 46.0117L71.7531 45.6403ZM71.7527 45.6394L72.7014 45.3231L72.6956 45.3056L72.6891 45.2883L71.7527 45.6394ZM71.7494 45.6306L72.6858 45.2795L72.6854 45.2785L71.7494 45.6306ZM70.5859 42.5436L71.5211 42.1896L71.5211 42.1896L70.5859 42.5436ZM71.9295 36.4056L72.6564 37.0923L72.6564 37.0923L71.9295 36.4056ZM75.1898 27.7152L76.182 27.8398L76.1898 27.7778V27.7152H75.1898ZM75.1898 27.7151L74.2092 27.519L74.1898 27.6161V27.7151H75.1898ZM75.19 27.7139L76.1706 27.9101L76.1777 27.8745L76.1822 27.8386L75.19 27.7139ZM75.5547 25.1867L76.5385 25.3657L76.6875 24.5466L75.9091 24.2516L75.5547 25.1867ZM57.0458 24.2139L57.3871 25.1538L57.3871 25.1538L57.0458 24.2139ZM53.1668 24.7976L53.1121 23.7991L53.1121 23.7991L53.1668 24.7976ZM49.5373 25.292L49.836 26.2463L49.836 26.2463L49.5373 25.292ZM47.0375 26.0407L46.7564 25.081L46.7388 25.0861L46.7213 25.092L47.0375 26.0407ZM47.0375 26.0407L47.3186 27.0003L47.3363 26.9952L47.3537 26.9893L47.0375 26.0407ZM36.8966 30.3125L36.2948 29.5138L36.2948 29.5138L36.8966 30.3125ZM20.5149 36.2853L20.5154 35.2853L20.5154 35.2853L20.5149 36.2853ZM1.55445 50.0615L2.50238 50.38L2.50239 50.38L1.55445 50.0615ZM5.55037 56.8642L5.39971 57.8528L5.39971 57.8528L5.55037 56.8642ZM16.9367 57.9746L16.8806 58.973L16.8806 58.973L16.9367 57.9746ZM17.8474 58.0239L17.7946 59.0225L17.7946 59.0225L17.8474 58.0239ZM21.4957 58.7178L20.7327 59.3642L20.7327 59.3642L21.4957 58.7178ZM21.8216 61.3117L20.8218 61.2915L20.8216 61.3016V61.3117H21.8216ZM21.8216 61.3118L22.8214 61.332L22.8216 61.3219V61.3118H21.8216ZM21.8044 63.2028L20.8044 63.2112L20.8044 63.2112L21.8044 63.2028ZM21.831 74.9182L20.831 74.9174V74.9182H21.831ZM21.831 74.9207L22.831 74.9215V74.9207H21.831ZM22.3099 103.099L23.3085 103.046L23.3085 103.046L22.3099 103.099ZM26.4777 121.218L27.4088 120.853L27.4088 120.853L26.4777 121.218ZM44.26 132.57L44.3055 131.571L44.3055 131.571L44.26 132.57ZM60.9679 122.562L61.8451 123.043L61.8451 123.043L60.9679 122.562ZM64.1507 115.658L65.0727 116.046L65.0727 116.046L64.1507 115.658ZM65.3135 112.93L64.3976 112.528L64.3976 112.528L65.3135 112.93ZM66.8193 109.333L67.7448 109.711L67.7453 109.71L66.8193 109.333ZM66.8198 109.332L65.8942 108.953L65.8937 108.954L66.8198 109.332ZM66.8214 109.327L65.8959 108.949L65.8959 108.949L66.8214 109.327ZM67.5838 107.473L68.1735 106.665L67.147 105.916L66.66 107.09L67.5838 107.473ZM69.2374 108.668L69.8621 107.887L69.8419 107.871L69.8208 107.856L69.2374 108.668ZM69.2376 108.668L68.6129 109.449L68.6331 109.465L68.6541 109.48L69.2376 108.668ZM72.1015 110.781L72.7171 109.993L72.7171 109.993L72.1015 110.781ZM113.993 121.577L114.166 122.562L114.166 122.562L113.993 121.577ZM127.303 118.217L127.584 119.177L127.584 119.177L127.303 118.217ZM131.036 117.14L131.308 118.103L131.308 118.103L131.036 117.14ZM136.099 120.07L137.075 119.852L137.075 119.852L136.099 120.07ZM136.281 120.862L137.255 120.635L137.255 120.635L136.281 120.862ZM136.741 123.064L135.753 123.224L135.753 123.224L136.741 123.064ZM139.929 142.719L140.916 142.559L140.916 142.558L139.929 142.719ZM139.935 142.754L138.948 142.914L138.948 142.916L139.935 142.754ZM139.936 142.76L140.923 142.598L140.923 142.597L139.936 142.76ZM139.942 142.795L140.929 142.634L140.928 142.633L139.942 142.795ZM148.291 195.083L147.303 195.235L147.303 195.235L148.291 195.083ZM148.812 198.421L149.8 198.266L149.8 198.266L148.812 198.421ZM148.814 198.432L147.826 198.587L147.826 198.587L148.814 198.432ZM150.644 230.676L149.654 230.537L149.654 230.537L150.644 230.676ZM137.181 253.933L136.701 253.055L136.701 253.055L137.181 253.933ZM133.192 257.434L132.458 256.755L132.458 256.755L133.192 257.434ZM131.46 259.227L130.772 258.501L128.991 260.19L131.445 260.227L131.46 259.227ZM138.328 259.325L138.342 258.325L138.342 258.325L138.328 259.325ZM154.639 259.579L154.62 260.578L154.62 260.578L154.639 259.579ZM157.458 259.636L157.436 260.636L157.447 260.636H157.458V259.636ZM157.459 259.636L157.48 258.637L157.469 258.636H157.459V259.636ZM168.947 259.7L168.971 260.7L169.834 260.678L169.939 259.821L168.947 259.7ZM170.51 241.191L169.51 241.167L169.51 241.167L170.51 241.191ZM170.222 234.714L169.223 234.753L169.224 234.773L169.225 234.792L170.222 234.714ZM170.222 234.712H169.222V234.732L169.223 234.752L170.222 234.712ZM170.222 234.711H171.222V234.672L171.219 234.633L170.222 234.711ZM169.974 227.292L170.973 227.35L170.973 227.35L169.974 227.292ZM171.02 216.519L172.013 216.635L172.013 216.635L171.02 216.519ZM172.164 203.56L171.164 203.528L171.164 203.528L172.164 203.56ZM173.278 155.243L174.278 155.262L174.278 155.252V155.243H173.278ZM173.278 155.241L172.278 155.223L172.278 155.232V155.241H173.278ZM173.278 155.226L172.278 155.207L172.278 155.208L173.278 155.226ZM173.634 136.78L172.635 136.759L172.635 136.759L173.634 136.78ZM173.642 134.272L174.642 134.267L174.642 134.267L173.642 134.272ZM173.638 132.639L174.049 131.727L172.638 131.091V132.639H173.638ZM253.047 124.282L253.946 123.845L253.426 122.775L252.461 123.471L253.047 124.282ZM253.689 125.669L252.777 126.08L252.777 126.08L253.689 125.669ZM254.874 127.987L255.711 127.439L255.711 127.439L254.874 127.987ZM258.68 134.127L259.537 133.611L259.537 133.611L258.68 134.127ZM268.403 147.971L269.131 147.285L269.131 147.285L268.403 147.971ZM279.995 176.115L280.994 176.165L280.994 176.165L279.995 176.115ZM276.22 239.379L277.218 239.445L277.218 239.445L276.22 239.379ZM265.918 256.816L266.385 257.7L266.385 257.7L265.918 256.816ZM264.324 258.422L265.031 259.129L265.081 259.079L265.123 259.023L264.324 258.422ZM34.3452 63.4438L34.0337 64.3941L34.0742 64.4074L34.1157 64.4171L34.3452 63.4438ZM25.3702 60.501L25.6817 59.5508L24.3702 59.1208V60.501H25.3702ZM44.6084 71.5367L43.7404 72.0334L43.7404 72.0334L44.6084 71.5367ZM53.983 87.4298L54.8439 86.9211L54.841 86.9161L53.983 87.4298ZM53.9837 87.4311L53.1228 87.9398L53.1266 87.9462L53.1305 87.9525L53.9837 87.4311ZM53.9839 87.4313L54.8419 86.9176L54.8372 86.9099L53.9839 87.4313ZM62.5142 101.855L61.6479 102.354L61.6479 102.354L62.5142 101.855ZM62.9133 106.768L61.9898 106.384L61.9898 106.385L62.9133 106.768ZM62.7217 107.229L61.7982 106.846L61.7982 106.846L62.7217 107.229ZM55.1111 123.411L54.2496 122.903L54.2496 122.903L55.1111 123.411ZM37.7506 127.499L38.2652 126.641L38.2652 126.641L37.7506 127.499ZM28.1883 115.304L27.1962 115.43L27.1962 115.43L28.1883 115.304ZM27.0916 108.105L28.0782 107.941L28.0782 107.941L27.0916 108.105ZM25.4942 95.1604L24.495 95.2004L24.495 95.2004L25.4942 95.1604ZM25.3115 71.1104L26.3115 71.1188V71.1104H25.3115ZM25.3115 71.104L24.3115 71.0965V71.104H25.3115ZM25.3115 71.1033L26.3115 71.1109V71.1033H25.3115ZM25.3115 71.1031L24.3115 71.0948V71.1031H25.3115ZM304.966 202.645L303.966 202.632L303.966 202.642L304.966 202.645ZM305.113 193.669L304.113 193.651L304.113 193.651L305.113 193.669ZM298.459 246.973L297.488 246.731L297.488 246.731L298.459 246.973ZM290.493 253.662L289.495 253.727L289.565 254.794L290.625 254.653L290.493 253.662ZM289.026 245.17L288.05 245.392L288.05 245.392L289.026 245.17ZM288.747 227.864L287.81 227.515L287.81 227.515L288.747 227.864ZM293.507 213.37L294.463 213.663L294.466 213.654L294.469 213.645L293.507 213.37ZM293.508 213.369L292.557 213.058L292.551 213.076L292.546 213.094L293.508 213.369ZM293.508 213.368L292.559 213.052L292.557 213.057L293.508 213.368ZM293.51 213.362L294.459 213.678L294.463 213.667L294.466 213.655L293.51 213.362ZM298.924 197.153L299.855 197.516L299.855 197.516L298.924 197.153ZM300.295 174.565L301.272 174.352L301.272 174.352L300.295 174.565ZM297.546 161.09L298.527 160.896L298.526 160.891L297.546 161.09ZM297.545 161.084L296.564 161.277L296.565 161.283L297.545 161.084ZM296.232 154.472L296.844 153.681L294.723 152.04L295.252 154.669L296.232 154.472ZM305.311 172.668L306.311 172.661L306.311 172.661L305.311 172.668ZM319.251 92.4879L318.253 92.4187L318.251 92.4532V92.4879H319.251ZM319.251 112.353H318.251L320.15 112.792L319.251 112.353ZM315.523 61.8868L314.983 61.045L314.366 61.4408L314.558 62.1485L315.523 61.8868ZM316.539 61.2357L317.278 60.5627L316.71 59.938L315.999 60.3939L316.539 61.2357ZM317.958 62.639L317.273 63.3678L317.273 63.3678L317.958 62.639ZM320.646 65.9161L319.724 66.3042L319.724 66.3042L320.646 65.9161ZM324.421 77.8487L323.432 77.9974L323.432 77.9974L324.421 77.8487ZM205.1 115.702L205.482 116.626L206.162 116.345L206.096 115.613L205.1 115.702ZM203.3 95.5416L204.296 95.4526L204.181 94.1574L202.959 94.6018L203.3 95.5416ZM167.78 116.422L167.449 117.365L167.454 117.367L167.78 116.422ZM156.98 108.862L157.774 108.253L157.774 108.253L156.98 108.862ZM151.46 96.7416L152.436 96.5228L152.436 96.5228L151.46 96.7416ZM151.46 62.4216L152.436 62.6403L152.437 62.6367L151.46 62.4216ZM156.98 50.1816L156.188 49.5709L156.187 49.5727L156.98 50.1816ZM195.86 41.1816L195.705 42.1695L195.716 42.1712L195.727 42.1726L195.86 41.1816ZM205.1 43.3416L206.082 43.534L206.236 42.7486L205.503 42.4262L205.1 43.3416ZM201.5 61.7016L201.29 62.6791L202.286 62.8936L202.482 61.894L201.5 61.7016ZM178.22 61.2216L178.65 62.1244L178.65 62.1244L178.22 61.2216ZM175.7 97.4616H174.7V98.2773L175.499 98.4412L175.7 97.4616ZM258.3 95.5416L259.296 95.4526L259.181 94.1574L257.959 94.6018L258.3 95.5416ZM260.1 115.702L260.482 116.626L261.162 116.345L261.096 115.613L260.1 115.702ZM230.7 97.4616H229.7V98.2773L230.499 98.4412L230.7 97.4616ZM233.22 61.2216L233.65 62.1244L233.65 62.1244L233.22 61.2216ZM256.5 61.7016L256.29 62.6791L257.286 62.8936L257.482 61.894L256.5 61.7016ZM260.1 43.3416L261.082 43.534L261.236 42.7486L260.503 42.4262L260.1 43.3416ZM250.86 41.1816L250.705 42.1695L250.716 42.1712L250.727 42.1726L250.86 41.1816ZM211.98 50.1816L211.188 49.5709L211.187 49.5727L211.98 50.1816ZM206.46 62.4216L207.436 62.6403L207.437 62.6367L206.46 62.4216ZM206.46 96.7416L207.436 96.5228L207.436 96.5228L206.46 96.7416ZM211.98 108.862L212.774 108.253L212.774 108.253L211.98 108.862ZM222.78 116.422L222.449 117.365L222.454 117.367L222.78 116.422ZM264.389 259.942C264.66 259.64 264.907 259.311 265.123 259.023L263.525 257.821C263.299 258.121 263.104 258.379 262.9 258.606L264.389 259.942ZM265.532 258.562C264.962 258.465 264.372 258.363 263.779 258.283L263.51 260.265C264.063 260.34 264.618 260.435 265.194 260.533L265.532 258.562ZM269.08 258.977C267.939 258.972 266.784 258.777 265.532 258.562L265.194 260.533C266.417 260.743 267.736 260.971 269.071 260.977L269.08 258.977ZM307.692 258.713C294.566 258.999 281.825 259.034 269.08 258.977L269.071 260.977C281.826 261.034 294.585 260.999 307.735 260.713L307.692 258.713ZM307.874 256.248C307.556 257.283 307.242 258.3 306.798 259.31L308.629 260.115C309.127 258.983 309.472 257.856 309.785 256.835L307.874 256.248ZM307.901 256.17L307.901 256.17L309.758 256.913L309.758 256.913L307.901 256.17ZM309.628 252.004C308.771 253.299 308.313 254.818 307.874 256.248L309.786 256.835C310.243 255.344 310.627 254.119 311.296 253.108L309.628 252.004ZM311.653 242.463C312.432 245.949 311.674 248.913 309.628 252.004L311.296 253.108C313.58 249.656 314.525 246.143 313.605 242.027L311.653 242.463ZM311.304 241.041C311.43 241.534 311.551 242.005 311.653 242.463L313.605 242.027C313.495 241.534 313.367 241.034 313.242 240.546L311.304 241.041ZM310.75 235.026C310.248 237.007 310.842 239.231 311.304 241.041L313.242 240.546C312.742 238.589 312.337 236.906 312.689 235.518L310.75 235.026ZM312.067 229.79C311.629 231.538 311.192 233.283 310.75 235.026L312.689 235.518C313.132 233.772 313.57 232.023 314.007 230.276L312.067 229.79ZM320.482 200.205C317.052 209.879 314.551 219.873 312.067 229.79L314.007 230.276C316.495 220.343 318.975 210.442 322.367 200.874L320.482 200.205ZM321.111 171.603C324.51 181.218 323.941 190.451 320.482 200.205L322.367 200.874C325.948 190.774 326.577 181.063 322.996 170.936L321.111 171.603ZM320.392 169.62C320.637 170.288 320.879 170.948 321.111 171.603L322.996 170.936C322.76 170.268 322.514 169.598 322.27 168.931L320.392 169.62ZM317.696 159.232C317.885 162.806 319.187 166.333 320.392 169.62L322.27 168.931C321.042 165.583 319.864 162.345 319.693 159.126L317.696 159.232ZM317.263 135.049C317.267 143.095 317.27 151.172 317.696 159.232L319.693 159.126C319.27 151.127 319.267 143.103 319.263 135.048L317.263 135.049ZM317.263 135.047V135.049H319.263V135.047H317.263ZM317.245 127.172C317.261 129.795 317.262 132.42 317.263 135.047L319.263 135.046C319.262 132.42 319.261 129.79 319.245 127.16L317.245 127.172ZM317.619 124.778C317.431 125.579 317.24 126.366 317.245 127.172L319.245 127.16C319.242 126.638 319.364 126.095 319.566 125.236L317.619 124.778ZM317.624 124.757L317.624 124.76L319.561 125.254L319.562 125.252L317.624 124.757ZM317.621 124.772L317.62 124.776L319.566 125.234L319.567 125.23L317.621 124.772ZM317.937 123.327C317.834 123.862 317.724 124.331 317.621 124.772L319.567 125.23C319.671 124.79 319.79 124.285 319.901 123.704L317.937 123.327ZM328.575 138.655L319.791 123.026L318.047 124.005L326.831 139.635L328.575 138.655ZM327.854 135.946C327.493 136.886 327.128 137.835 326.767 138.793L328.638 139.498C328.997 138.547 329.36 137.604 329.721 136.663L327.854 135.946ZM332.588 110.829C334.114 119.591 331.154 127.357 327.854 135.946L329.721 136.663C332.988 128.16 336.194 119.877 334.559 110.487L332.588 110.829ZM330.343 92.8939C330.901 98.8719 331.554 104.884 332.588 110.829L334.559 110.486C333.538 104.62 332.891 98.6712 332.334 92.708L330.343 92.8939ZM330 86.2091C330.066 88.4157 330.134 90.6605 330.343 92.894L332.334 92.7079C332.132 90.5475 332.066 88.3657 331.999 86.1485L330 86.2091ZM329.999 86.1783V86.1788H331.999V86.1783H329.999ZM329.999 86.1779V86.1783H331.999V86.1779H329.999ZM329.999 86.1738V86.1779H331.999V86.1738H329.999ZM329.39 77.3488C329.818 80.2399 329.908 83.1864 330 86.2041L331.999 86.1435C331.908 83.1459 331.816 80.0821 331.368 77.0561L329.39 77.3488ZM310.475 52.0965C322.127 56.6039 327.655 65.6197 329.39 77.3487L331.368 77.0561C329.554 64.7901 323.67 55.0566 311.197 50.2312L310.475 52.0965ZM307.756 50.4443C308.516 51.2632 309.614 51.7634 310.475 52.0965L311.197 50.2312C310.369 49.9112 309.649 49.5437 309.221 49.0834L307.756 50.4443ZM287.755 43.2637C295.618 43.1812 302.42 44.6979 307.756 50.4443L309.221 49.0834C303.338 42.7477 295.863 41.1785 287.734 41.2638L287.755 43.2637ZM257.601 32.9904C266.128 40.4463 276.602 43.3807 287.755 43.2637L287.734 41.2638C276.954 41.3769 266.994 38.5466 258.918 31.4848L257.601 32.9904ZM237.562 13.4888C243.654 20.5217 250.611 26.8785 257.601 32.9904L258.918 31.4848C251.941 25.3845 245.071 19.1025 239.074 12.1794L237.562 13.4888ZM188.781 13.2079C201.914 -1.88327 224.423 -1.68031 237.562 13.4888L239.074 12.1794C225.154 -3.89154 201.219 -4.13113 187.272 11.8949L188.781 13.2079ZM172.501 29.1867C178.348 24.3347 183.81 18.9196 188.781 13.2079L187.272 11.8949C182.366 17.5327 176.981 22.8707 171.224 27.6476L172.501 29.1867ZM159.085 39.6189C163.6 36.2216 168.137 32.8072 172.501 29.1867L171.224 27.6476C166.903 31.2326 162.404 34.6187 157.883 38.0208L159.085 39.6189ZM159.107 39.6022L159.109 39.6007L157.859 38.039L157.857 38.0405L159.107 39.6022ZM143.508 51.8815C148.495 47.5887 153.773 43.6164 159.083 39.6204L157.881 38.0223C152.58 42.0116 147.248 46.0229 142.203 50.3657L143.508 51.8815ZM130.251 64.4558C134.594 60.1335 138.907 55.8419 143.508 51.8815L142.203 50.3657C137.538 54.3812 133.175 58.7246 128.841 63.0382L130.251 64.4558ZM130.186 64.5153L130.186 64.5152L128.906 62.9788L128.906 62.9789L130.186 64.5153ZM130.253 64.4545L130.253 64.4542L128.839 63.04L128.838 63.0403L130.253 64.4545ZM130.25 64.4571L130.253 64.4545L128.838 63.0403L128.836 63.0429L130.25 64.4571ZM117.611 76.5026C122.004 72.6642 126.14 68.5478 130.248 64.4588L128.838 63.0412C124.721 67.1379 120.631 71.2079 116.295 74.9965L117.611 76.5026ZM81.0503 70.0143C85.3665 78.1288 90.9154 82.9588 97.3191 84.0859C103.718 85.2121 110.651 82.5838 117.611 76.5026L116.295 74.9965C109.58 80.8633 103.24 83.0971 97.6658 82.1161C92.0964 81.136 86.9727 76.8896 82.816 69.0751L81.0503 70.0143ZM70.8172 45.9928C73.8661 54.0984 76.9564 62.3181 81.0503 70.0143L82.816 69.0751C78.7931 61.5122 75.746 53.4153 72.6892 45.2887L70.8172 45.9928ZM70.8394 46.0468L70.8394 46.0469L72.667 45.2346L72.667 45.2345L70.8394 46.0468ZM70.8246 46.0117L70.8247 46.012L72.6817 45.2692L72.6815 45.2689L70.8246 46.0117ZM70.8041 45.9556L70.8044 45.9566L72.7017 45.3241L72.7014 45.3231L70.8041 45.9556ZM70.8131 45.9817L70.8164 45.9905L72.6891 45.2883L72.6858 45.2795L70.8131 45.9817ZM69.6506 42.8977C70.0391 43.924 70.426 44.9525 70.8135 45.9826L72.6854 45.2785C72.298 44.2487 71.9105 43.2182 71.5211 42.1896L69.6506 42.8977ZM71.2026 35.7188C70.395 36.5736 69.8389 37.8728 69.5598 39.126C69.2821 40.373 69.231 41.7891 69.6506 42.8977L71.5211 42.1896C71.2956 41.5938 71.2765 40.6182 71.512 39.5608C71.7461 38.5096 72.1843 37.592 72.6564 37.0923L71.2026 35.7188ZM74.1976 27.5905C73.8144 30.6405 73.4523 33.3375 71.2026 35.7188L72.6564 37.0923C75.4087 34.1791 75.8049 30.8412 76.182 27.8398L74.1976 27.5905ZM74.1898 27.7151V27.7152H76.1898V27.7151H74.1898ZM74.2094 27.5178L74.2092 27.519L76.1704 27.9112L76.1706 27.9101L74.2094 27.5178ZM74.5708 25.0077C74.4127 25.8768 74.3033 26.7497 74.1978 27.5893L76.1822 27.8386C76.2888 26.9899 76.3919 26.1717 76.5385 25.3657L74.5708 25.0077ZM57.3871 25.1538C63.3481 22.9895 69.0414 23.7875 75.2003 26.1218L75.9091 24.2516C69.5 21.8225 63.2807 20.8862 56.7046 23.2739L57.3871 25.1538ZM53.2215 25.7961C54.5297 25.7244 56.0194 25.6504 57.3871 25.1538L56.7046 23.2739C55.6642 23.6516 54.4822 23.724 53.1121 23.7991L53.2215 25.7961ZM49.836 26.2463C50.8403 25.9321 51.9553 25.8655 53.2215 25.7961L53.1121 23.7991C51.8962 23.8658 50.5234 23.9356 49.2387 24.3376L49.836 26.2463ZM47.3186 27.0003C48.159 26.7542 49.0052 26.5063 49.836 26.2463L49.2387 24.3376C48.4283 24.5912 47.5999 24.8339 46.7564 25.081L47.3186 27.0003ZM47.3537 26.9893L47.3537 26.9893L46.7213 25.092L46.7213 25.092L47.3537 26.9893ZM37.4984 31.1111C40.1508 29.1124 43.6612 28.0716 47.3186 27.0003L46.7564 25.081C43.1831 26.1276 39.2928 27.2546 36.2948 29.5138L37.4984 31.1111ZM20.5144 37.2853C27.2342 37.2886 32.3542 34.9876 37.4984 31.1111L36.2948 29.5138C31.3938 33.2071 26.6864 35.2883 20.5154 35.2853L20.5144 37.2853ZM2.50239 50.38C3.66233 46.9274 6.18847 43.6417 9.44543 41.2179C12.7007 38.7954 16.6188 37.2834 20.5144 37.2853L20.5154 35.2853C16.1117 35.2832 11.7842 36.9844 8.2514 39.6135C4.72029 42.2413 1.91586 45.8458 0.606518 49.7431L2.50239 50.38ZM5.70103 55.8756C3.66403 55.5652 2.71402 54.9551 2.30865 54.2491C1.89294 53.5251 1.84167 52.3466 2.50238 50.38L0.606518 49.7431C-0.101377 51.8501 -0.285026 53.7484 0.574202 55.2449C1.44378 56.7595 3.17603 57.5139 5.39971 57.8528L5.70103 55.8756ZM16.9929 56.9762C13.2043 56.7632 9.42247 56.4428 5.70103 55.8756L5.39971 57.8528C9.20682 58.433 13.0572 58.7581 16.8806 58.973L16.9929 56.9762ZM17.9003 57.0253C17.6169 57.0103 17.3154 56.9943 16.9929 56.9762L16.8806 58.973C17.2068 58.9914 17.5115 59.0075 17.7946 59.0225L17.9003 57.0253ZM22.2587 58.0714C21.7938 57.5227 21.1223 57.3322 20.49 57.2307C19.8432 57.1267 18.9772 57.0823 17.9003 57.0253L17.7946 59.0225C18.9212 59.0821 19.6573 59.1225 20.1727 59.2053C20.7026 59.2905 20.7534 59.3886 20.7327 59.3642L22.2587 58.0714ZM22.8214 61.3319C22.835 60.6571 22.8487 60.0515 22.8035 59.5627C22.7581 59.0719 22.6419 58.5237 22.2587 58.0714L20.7327 59.3642C20.7189 59.3479 20.7798 59.3988 20.812 59.747C20.8444 60.0972 20.8363 60.5705 20.8218 61.2915L22.8214 61.3319ZM22.8216 61.3118V61.3117H20.8216V61.3118H22.8216ZM22.8044 63.1944C22.7983 62.4763 22.8106 61.8645 22.8214 61.332L20.8218 61.2916C20.811 61.824 20.7981 62.4614 20.8044 63.2112L22.8044 63.1944ZM22.831 74.919C22.8341 71.014 22.8373 67.1037 22.8044 63.1944L20.8044 63.2112C20.8372 67.1098 20.8341 71.0109 20.831 74.9174L22.831 74.919ZM22.831 74.9207V74.9182H20.831V74.9207H22.831ZM23.3085 103.046C22.8161 93.7014 22.8234 84.3271 22.831 74.9215L20.831 74.9199C20.8234 84.3165 20.8156 93.7444 21.3112 103.151L23.3085 103.046ZM27.4088 120.853C25.192 115.191 23.6236 109.027 23.3085 103.046L21.3112 103.151C21.6402 109.395 23.2718 115.772 25.5465 121.582L27.4088 120.853ZM44.3055 131.571C36.3025 131.206 30.1959 127.972 27.4088 120.853L25.5465 121.582C28.7054 129.65 35.6808 133.18 44.2144 133.569L44.3055 131.571ZM60.0908 122.082C58.3756 125.215 56.2911 127.661 53.7313 129.285C51.1819 130.902 48.098 131.743 44.3055 131.571L44.2144 133.569C48.3742 133.758 51.8721 132.833 54.8025 130.974C57.7226 129.122 60.0159 126.383 61.8451 123.043L60.0908 122.082ZM63.2287 115.271C62.2418 117.621 61.277 119.915 60.0908 122.082L61.8451 123.043C63.0893 120.77 64.0925 118.379 65.0727 116.046L63.2287 115.271ZM64.3976 112.528C63.9975 113.441 63.6113 114.36 63.2287 115.271L65.0727 116.046C65.4562 115.133 65.8364 114.227 66.2293 113.331L64.3976 112.528ZM65.8937 108.954C65.3762 110.219 64.9009 111.381 64.3976 112.528L66.2293 113.332C66.7443 112.157 67.2291 110.972 67.7448 109.711L65.8937 108.954ZM65.8937 108.954L65.8932 108.955L67.7453 109.71L67.7459 109.709L65.8937 108.954ZM65.8959 108.949L65.8942 108.953L67.7453 109.71L67.747 109.706L65.8959 108.949ZM66.66 107.09C66.3921 107.736 66.1394 108.353 65.8959 108.949L67.747 109.706C67.9907 109.11 68.2417 108.497 68.5075 107.856L66.66 107.09ZM69.8208 107.856C69.3011 107.482 68.7564 107.091 68.1735 106.665L66.994 108.28C67.5841 108.711 68.1349 109.107 68.6541 109.48L69.8208 107.856ZM69.8623 107.887L69.8621 107.887L68.6128 109.449L68.6129 109.449L69.8623 107.887ZM72.7171 109.993C71.8007 109.278 70.8575 108.6 69.821 107.856L68.6541 109.48C69.6971 110.229 70.6069 110.883 71.486 111.57L72.7171 109.993ZM113.82 120.592C98.5431 123.269 84.8611 119.478 72.7171 109.993L71.486 111.57C84.048 121.38 98.2965 125.343 114.166 122.562L113.82 120.592ZM127.023 117.258C122.611 118.545 118.253 119.815 113.82 120.592L114.166 122.562C118.726 121.763 123.189 120.459 127.584 119.177L127.023 117.258ZM130.765 116.178C129.515 116.531 128.267 116.895 127.023 117.258L127.584 119.177C128.828 118.814 130.068 118.453 131.308 118.103L130.765 116.178ZM137.075 119.852C136.739 118.348 136.098 117.094 134.93 116.403C133.765 115.713 132.331 115.736 130.765 116.178L131.308 118.103C132.634 117.728 133.423 117.835 133.912 118.124C134.398 118.412 134.843 119.032 135.123 120.288L137.075 119.852ZM137.255 120.635C137.193 120.37 137.133 120.111 137.075 119.852L135.123 120.288C135.183 120.557 135.246 120.825 135.307 121.088L137.255 120.635ZM137.728 122.905C137.602 122.126 137.424 121.361 137.255 120.635L135.307 121.088C135.478 121.825 135.64 122.524 135.753 123.224L137.728 122.905ZM140.916 142.558C139.851 136.007 138.785 129.457 137.728 122.905L135.753 123.224C136.811 129.777 137.877 136.328 138.942 142.879L140.916 142.558ZM140.919 142.576L140.916 142.559L138.942 142.879L138.945 142.896L140.919 142.576ZM140.922 142.594L140.919 142.576L138.945 142.896L138.948 142.914L140.922 142.594ZM140.923 142.597L140.922 142.591L138.948 142.916L138.949 142.922L140.923 142.597ZM140.928 142.633L140.923 142.598L138.949 142.921L138.955 142.957L140.928 142.633ZM149.28 194.931C146.597 177.481 143.762 160.055 140.929 142.634L138.955 142.955C141.789 160.378 144.622 177.795 147.303 195.235L149.28 194.931ZM149.8 198.266C149.625 197.153 149.45 196.041 149.28 194.931L147.303 195.235C147.474 196.349 147.649 197.463 147.824 198.576L149.8 198.266ZM149.802 198.277L149.8 198.266L147.824 198.576L147.826 198.587L149.802 198.277ZM151.634 230.815C153.184 219.763 151.473 208.918 149.802 198.276L147.826 198.587C149.505 209.277 151.155 219.828 149.654 230.537L151.634 230.815ZM137.661 254.81C147.457 249.452 150.289 240.412 151.634 230.815L149.654 230.537C148.333 239.956 145.639 248.166 136.701 253.055L137.661 254.81ZM133.926 258.113C135.184 256.752 136.31 255.549 137.661 254.81L136.701 253.055C135.012 253.979 133.668 255.446 132.458 256.755L133.926 258.113ZM132.148 259.952C132.772 259.361 133.362 258.722 133.926 258.113L132.458 256.755C131.886 257.373 131.34 257.963 130.772 258.501L132.148 259.952ZM138.342 258.325C136.052 258.293 133.764 258.261 131.475 258.227L131.445 260.227C133.735 260.261 136.024 260.293 138.313 260.325L138.342 258.325ZM154.657 258.579C149.218 258.479 143.778 258.402 138.342 258.325L138.313 260.325C143.751 260.402 149.186 260.479 154.62 260.578L154.657 258.579ZM157.479 258.637C156.538 258.616 155.598 258.596 154.657 258.579L154.62 260.578C155.557 260.596 156.495 260.616 157.436 260.636L157.479 258.637ZM157.458 258.636H157.458V260.636H157.458V258.636ZM157.459 258.636H157.458V260.636H157.459V258.636ZM168.922 258.7C164.958 258.797 161.21 258.717 157.48 258.637L157.437 260.636C161.161 260.716 164.954 260.798 168.971 260.7L168.922 258.7ZM169.51 241.167C169.362 247.209 168.727 253.251 167.954 259.579L169.939 259.821C170.714 253.48 171.358 247.359 171.51 241.216L169.51 241.167ZM169.225 234.792C169.396 236.962 169.562 239.073 169.51 241.167L171.51 241.216C171.564 239.001 171.389 236.787 171.219 234.635L169.225 234.792ZM169.223 234.752L169.223 234.753L171.222 234.674L171.221 234.673L169.223 234.752ZM169.222 234.711V234.712H171.222V234.711H169.222ZM168.976 227.234C168.828 229.775 169.031 232.322 169.225 234.79L171.219 234.633C171.023 232.141 170.834 229.731 170.973 227.35L168.976 227.234ZM170.026 216.404C169.609 219.986 169.187 223.602 168.976 227.234L170.973 227.35C171.18 223.786 171.594 220.227 172.013 216.635L170.026 216.404ZM171.164 203.528C171.028 207.807 170.53 212.08 170.026 216.404L172.013 216.635C172.515 212.326 173.024 207.969 173.163 203.592L171.164 203.528ZM172.278 155.224C171.978 171.333 171.677 187.435 171.164 203.528L173.163 203.592C173.676 187.483 173.977 171.368 174.278 155.262L172.278 155.224ZM172.278 155.243V155.243H174.278V155.243H172.278ZM172.278 155.242V155.243H174.278V155.242H172.278ZM172.278 155.241V155.242H174.278V155.241H172.278ZM172.278 155.208L172.278 155.223L174.278 155.259L174.278 155.243L172.278 155.208ZM172.635 136.759C172.508 142.909 172.393 149.059 172.278 155.207L174.278 155.244C174.393 149.096 174.508 142.947 174.634 136.8L172.635 136.759ZM172.642 134.276C172.647 135.222 172.65 135.992 172.635 136.759L174.634 136.8C174.651 136.003 174.647 135.207 174.642 134.267L172.642 134.276ZM172.638 132.639C172.638 133.245 172.64 133.784 172.642 134.276L174.642 134.267C174.64 133.774 174.638 133.239 174.638 132.639H172.638ZM252.461 123.471C240.257 132.283 227.681 137.504 214.667 138.952C201.654 140.4 188.141 138.084 174.049 131.727L173.226 133.551C187.599 140.033 201.471 142.433 214.888 140.94C228.302 139.447 241.199 134.07 253.632 125.093L252.461 123.471ZM254.601 125.259C254.406 124.825 254.193 124.351 253.946 123.845L252.148 124.72C252.379 125.196 252.581 125.644 252.777 126.08L254.601 125.259ZM255.711 127.439C255.309 126.825 254.997 126.139 254.601 125.259L252.777 126.08C253.16 126.93 253.534 127.766 254.038 128.535L255.711 127.439ZM259.537 133.611C258.292 131.546 257.036 129.462 255.711 127.439L254.038 128.535C255.339 130.522 256.576 132.573 257.824 134.644L259.537 133.611ZM269.131 147.285C265.382 143.302 262.49 138.511 259.537 133.611L257.824 134.644C260.757 139.509 263.754 144.49 267.675 148.656L269.131 147.285ZM280.994 176.165C281.568 164.801 276.954 155.597 269.131 147.285L267.675 148.656C275.243 156.697 279.535 165.395 278.997 176.064L280.994 176.165ZM277.218 239.445C278.614 218.363 279.929 197.27 280.994 176.165L278.997 176.064C277.932 197.154 276.618 218.236 275.222 239.313L277.218 239.445ZM266.385 257.7C273.887 253.733 276.715 247.026 277.218 239.445L275.222 239.313C274.75 246.443 272.152 252.388 265.451 255.932L266.385 257.7ZM265.123 259.023C265.635 258.343 265.981 257.914 266.385 257.7L265.451 255.932C264.576 256.394 263.968 257.233 263.525 257.821L265.123 259.023ZM265.031 259.129L265.031 259.129L263.617 257.715L263.617 257.715L265.031 259.129ZM34.6568 62.4936L25.6817 59.5508L25.0586 61.4513L34.0337 64.3941L34.6568 62.4936ZM45.4763 71.0401C43.0922 66.8734 40.0272 63.7567 34.5748 62.4706L34.1157 64.4171C38.8826 65.5416 41.5468 68.1996 43.7404 72.0334L45.4763 71.0401ZM54.841 86.9161C51.6796 81.6366 48.5244 76.3671 45.4763 71.0401L43.7404 72.0334C46.7999 77.3804 49.9654 82.6669 53.1251 87.9436L54.841 86.9161ZM54.8447 86.9224L54.8439 86.9211L53.1221 87.9386L53.1228 87.9398L54.8447 86.9224ZM54.8372 86.9099L54.837 86.9096L53.1305 87.9525L53.1306 87.9528L54.8372 86.9099ZM63.3804 101.355C60.5854 96.5095 57.7111 91.7094 54.8418 86.9176L53.1259 87.945C55.9966 92.7392 58.8625 97.5253 61.6479 102.354L63.3804 101.355ZM63.8368 107.152C64.204 106.268 64.2962 105.197 64.2111 104.204C64.1257 103.206 63.852 102.173 63.3804 101.355L61.6479 102.354C61.9384 102.858 62.1513 103.591 62.2184 104.374C62.2858 105.162 62.1965 105.887 61.9898 106.384L63.8368 107.152ZM63.6453 107.613L63.8369 107.152L61.9898 106.385L61.7982 106.846L63.6453 107.613ZM55.9727 123.918C59.0333 118.724 61.3647 113.105 63.6453 107.613L61.7982 106.846C59.5082 112.361 57.2276 117.849 54.2496 122.903L55.9727 123.918ZM37.236 128.356C40.9238 130.569 44.4901 131.426 47.7564 130.678C51.0336 129.927 53.7976 127.61 55.9727 123.918L54.2496 122.903C52.2611 126.278 49.8963 128.136 47.3098 128.728C44.7123 129.323 41.6801 128.691 38.2652 126.641L37.236 128.356ZM27.1962 115.43C28.0108 121.872 32.4853 125.505 37.236 128.356L38.2652 126.641C33.6299 123.86 29.8733 120.658 29.1804 115.179L27.1962 115.43ZM26.105 108.268C26.5019 110.668 26.8951 113.048 27.1962 115.43L29.1804 115.179C28.8737 112.753 28.474 110.336 28.0782 107.941L26.105 108.268ZM24.495 95.2004C24.6711 99.6021 25.3944 103.969 26.105 108.268L28.0782 107.941C27.3641 103.622 26.6638 99.3774 26.4934 95.1205L24.495 95.2004ZM24.3115 71.102C24.2433 79.2649 24.1764 87.2381 24.495 95.2004L26.4934 95.1205C26.1771 87.2147 26.2431 79.2901 26.3114 71.1188L24.3115 71.102ZM24.3115 71.104V71.1104H26.3115V71.104H24.3115ZM24.3115 71.0957L24.3115 71.0965L26.3114 71.1116L26.3114 71.1109L24.3115 71.0957ZM24.3115 71.1031V71.1033H26.3115V71.1031H24.3115ZM24.3702 60.501C24.3702 64.0806 24.3407 67.6052 24.3115 71.0948L26.3114 71.1115C26.3406 67.6232 26.3702 64.0903 26.3702 60.501H24.3702ZM305.966 202.659C306.005 199.669 306.059 196.68 306.113 193.687L304.113 193.651C304.059 196.643 304.006 199.637 303.966 202.632L305.966 202.659ZM299.429 247.215C303.016 232.821 305.911 218.278 305.966 202.649L303.966 202.642C303.912 218.031 301.062 232.391 297.488 246.731L299.429 247.215ZM290.625 254.653C293.08 254.325 295.03 253.588 296.508 252.321C297.993 251.048 298.903 249.326 299.429 247.215L297.488 246.731C297.033 248.56 296.293 249.871 295.206 250.802C294.113 251.739 292.572 252.376 290.36 252.67L290.625 254.653ZM288.05 245.392C288.693 248.219 289.313 250.952 289.495 253.727L291.49 253.596C291.297 250.637 290.638 247.749 290.001 244.948L288.05 245.392ZM287.81 227.515C285.421 233.929 286.785 239.826 288.05 245.392L290.001 244.948C288.72 239.317 287.532 233.992 289.684 228.213L287.81 227.515ZM292.551 213.076C291.057 217.946 289.572 222.784 287.81 227.515L289.684 228.213C291.47 223.418 292.972 218.524 294.463 213.663L292.551 213.076ZM292.546 213.094L292.546 213.095L294.469 213.645L294.469 213.644L292.546 213.094ZM292.557 213.057L292.557 213.058L294.458 213.68L294.458 213.679L292.557 213.057ZM292.561 213.045L292.559 213.052L294.457 213.685L294.459 213.678L292.561 213.045ZM297.992 196.79C295.909 202.135 294.226 207.622 292.554 213.068L294.466 213.655C296.141 208.197 297.804 202.781 299.855 197.516L297.992 196.79ZM299.318 174.778C300.959 182.302 300.862 189.424 297.992 196.79L299.855 197.516C302.897 189.711 302.979 182.176 301.272 174.352L299.318 174.778ZM296.565 161.283C297.485 165.95 298.356 170.373 299.318 174.778L301.272 174.352C300.316 169.969 299.448 165.567 298.527 160.896L296.565 161.283ZM296.565 161.283L296.566 161.289L298.526 160.891L298.525 160.885L296.565 161.283ZM295.252 154.669C295.709 156.94 296.141 159.135 296.564 161.277L298.526 160.891C298.104 158.748 297.67 156.55 297.213 154.275L295.252 154.669ZM306.311 172.661C306.255 165.314 303.603 158.911 296.844 153.681L295.62 155.263C301.86 160.092 304.259 165.899 304.311 172.676L306.311 172.661ZM306.113 193.687C306.239 186.689 306.365 179.675 306.311 172.661L304.311 172.676C304.365 179.66 304.239 186.648 304.113 193.651L306.113 193.687ZM318.251 92.4879V112.353H320.251V92.4879H318.251ZM314.558 62.1485C317.207 71.9164 318.997 81.7055 318.253 92.4187L320.249 92.5571C321.014 81.5297 319.165 71.4971 316.488 61.6251L314.558 62.1485ZM315.999 60.3939L314.983 61.045L316.063 62.7286L317.078 62.0775L315.999 60.3939ZM318.643 61.9102C318.147 61.4443 317.686 61.0105 317.278 60.5627L315.799 61.9087C316.268 62.4246 316.788 62.9122 317.273 63.3678L318.643 61.9102ZM321.567 65.528C320.946 64.0515 319.685 62.8894 318.642 61.9102L317.273 63.3678C318.395 64.422 319.298 65.2932 319.724 66.3042L321.567 65.528ZM325.409 77.7001C324.776 73.4854 323.187 69.3742 321.567 65.528L319.724 66.3042C321.339 70.1389 322.838 74.0506 323.432 77.9974L325.409 77.7001ZM320.15 112.792C325.642 101.539 327.224 89.7708 325.409 77.7001L323.432 77.9974C325.189 89.6882 323.658 101.044 318.352 111.915L320.15 112.792ZM206.096 115.613L204.296 95.4526L202.304 95.6305L204.104 115.79L206.096 115.613ZM186.14 119.822C193.823 119.822 200.283 118.771 205.482 116.626L204.719 114.777C199.837 116.792 193.657 117.822 186.14 117.822V119.822ZM167.454 117.367C172.24 119.017 178.483 119.822 186.14 119.822V117.822C178.597 117.822 172.6 117.026 168.106 115.476L167.454 117.367ZM156.187 109.47C158.959 113.082 162.728 115.708 167.449 117.365L168.111 115.478C163.713 113.935 160.282 111.521 157.774 108.253L156.187 109.47ZM150.485 96.9603C151.553 101.728 153.45 105.904 156.187 109.47L157.774 108.253C155.23 104.939 153.447 101.035 152.436 96.5228L150.485 96.9603ZM148.9 79.5816C148.9 86.4265 149.423 92.2251 150.485 96.9603L152.436 96.5228C151.417 91.978 150.9 86.3366 150.9 79.5816H148.9ZM150.485 62.2028C149.423 66.938 148.9 72.7366 148.9 79.5816H150.9C150.9 72.8265 151.417 67.1851 152.436 62.6403L150.485 62.2028ZM156.187 49.5727C153.448 53.1417 151.552 57.3598 150.484 62.2064L152.437 62.6367C153.449 58.0433 155.233 54.1015 157.774 50.7904L156.187 49.5727ZM185.18 39.2216C171.385 39.2216 161.591 42.564 156.188 49.5709L157.772 50.7922C162.609 44.5191 171.615 41.2216 185.18 41.2216V39.2216ZM196.015 40.1936C191.901 39.5482 188.287 39.2216 185.18 39.2216V41.2216C188.154 41.2216 191.66 41.5349 195.705 42.1695L196.015 40.1936ZM205.503 42.4262C203.371 41.4882 200.178 40.7537 195.994 40.1905L195.727 42.1726C199.863 42.7294 202.83 43.435 204.698 44.2569L205.503 42.4262ZM202.482 61.894L206.082 43.534L204.119 43.1491L200.519 61.5091L202.482 61.894ZM187.22 61.0216C191.455 61.0216 196.144 61.5708 201.29 62.6791L201.711 60.724C196.457 59.5924 191.625 59.0216 187.22 59.0216V61.0216ZM178.65 62.1244C180.107 61.4305 182.902 61.0216 187.22 61.0216V59.0216C182.898 59.0216 179.693 59.4126 177.79 60.3187L178.65 62.1244ZM176.7 66.0216C176.7 63.8737 177.425 62.708 178.65 62.1244L177.79 60.3187C175.656 61.3351 174.7 63.3694 174.7 66.0216H176.7ZM176.7 97.4616V66.0216H174.7V97.4616H176.7ZM185.18 97.4216C182.047 97.4216 178.955 97.1083 175.901 96.482L175.499 98.4412C178.686 99.0948 181.913 99.4216 185.18 99.4216V97.4216ZM202.959 94.6018C197.808 96.4746 191.888 97.4216 185.18 97.4216V99.4216C192.073 99.4216 198.232 98.4486 203.642 96.4814L202.959 94.6018ZM257.304 95.6305L259.104 115.79L261.096 115.613L259.296 95.4526L257.304 95.6305ZM240.18 99.4216C247.073 99.4216 253.232 98.4486 258.642 96.4814L257.959 94.6018C252.808 96.4746 246.888 97.4216 240.18 97.4216V99.4216ZM230.499 98.4412C233.686 99.0948 236.913 99.4216 240.18 99.4216V97.4216C237.047 97.4216 233.955 97.1083 230.901 96.482L230.499 98.4412ZM229.7 66.0216V97.4616H231.7V66.0216H229.7ZM232.79 60.3187C230.656 61.3351 229.7 63.3694 229.7 66.0216H231.7C231.7 63.8737 232.425 62.708 233.65 62.1244L232.79 60.3187ZM242.22 59.0216C237.898 59.0216 234.693 59.4126 232.79 60.3187L233.65 62.1244C235.107 61.4305 237.902 61.0216 242.22 61.0216V59.0216ZM256.711 60.724C251.457 59.5924 246.625 59.0216 242.22 59.0216V61.0216C246.455 61.0216 251.144 61.5708 256.29 62.6791L256.711 60.724ZM259.119 43.1491L255.519 61.5091L257.482 61.894L261.082 43.534L259.119 43.1491ZM250.727 42.1726C254.863 42.7294 257.83 43.435 259.698 44.2569L260.503 42.4262C258.371 41.4882 255.178 40.7537 250.994 40.1905L250.727 42.1726ZM240.18 41.2216C243.154 41.2216 246.66 41.5349 250.705 42.1695L251.015 40.1936C246.901 39.5482 243.287 39.2216 240.18 39.2216V41.2216ZM212.772 50.7922C217.609 44.5191 226.615 41.2216 240.18 41.2216V39.2216C226.385 39.2216 216.591 42.564 211.188 49.5709L212.772 50.7922ZM207.437 62.6367C208.449 58.0433 210.233 54.1015 212.774 50.7904L211.187 49.5727C208.448 53.1417 206.552 57.3598 205.484 62.2064L207.437 62.6367ZM205.9 79.5816C205.9 72.8265 206.417 67.1851 207.436 62.6403L205.485 62.2028C204.423 66.938 203.9 72.7366 203.9 79.5816H205.9ZM207.436 96.5228C206.417 91.978 205.9 86.3366 205.9 79.5816H203.9C203.9 86.4265 204.423 92.2251 205.485 96.9603L207.436 96.5228ZM212.774 108.253C210.23 104.939 208.447 101.035 207.436 96.5228L205.485 96.9603C206.553 101.728 208.45 105.904 211.187 109.47L212.774 108.253ZM223.111 115.478C218.713 113.935 215.282 111.521 212.774 108.253L211.187 109.47C213.959 113.082 217.728 115.708 222.449 117.365L223.111 115.478ZM241.14 117.822C233.597 117.822 227.6 117.026 223.106 115.476L222.454 117.367C227.24 119.017 233.483 119.822 241.14 119.822V117.822ZM259.719 114.777C254.837 116.792 248.657 117.822 241.14 117.822V119.822C248.823 119.822 255.283 118.771 260.482 116.626L259.719 114.777Z" fill="#BC873C" mask="url(#path-1-outside-1_3_89)"/>
</svg>
