<?xml version="1.0" encoding="UTF-8"?>
<svg viewBox="0 0 335 261" xmlns="http://www.w3.org/2000/svg">
<mask id="a" x="0" y="0" width="335" height="261" fill="black" maskUnits="userSpaceOnUse">
<rect width="335" height="261" fill="#fff"/>
<path d="m264.32 258.42c-0.221 0.294-0.442 0.588-0.679 0.852 0.573 0.078 1.145 0.176 1.718 0.274 1.237 0.212 2.474 0.424 3.713 0.429 12.749 0.057 25.5 0.022 38.637-0.264 0.472-1.072 0.801-2.144 1.116-3.171h1e-3c0.448-1.461 0.869-2.833 1.632-3.986 2.165-3.272 3.017-6.51 2.167-10.311-0.106-0.475-0.231-0.961-0.356-1.452-0.481-1.883-0.98-3.837-0.553-5.521 0.442-1.744 0.879-3.491 1.317-5.239 2.486-9.925 4.976-19.872 8.388-29.494 3.519-9.927 4.118-19.399 0.629-29.269-0.234-0.662-0.478-1.327-0.723-1.995-1.216-3.317-2.457-6.7-2.636-10.096-0.425-8.029-0.428-16.08-0.432-24.13v-2e-3c-1e-3 -2.627-2e-3 -5.255-0.018-7.881-4e-3 -0.664 0.152-1.329 0.348-2.159v-2e-3l1e-3 -4e-3c0.104-0.44 0.218-0.927 0.325-1.485l8.784 15.629c0.36-0.954 0.723-1.9 1.084-2.84 3.284-8.547 6.367-16.571 4.787-25.647-1.028-5.906-1.678-11.886-2.235-17.857-0.206-2.197-0.273-4.4103-0.34-6.6222v-5e-3c-0.091-3.0076-0.182-6.0128-0.62-8.9714-1.774-11.998-7.48-21.372-19.543-26.039-0.844-0.3265-1.754-0.7604-2.347-1.3999-5.61-6.0411-12.749-7.5841-20.745-7.5002-10.966 0.1151-21.183-2.7673-29.485-10.026-6.983-6.1061-13.897-12.426-19.941-19.404-13.529-15.62-36.752-15.841-50.291-0.2827-4.939 5.6748-10.363 11.051-16.165 15.866-4.342 3.6028-8.86 7.0031-13.378 10.403l-2e-3 0.0014c-5.306 3.9927-10.61 7.9845-15.626 12.302-4.633 3.988-8.972 8.3054-13.31 12.623v1e-4 3e-4l-3e-3 0.0026c-4.112 4.0928-8.225 8.1861-12.59 12-13.675 11.948-26.547 9.7241-35.02-6.2048-4.0583-7.6295-7.127-15.788-10.18-23.904v-1e-4l-1e-4 -3e-4 -4e-4 -9e-4 -0.0033-0.0088c-0.3874-1.03-0.7746-2.0595-1.1635-3.087-0.6452-1.7043 0.064-4.7836 1.3436-6.138 2.501-2.6473 2.8801-5.6647 3.2603-8.6904v-1e-4l2e-4 -0.0012c0.106-0.8441 0.2123-1.6896 0.3647-2.5272-6.284-2.3817-12.24-3.2488-18.509-0.9728-1.204 0.4371-2.5398 0.5103-3.879 0.5837-1.241 0.068-2.485 0.1362-3.6295 0.4944-0.8205 0.2568-1.6579 0.502-2.4998 0.7487-3.6154 1.0589-7.3157 2.1428-10.141 4.2718-5.0226 3.7848-9.9363 5.9759-16.382 5.9728-8.2993-4e-3 -16.491 6.4263-18.96 13.776-1.3686 4.0737-0.26476 6.1534 3.9959 6.8027 3.7643 0.5737 7.5803 0.8964 11.386 1.1104 0.3244 0.0182 0.6275 0.0343 0.9107 0.0493 2.2036 0.1166 3.2041 0.1696 3.6483 0.6939 0.3694 0.4361 0.3541 1.1981 0.3259 2.5939v1e-4c-0.0108 0.5324-0.0234 1.1571-0.0172 1.891 0.0328 3.9039 0.0297 7.8097 0.0266 11.715v0.0025c-0.0076 9.4011-0.0151 18.802 0.4789 28.178 0.322 6.112 1.922 12.383 4.1678 18.119 2.973 7.593 9.5139 10.975 17.782 11.352 7.9522 0.362 13.164-3.534 16.708-10.008 1.2153-2.219 2.1992-4.562 3.1828-6.904 0.383-0.912 0.7662-1.824 1.1628-2.728 0.5091-1.161 0.9892-2.335 1.5058-3.597l5e-4 -1e-3 0.0016-5e-3c0.2437-0.595 0.4955-1.211 0.7624-1.854 0.5865 0.428 1.1342 0.822 1.6536 1.195h2e-4c1.0397 0.747 1.9662 1.412 2.8639 2.113 12.353 9.648 26.318 13.525 41.892 10.796 4.496-0.788 8.907-2.075 13.31-3.36 1.244-0.362 2.489-0.725 3.733-1.077 2.893-0.816 4.447 0.17 5.063 2.93 0.059 0.264 0.12 0.528 0.182 0.792 0.17 0.731 0.34 1.463 0.46 2.202 1.057 6.553 2.123 13.104 3.188 19.655l3e-3 0.017 4e-3 0.024 6e-3 0.035c2.833 17.422 5.667 34.843 8.349 52.288 0.171 1.112 0.346 2.225 0.521 3.338l2e-3 0.011c1.675 10.665 3.355 21.363 1.83 32.244-1.333 9.508-4.096 18.133-13.463 23.257-1.52 0.831-2.755 2.166-3.989 3.501-0.568 0.614-1.136 1.228-1.732 1.793 2.289 0.034 4.578 0.066 6.868 0.098 5.437 0.077 10.874 0.154 16.311 0.254 0.938 0.017 1.877 0.037 2.819 0.057h1e-3c3.726 0.081 7.497 0.162 11.488 0.064 0.773-6.334 1.413-12.416 1.563-18.509 0.053-2.154-0.117-4.316-0.288-6.477v-2e-3 -1e-3c-0.195-2.48-0.391-4.958-0.248-7.419 0.209-3.598 0.627-7.186 1.046-10.773 0.503-4.316 1.006-8.631 1.144-12.959 0.513-16.101 0.813-32.209 1.114-48.317v-2e-3 -0.015c0.115-6.149 0.23-12.298 0.356-18.446 0.017-0.783 0.013-1.566 8e-3 -2.508-2e-3 -0.493-4e-3 -1.03-4e-3 -1.633 28.465 12.839 54.771 9.432 79.409-8.357 0.239 0.492 0.447 0.953 0.642 1.387 0.39 0.866 0.732 1.626 1.185 2.318 1.314 2.005 2.56 4.072 3.806 6.14 2.943 4.883 5.888 9.769 9.723 13.844 7.696 8.176 12.149 17.127 11.592 28.144-1.065 21.097-2.379 42.185-3.775 63.264-0.487 7.356-3.2 13.682-10.302 17.437-0.639 0.338-1.117 0.972-1.594 1.606zm-238.95-197.92 8.975 2.9428c5.1097 1.2053 7.9743 4.0927 10.263 8.0929 3.0537 5.337 6.2141 10.615 9.3746 15.893l7e-4 0.0013 2e-4 2e-4c2.87 4.793 5.74 9.5861 8.5303 14.424 0.7621 1.321 0.973 3.532 0.3991 4.913l-0.1916 0.461c-2.2853 5.504-4.5913 11.058-7.6106 16.182-4.1635 7.066-10.258 8.35-17.36 4.088-4.693-2.817-8.8086-6.234-9.5623-12.195-0.3039-2.404-0.7004-4.802-1.0967-7.199-0.7123-4.309-1.4241-8.6152-1.5974-12.945-0.3174-7.934-0.251-15.883-0.1827-24.05v-0.0064-7e-4 -2e-4c0.0291-3.4889 0.0587-7.0176 0.0587-10.602zm279.74 133.17c-0.054 2.992-0.107 5.984-0.147 8.976-0.055 15.509-2.927 29.961-6.507 44.328-0.982 3.94-3.3 6.066-7.966 6.689-0.188-2.868-0.827-5.678-1.467-8.492-1.274-5.598-2.55-11.21-0.279-17.306 1.774-4.763 3.267-9.629 4.76-14.494l1e-3 -1e-3v-1e-3l2e-3 -6e-3c1.674-5.453 3.347-10.904 5.414-16.209 2.955-7.586 3.045-14.914 1.371-22.588-0.959-4.394-1.829-8.807-2.749-13.475l-1e-3 -6e-3c-0.423-2.142-0.856-4.339-1.313-6.612 6.5 5.029 9.025 11.135 9.079 18.196 0.054 7-0.072 14.001-0.198 21.001zm14.138-81.316v-19.865c0.754-10.87-1.065-20.781-3.728-30.601l1.016-0.6511c0.438 0.4818 0.928 0.9426 1.419 1.4033 1.082 1.0167 2.164 2.0334 2.688 3.2771 1.617 3.8404 3.161 7.8519 3.775 11.933 1.786 11.881 0.229 23.443-5.17 34.504zm-115.95-16.811 1.8 20.16c-5.04 2.08-11.36 3.12-18.96 3.12s-13.72-0.8-18.36-2.4c-4.56-1.6-8.16-4.12-10.8-7.56s-4.48-7.48-5.52-12.12c-1.04-4.64-1.56-10.36-1.56-17.16s0.52-12.52 1.56-17.16c1.04-4.72 2.88-8.8 5.52-12.24 5.12-6.64 14.52-9.96 28.2-9.96 3.04 0 6.6 0.32 10.68 0.96 4.16 0.56 7.24 1.28 9.24 2.16l-3.6 18.36c-5.2-1.12-9.96-1.68-14.28-1.68s-7.32 0.4-9 1.2-2.52 2.4-2.52 4.8v31.44c3.12 0.64 6.28 0.96 9.48 0.96 6.8 0 12.84-0.96 18.12-2.88zm56.8 20.16-1.8-20.16c-5.28 1.92-11.32 2.88-18.12 2.88-3.2 0-6.36-0.32-9.48-0.96v-31.44c0-2.4 0.84-4 2.52-4.8s4.68-1.2 9-1.2 9.08 0.56 14.28 1.68l3.6-18.36c-2-0.88-5.08-1.6-9.24-2.16-4.08-0.64-7.64-0.96-10.68-0.96-13.68 0-23.08 3.32-28.2 9.96-2.64 3.44-4.48 7.52-5.52 12.24-1.04 4.64-1.56 10.36-1.56 17.16s0.52 12.52 1.56 17.16c1.04 4.6404 2.88 8.6804 5.52 12.12s6.24 5.96 10.8 7.56c4.64 1.6 10.76 2.4 18.36 2.4s13.92-1.04 18.96-3.12z" clip-rule="evenodd" fill-rule="evenodd"/>
</mask>
<path d="m264.32 258.42c-0.221 0.294-0.442 0.588-0.679 0.852 0.573 0.078 1.145 0.176 1.718 0.274 1.237 0.212 2.474 0.424 3.713 0.429 12.749 0.057 25.5 0.022 38.637-0.264 0.472-1.072 0.801-2.144 1.116-3.171h1e-3c0.448-1.461 0.869-2.833 1.632-3.986 2.165-3.272 3.017-6.51 2.167-10.311-0.106-0.475-0.231-0.961-0.356-1.452-0.481-1.883-0.98-3.837-0.553-5.521 0.442-1.744 0.879-3.491 1.317-5.239 2.486-9.925 4.976-19.872 8.388-29.494 3.519-9.927 4.118-19.399 0.629-29.269-0.234-0.662-0.478-1.327-0.723-1.995-1.216-3.317-2.457-6.7-2.636-10.096-0.425-8.029-0.428-16.08-0.432-24.13v-2e-3c-1e-3 -2.627-2e-3 -5.255-0.018-7.881-4e-3 -0.664 0.152-1.329 0.348-2.159v-2e-3l1e-3 -4e-3c0.104-0.44 0.218-0.927 0.325-1.485l8.784 15.629c0.36-0.954 0.723-1.9 1.084-2.84 3.284-8.547 6.367-16.571 4.787-25.647-1.028-5.906-1.678-11.886-2.235-17.857-0.206-2.197-0.273-4.4103-0.34-6.6222v-5e-3c-0.091-3.0076-0.182-6.0128-0.62-8.9714-1.774-11.998-7.48-21.372-19.543-26.039-0.844-0.3265-1.754-0.7604-2.347-1.3999-5.61-6.0411-12.749-7.5841-20.745-7.5002-10.966 0.1151-21.183-2.7673-29.485-10.026-6.983-6.1061-13.897-12.426-19.941-19.404-13.529-15.62-36.752-15.841-50.291-0.2827-4.939 5.6748-10.363 11.051-16.165 15.866-4.342 3.6028-8.86 7.0031-13.378 10.403l-2e-3 0.0014c-5.306 3.9927-10.61 7.9845-15.626 12.302-4.633 3.988-8.972 8.3054-13.31 12.623v1e-4 3e-4l-3e-3 0.0026c-4.112 4.0928-8.225 8.1861-12.59 12-13.675 11.948-26.547 9.7241-35.02-6.2048-4.0583-7.6295-7.127-15.788-10.18-23.904v-1e-4l-1e-4 -3e-4 -4e-4 -9e-4 -0.0033-0.0088c-0.3874-1.03-0.7746-2.0595-1.1635-3.087-0.6452-1.7043 0.064-4.7836 1.3436-6.138 2.501-2.6473 2.8801-5.6647 3.2603-8.6904v-1e-4l2e-4 -0.0012c0.106-0.8441 0.2123-1.6896 0.3647-2.5272-6.284-2.3817-12.24-3.2488-18.509-0.9728-1.204 0.4371-2.5398 0.5103-3.879 0.5837-1.241 0.068-2.485 0.1362-3.6295 0.4944-0.8205 0.2568-1.6579 0.502-2.4998 0.7487-3.6154 1.0589-7.3157 2.1428-10.141 4.2718-5.0226 3.7848-9.9363 5.9759-16.382 5.9728-8.2993-4e-3 -16.491 6.4263-18.96 13.776-1.3686 4.0737-0.26476 6.1534 3.9959 6.8027 3.7643 0.5737 7.5803 0.8964 11.386 1.1104 0.3244 0.0182 0.6275 0.0343 0.9107 0.0493 2.2036 0.1166 3.2041 0.1696 3.6483 0.6939 0.3694 0.4361 0.3541 1.1981 0.3259 2.5939v1e-4c-0.0108 0.5324-0.0234 1.1571-0.0172 1.891 0.0328 3.9039 0.0297 7.8097 0.0266 11.715v0.0025c-0.0076 9.4011-0.0151 18.802 0.4789 28.178 0.322 6.112 1.922 12.383 4.1678 18.119 2.973 7.593 9.5139 10.975 17.782 11.352 7.9522 0.362 13.164-3.534 16.708-10.008 1.2153-2.219 2.1992-4.562 3.1828-6.904 0.383-0.912 0.7662-1.824 1.1628-2.728 0.5091-1.161 0.9892-2.335 1.5058-3.597l5e-4 -1e-3 0.0016-5e-3c0.2437-0.595 0.4955-1.211 0.7624-1.854 0.5865 0.428 1.1342 0.822 1.6536 1.195h2e-4c1.0397 0.747 1.9662 1.412 2.8639 2.113 12.353 9.648 26.318 13.525 41.892 10.796 4.496-0.788 8.907-2.075 13.31-3.36 1.244-0.362 2.489-0.725 3.733-1.077 2.893-0.816 4.447 0.17 5.063 2.93 0.059 0.264 0.12 0.528 0.182 0.792 0.17 0.731 0.34 1.463 0.46 2.202 1.057 6.553 2.123 13.104 3.188 19.655l3e-3 0.017 4e-3 0.024 6e-3 0.035c2.833 17.422 5.667 34.843 8.349 52.288 0.171 1.112 0.346 2.225 0.521 3.338l2e-3 0.011c1.675 10.665 3.355 21.363 1.83 32.244-1.333 9.508-4.096 18.133-13.463 23.257-1.52 0.831-2.755 2.166-3.989 3.501-0.568 0.614-1.136 1.228-1.732 1.793 2.289 0.034 4.578 0.066 6.868 0.098 5.437 0.077 10.874 0.154 16.311 0.254 0.938 0.017 1.877 0.037 2.819 0.057h1e-3c3.726 0.081 7.497 0.162 11.488 0.064 0.773-6.334 1.413-12.416 1.563-18.509 0.053-2.154-0.117-4.316-0.288-6.477v-2e-3 -1e-3c-0.195-2.48-0.391-4.958-0.248-7.419 0.209-3.598 0.627-7.186 1.046-10.773 0.503-4.316 1.006-8.631 1.144-12.959 0.513-16.101 0.813-32.209 1.114-48.317v-2e-3 -0.015c0.115-6.149 0.23-12.298 0.356-18.446 0.017-0.783 0.013-1.566 8e-3 -2.508-2e-3 -0.493-4e-3 -1.03-4e-3 -1.633 28.465 12.839 54.771 9.432 79.409-8.357 0.239 0.492 0.447 0.953 0.642 1.387 0.39 0.866 0.732 1.626 1.185 2.318 1.314 2.005 2.56 4.072 3.806 6.14 2.943 4.883 5.888 9.769 9.723 13.844 7.696 8.176 12.149 17.127 11.592 28.144-1.065 21.097-2.379 42.185-3.775 63.264-0.487 7.356-3.2 13.682-10.302 17.437-0.639 0.338-1.117 0.972-1.594 1.606zm-238.95-197.92 8.975 2.9428c5.1097 1.2053 7.9743 4.0927 10.263 8.0929 3.0537 5.337 6.2141 10.615 9.3746 15.893l7e-4 0.0013 2e-4 2e-4c2.87 4.793 5.74 9.5861 8.5303 14.424 0.7621 1.321 0.973 3.532 0.3991 4.913l-0.1916 0.461c-2.2853 5.504-4.5913 11.058-7.6106 16.182-4.1635 7.066-10.258 8.35-17.36 4.088-4.693-2.817-8.8086-6.234-9.5623-12.195-0.3039-2.404-0.7004-4.802-1.0967-7.199-0.7123-4.309-1.4241-8.6152-1.5974-12.945-0.3174-7.934-0.251-15.883-0.1827-24.05v-0.0064-7e-4 -2e-4c0.0291-3.4889 0.0587-7.0176 0.0587-10.602zm279.74 133.17c-0.054 2.992-0.107 5.984-0.147 8.976-0.055 15.509-2.927 29.961-6.507 44.328-0.982 3.94-3.3 6.066-7.966 6.689-0.188-2.868-0.827-5.678-1.467-8.492-1.274-5.598-2.55-11.21-0.279-17.306 1.774-4.763 3.267-9.629 4.76-14.494l1e-3 -1e-3v-1e-3l2e-3 -6e-3c1.674-5.453 3.347-10.904 5.414-16.209 2.955-7.586 3.045-14.914 1.371-22.588-0.959-4.394-1.829-8.807-2.749-13.475l-1e-3 -6e-3c-0.423-2.142-0.856-4.339-1.313-6.612 6.5 5.029 9.025 11.135 9.079 18.196 0.054 7-0.072 14.001-0.198 21.001zm14.138-81.316v-19.865c0.754-10.87-1.065-20.781-3.728-30.601l1.016-0.6511c0.438 0.4818 0.928 0.9426 1.419 1.4033 1.082 1.0167 2.164 2.0334 2.688 3.2771 1.617 3.8404 3.161 7.8519 3.775 11.933 1.786 11.881 0.229 23.443-5.17 34.504zm-115.95-16.811 1.8 20.16c-5.04 2.08-11.36 3.12-18.96 3.12s-13.72-0.8-18.36-2.4c-4.56-1.6-8.16-4.12-10.8-7.56s-4.48-7.48-5.52-12.12c-1.04-4.64-1.56-10.36-1.56-17.16s0.52-12.52 1.56-17.16c1.04-4.72 2.88-8.8 5.52-12.24 5.12-6.64 14.52-9.96 28.2-9.96 3.04 0 6.6 0.32 10.68 0.96 4.16 0.56 7.24 1.28 9.24 2.16l-3.6 18.36c-5.2-1.12-9.96-1.68-14.28-1.68s-7.32 0.4-9 1.2-2.52 2.4-2.52 4.8v31.44c3.12 0.64 6.28 0.96 9.48 0.96 6.8 0 12.84-0.96 18.12-2.88zm56.8 20.16-1.8-20.16c-5.28 1.92-11.32 2.88-18.12 2.88-3.2 0-6.36-0.32-9.48-0.96v-31.44c0-2.4 0.84-4 2.52-4.8s4.68-1.2 9-1.2 9.08 0.56 14.28 1.68l3.6-18.36c-2-0.88-5.08-1.6-9.24-2.16-4.08-0.64-7.64-0.96-10.68-0.96-13.68 0-23.08 3.32-28.2 9.96-2.64 3.44-4.48 7.52-5.52 12.24-1.04 4.64-1.56 10.36-1.56 17.16s0.52 12.52 1.56 17.16c1.04 4.6404 2.88 8.6804 5.52 12.12s6.24 5.96 10.8 7.56c4.64 1.6 10.76 2.4 18.36 2.4s13.92-1.04 18.96-3.12z" clip-rule="evenodd" fill="#BC873C" fill-rule="evenodd"/>
<path d="m201.76 6.5255-0.571 0.0773 0.134 0.99095 0.571-0.0773-0.134-0.99095zm14.355-1.3223 0.666-0.09018-0.135-0.99096-0.666 0.09018 0.135 0.99096zm47.532 254.07-0.745-0.668-1.26 1.405 1.87 0.254 0.135-0.991zm0.679-0.852-0.707-0.707-0.05 0.05-0.042 0.056 0.799 0.601zm1.039 1.126 0.169-0.986-0.169 0.986zm3.713 0.429-5e-3 1 5e-3 -1zm38.637-0.264 0.022 1 0.637-0.014 0.257-0.584-0.916-0.402zm1.116-3.171-0.928-0.372-0.015 0.039-0.012 0.039 0.955 0.294zm1e-3 0 0.928 0.371 0.015-0.038 0.013-0.04-0.956-0.293zm1.632-3.986-0.834-0.552 0.834 0.552zm2.167-10.311 0.976-0.218-0.976 0.218zm-0.356-1.452-0.969 0.248 0.969-0.248zm-0.553-5.521 0.969 0.246-0.969-0.246zm1.317-5.239-0.97-0.243 0.97 0.243zm8.388-29.494-0.943-0.334 0.943 0.334zm0.629-29.269 0.942-0.334-0.942 0.334zm-0.723-1.995 0.939-0.344-0.939 0.344zm-2.636-10.096 0.998-0.053-0.998 0.053zm-0.432-24.13h-1 1zm0-2e-3h1v-1e-3l-1 1e-3zm-0.018-7.881 1-6e-3 -1 6e-3zm0.348-2.159-0.969-0.247-3e-3 9e-3 -2e-3 9e-3 0.974 0.229zm0-2e-3 0.969 0.247 4e-3 -0.018-0.973-0.229zm1e-3 -4e-3 0.973 0.229-0.973-0.229zm0.325-1.485 0.872-0.49-1.338-2.382-0.516 2.683 0.982 0.189zm8.784 15.629-0.872 0.49 1.051 1.87 0.756-2.007-0.935-0.353zm1.084-2.84-0.933-0.359 0.933 0.359zm4.787-25.647 0.985-0.171v-1e-3l-0.985 0.172zm-2.235-17.857 0.995-0.093v-1e-4l-0.995 0.0931zm-0.34-6.6222h-1v0.0152l1e-3 0.0151 0.999-0.0303zm0-5e-3h1v-0.0151-0.0152l-1 0.0303zm-0.62-8.9714-0.989 0.1463v1e-4l0.989-0.1464zm-19.543-26.039 0.361-0.9326-0.361 0.9326zm-2.347-1.3999 0.732-0.6805-0.732 0.6805zm-20.745-7.5002 0.011 1-0.011-1zm-29.485-10.026 0.659-0.7528-0.659 0.7528zm-19.941-19.404 0.756-0.6547-0.756 0.6547zm-50.291-0.2827 0.754 0.6565-0.754-0.6565zm-16.165 15.866-0.638-0.7695 0.638 0.7695zm-13.378 10.403-0.601-0.7991-0.012 0.0089-0.012 0.0093 0.625 0.7809zm-2e-3 0.0014 0.601 0.7991 0.012-0.0089 0.012-0.0093-0.625-0.7809zm-15.626 12.302 0.652 0.7579-0.652-0.7579zm-13.31 12.623 0.64 0.7682 0.034-0.0283 0.031-0.0311-0.705-0.7088zm0 1e-4 -0.64-0.7682-0.035 0.029-0.032 0.0321 0.707 0.7071zm-3e-3 0.0029 0.705 0.7088 2e-3 -0.0017-0.707-0.7071zm-12.59 12-0.658-0.753 0.658 0.753zm-35.02-6.2048 0.8829-0.4696-0.8829 0.4696zm-10.18-23.904 0.936-0.352-0.0103-0.0274-0.0119-0.0267-0.9138 0.4061zm0-1e-4 -0.9285 0.3714 7e-3 0.0175 0.0077 0.0173 0.9138-0.4062zm-1e-4 -3e-4 -0.9487 0.3163 0.0093 0.0278 0.0109 0.0273 0.9285-0.3714zm-4e-4 -9e-4 0.9487-0.3163-0.0058-0.0175-0.0065-0.0173-0.9364 0.3511zm-0.0033-0.0088 0.9364-0.3511-4e-4 -1e-3 -0.936 0.3521zm-1.1635-3.087 0.9352-0.354-0.9352 0.354zm1.3436-6.138 0.7269 0.6867-0.7269-0.6867zm3.2603-8.6904 0.9922 0.1246 0.0078-0.062v-0.0626h-1zm0-1e-4 -0.9806-0.1961-0.0194 0.0971v0.099h1zm2e-4 -0.0012 0.9806 0.1962 0.0071-0.0356 0.0045-0.0359-0.9922-0.1247zm0.3647-2.5272 0.9838 0.179 0.149-0.8191-0.7784-0.295-0.3544 0.9351zm-18.509-0.9728 0.3413 0.9399-0.3413-0.9399zm-3.879 0.5837-0.0547-0.9985 0.0547 0.9985zm-3.6295 0.4944 0.2987 0.9543-0.2987-0.9543zm-2.4998 0.7487-0.2811-0.9597-0.0176 0.0051-0.0175 0.0059 0.3162 0.9487zm0 0 0.2811 0.9596 0.0177-0.0051 0.0174-0.0059-0.3162-0.9486zm-10.141 4.2718-0.6018-0.7987 0.6018 0.7987zm-16.382 5.9728 5e-4 -1-5e-4 1zm-18.96 13.776 0.94793 0.3185h1e-5l-0.94794-0.3185zm3.9959 6.8027-0.15066 0.9886 0.15066-0.9886zm11.386 1.1104-0.0561 0.9984 0.0561-0.9984zm0.9107 0.0493-0.0528 0.9986 0.0528-0.9986zm3.6483 0.6939-0.763 0.6464 0.763-0.6464zm0.3259 2.5939-0.9998-0.0202-2e-4 0.0101v0.0101h1zm0 1e-4 0.9998 0.0202 2e-4 -0.0101v-0.0101h-1zm-0.0172 1.891-1 0.0084 1-0.0084zm0.0266 11.715-1-8e-4v8e-4h1zm0 0.0025 1 8e-4v-8e-4h-1zm0.4789 28.178 0.9986-0.053-0.9986 0.053zm4.1678 18.119 0.9311-0.365-0.9311 0.365zm17.782 11.352 0.0455-0.999-0.0455 0.999zm16.708-10.008 0.8772 0.481-0.8772-0.481zm3.1828-6.904 0.922 0.388-0.922-0.388zm1.1628-2.728-0.9159-0.402 0.9159 0.402zm1.5058-3.597 0.9255 0.378 5e-4 -1e-3 -0.926-0.377zm5e-4 -1e-3 -0.9256-0.379-5e-4 1e-3 0.9261 0.378zm0.0016-5e-3 -0.9255-0.378 0.9255 0.378zm0.7624-1.854 0.5897-0.808-1.0265-0.749-0.487 1.174 0.9238 0.383zm1.6536 1.195 0.6247-0.781-0.0202-0.016-0.0211-0.015-0.5834 0.812zm2e-4 0-0.6247 0.781 0.0202 0.016 0.021 0.015 0.5835-0.812zm2.8639 2.113 0.6156-0.788-0.6156 0.788zm41.892 10.796 0.173 0.985-0.173-0.985zm13.31-3.36 0.281 0.96-0.281-0.96zm3.733-1.077 0.272 0.963-0.272-0.963zm5.063 2.93 0.976-0.218-0.976 0.218zm0.182 0.792 0.974-0.227-0.974 0.227zm0.46 2.202-0.988 0.16 0.988-0.16zm3.188 19.655 0.987-0.16v-1e-3l-0.987 0.161zm6e-3 0.035-0.987 0.16v2e-3l0.987-0.162zm1e-3 6e-3 0.987-0.162v-1e-3l-0.987 0.163zm6e-3 0.035 0.987-0.161-1e-3 -1e-3 -0.986 0.162zm8.349 52.288-0.988 0.152 0.988-0.152zm0.521 3.338 0.988-0.155-0.988 0.155zm2e-3 0.011-0.988 0.155 0.988-0.155zm1.83 32.244-0.99-0.139 0.99 0.139zm-13.463 23.257-0.48-0.878 0.48 0.878zm-3.989 3.501-0.734-0.679 0.734 0.679zm-1.732 1.793-0.688-0.726-1.781 1.689 2.454 0.037 0.015-1zm6.868 0.098 0.014-1-0.014 1zm16.311 0.254-0.019 0.999 0.019-0.999zm2.819 0.057-0.022 1h0.011 0.011v-1zm1e-3 0 0.021-0.999-0.011-1e-3h-0.01v1zm11.488 0.064 0.024 1 0.863-0.022 0.105-0.857-0.992-0.121zm1.563-18.509-1-0.024 1 0.024zm-0.288-6.477-0.999 0.039 1e-3 0.02 1e-3 0.019 0.997-0.078zm0-2e-3h-1v0.02l1e-3 0.02 0.999-0.04zm0-1e-3h1v-0.039l-3e-3 -0.039-0.997 0.078zm-0.248-7.419 0.999 0.058-0.999-0.058zm1.046-10.773 0.993 0.116-0.993-0.116zm1.144-12.959-1-0.032 1 0.032zm1.114-48.317 1 0.019v-0.01-9e-3h-1zm0-2e-3 -1-0.018v9e-3 9e-3h1zm0-0.015-1-0.019v1e-3l1 0.018zm0.356-18.446-0.999-0.021 0.999 0.021zm8e-3 -2.508 1-5e-3 -1 5e-3zm-4e-3 -1.633 0.411-0.912-1.411-0.636v1.548h1zm79.409-8.357 0.899-0.437-0.52-1.07-0.965 0.696 0.586 0.811zm0.642 1.387-0.912 0.411 0.912-0.411zm1.185 2.318 0.837-0.548-0.837 0.548zm3.806 6.14 0.857-0.516-0.857 0.516zm9.723 13.844 0.728-0.686-0.728 0.686zm11.592 28.144 0.999 0.05-0.999-0.05zm-3.775 63.264 0.998 0.066-0.998-0.066zm-10.302 17.437 0.467 0.884-0.467-0.884zm-1.594 1.606 0.707 0.707 0.05-0.05 0.042-0.056-0.799-0.601zm-229.98-194.98-0.3115 0.9503 0.0405 0.0133 0.0415 0.0097 0.2295-0.9733zm-8.975-2.9428 0.3115-0.9502-1.3115-0.43v1.3802h1zm19.238 11.036-0.868 0.4967 0.868-0.4967zm9.3746 15.893 0.8609-0.5087-0.0029-5e-3 -0.858 0.5137zm7e-4 0.0013-0.8609 0.5087 0.0038 0.0064 0.0039 0.0063 0.8532-0.5214zm2e-4 2e-4 0.858-0.5137-0.0047-0.0077-0.8533 0.5214zm8.5303 14.424-0.8663 0.499 0.8663-0.499zm0.3991 4.913-0.9235-0.384v1e-3l0.9235 0.383zm-0.1916 0.461-0.9235-0.383 0.9235 0.383zm-7.6106 16.182-0.8615-0.508 0.8615 0.508zm-17.36 4.088 0.5146-0.858-0.5146 0.858zm-9.5623-12.195-0.9921 0.126 0.9921-0.126zm-1.0967-7.199 0.9866-0.164-0.9866 0.164zm-1.5974-12.945-0.9992 0.04 0.9992-0.04zm-0.1827-24.05 1 0.0084v-0.0084h-1zm0-0.0064-1-0.0075v0.0075h1zm0-7e-4 1 0.0076v-0.0076h-1zm0-2e-4 -1-0.0083v0.0083h1zm279.65 131.54-1-0.013v0.01l1 3e-3zm0.147-8.976-1-0.018 1 0.018zm-6.654 53.304-0.971-0.242 0.971 0.242zm-7.966 6.689-0.998 0.065 0.07 1.067 1.06-0.141-0.132-0.991zm-1.467-8.492-0.976 0.222 0.976-0.222zm-0.279-17.306-0.937-0.349 0.937 0.349zm4.76-14.494 0.956 0.293 6e-3 -0.018-0.962-0.275zm1e-3 -1e-3 -0.951-0.311-6e-3 0.018-5e-3 0.018 0.962 0.275zm0-1e-3 -0.949-0.316-2e-3 5e-3 0.951 0.311zm2e-3 -6e-3 0.949 0.316 4e-3 -0.011 3e-3 -0.012-0.956-0.293zm5.414-16.209 0.931 0.363-0.931-0.363zm1.371-22.588 0.977-0.213-0.977 0.213zm-2.749-13.475 0.981-0.194-1e-3 -5e-3 -0.98 0.199zm-1e-3 -6e-3 -0.981 0.193 1e-3 6e-3 0.98-0.199zm-1.313-6.612 0.612-0.791-2.121-1.641 0.529 2.629 0.98-0.197zm9.079 18.196 1-7e-3 -1 7e-3zm13.94-80.18-0.998-0.0692-2e-3 0.0345v0.0347h1zm0 19.865h-1l1.899 0.439-0.899-0.439zm-3.728-50.466-0.54-0.8418-0.617 0.3958 0.192 0.7077 0.965-0.2617zm1.016-0.6511 0.739-0.673-0.568-0.6247-0.711 0.4559 0.54 0.8418zm1.419 1.4033-0.685 0.7288 0.685-0.7288zm2.688 3.2771-0.922 0.3881 0.922-0.3881zm3.775 11.933-0.989 0.1487 0.989-0.1487zm-119.32 37.853 0.382 0.924 0.68-0.281-0.066-0.732-0.996 0.089zm-1.8-20.16 0.996-0.089-0.115-1.2952-1.222 0.4444 0.341 0.9398zm-35.52 20.88-0.331 0.943 5e-3 2e-3 0.326-0.945zm-10.8-7.56 0.794-0.609-0.794 0.609zm-5.52-12.12 0.976-0.2188-0.976 0.2188zm0-34.32 0.976 0.2187 1e-3 -0.0036-0.977-0.2151zm5.52-12.24-0.792-0.6107-1e-3 0.0018 0.793 0.6089zm38.88-9-0.155 0.9879 0.011 0.0017 0.011 0.0014 0.133-0.991zm9.24 2.16 0.982 0.1924 0.154-0.7854-0.733-0.3224-0.403 0.9154zm-3.6 18.36-0.21 0.9775 0.996 0.2145 0.196-0.9996-0.982-0.1924zm-23.28-0.48 0.43 0.9028-0.43-0.9028zm-2.52 36.24h-1v0.8157l0.799 0.1639 0.201-0.9796zm82.6-1.92 0.996-0.089-0.115-1.2952-1.222 0.4444 0.341 0.9398zm1.8 20.16 0.382 0.924 0.68-0.281-0.066-0.732-0.996 0.089zm-29.4-18.24h-1v0.8157l0.799 0.1639 0.201-0.9796zm2.52-36.24 0.43 0.9028-0.43-0.9028zm23.28 0.48-0.21 0.9775 0.996 0.2145 0.196-0.9996-0.982-0.1924zm3.6-18.36 0.982 0.1924 0.154-0.7854-0.733-0.3224-0.403 0.9154zm-9.24-2.16-0.155 0.9879 0.011 0.0017 0.011 0.0014 0.133-0.991zm-38.88 9-0.792-0.6107-1e-3 0.0018 0.793 0.6089zm-5.52 12.24 0.976 0.2187 1e-3 -0.0036-0.977-0.2151zm0 34.32 0.976-0.2188-0.976 0.2188zm5.52 12.12 0.794-0.609-0.794 0.609zm10.8 7.56-0.331 0.943 5e-3 2e-3 0.326-0.945zm41.609 143.52c0.271-0.302 0.518-0.631 0.734-0.919l-1.598-1.202c-0.226 0.3-0.421 0.558-0.625 0.785l1.489 1.336zm1.143-1.38c-0.57-0.097-1.16-0.199-1.753-0.279l-0.269 1.982c0.553 0.075 1.108 0.17 1.684 0.268l0.338-1.971zm3.548 0.415c-1.141-5e-3 -2.296-0.2-3.548-0.415l-0.338 1.971c1.223 0.21 2.542 0.438 3.877 0.444l9e-3 -2zm38.612-0.264c-13.126 0.286-25.867 0.321-38.612 0.264l-9e-3 2c12.755 0.057 25.514 0.022 38.664-0.264l-0.043-2zm0.182-2.465c-0.318 1.035-0.632 2.052-1.076 3.062l1.831 0.805c0.498-1.132 0.843-2.259 1.156-3.28l-1.911-0.587zm0.027-0.078 1.857 0.743-1.857-0.743zm1.727-4.166c-0.857 1.295-1.315 2.814-1.754 4.244l1.912 0.587c0.457-1.491 0.841-2.716 1.51-3.727l-1.668-1.104zm2.025-9.541c0.779 3.486 0.021 6.45-2.025 9.541l1.668 1.104c2.284-3.452 3.229-6.965 2.309-11.081l-1.952 0.436zm-0.349-1.422c0.126 0.493 0.247 0.964 0.349 1.422l1.952-0.436c-0.11-0.493-0.238-0.993-0.363-1.481l-1.938 0.495zm-0.554-6.015c-0.502 1.981 0.092 4.205 0.554 6.015l1.938-0.495c-0.5-1.957-0.905-3.64-0.553-5.028l-1.939-0.492zm1.317-5.236c-0.438 1.748-0.875 3.493-1.317 5.236l1.939 0.492c0.443-1.746 0.881-3.495 1.318-5.242l-1.94-0.486zm8.415-29.585c-3.43 9.674-5.931 19.668-8.415 29.585l1.94 0.486c2.488-9.933 4.968-19.834 8.36-29.402l-1.885-0.669zm0.629-28.602c3.399 9.615 2.83 18.848-0.629 28.602l1.885 0.669c3.581-10.1 4.21-19.811 0.629-29.938l-1.885 0.667zm-0.719-1.983c0.245 0.668 0.487 1.328 0.719 1.983l1.885-0.667c-0.236-0.668-0.482-1.338-0.726-2.005l-1.878 0.689zm-2.696-10.388c0.189 3.574 1.491 7.101 2.696 10.388l1.878-0.689c-1.228-3.348-2.406-6.586-2.577-9.805l-1.997 0.106zm-0.433-24.183c4e-3 8.046 7e-3 16.123 0.433 24.183l1.997-0.106c-0.423-7.999-0.426-16.023-0.43-24.078l-2 1e-3zm0-2e-3v2e-3h2v-2e-3h-2zm-0.018-7.875c0.016 2.623 0.017 5.248 0.018 7.875l2-1e-3c-1e-3 -2.626-2e-3 -5.256-0.018-7.886l-2 0.012zm0.374-2.394c-0.188 0.801-0.379 1.588-0.374 2.394l2-0.012c-3e-3 -0.522 0.119-1.065 0.321-1.924l-1.947-0.458zm5e-3 -0.021v3e-3l1.937 0.494 1e-3 -2e-3 -1.938-0.495zm-3e-3 0.015-1e-3 4e-3 1.946 0.458 1e-3 -4e-3 -1.946-0.458zm0.316-1.445c-0.103 0.535-0.213 1.004-0.316 1.445l1.946 0.458c0.104-0.44 0.223-0.945 0.334-1.526l-1.964-0.377zm10.638 15.328-8.784-15.629-1.744 0.979 8.784 15.63 1.744-0.98zm-0.721-2.709c-0.361 0.94-0.726 1.889-1.087 2.847l1.871 0.705c0.359-0.951 0.722-1.894 1.083-2.835l-1.867-0.717zm4.734-25.117c1.526 8.762-1.434 16.528-4.734 25.117l1.867 0.717c3.267-8.503 6.473-16.786 4.838-26.176l-1.971 0.342zm-2.245-17.935c0.558 5.978 1.211 11.99 2.245 17.935l1.971-0.343c-1.021-5.866-1.668-11.815-2.225-17.778l-1.991 0.1859zm-0.343-6.6848c0.066 2.2066 0.134 4.4514 0.343 6.6849l1.991-0.1861c-0.202-2.1604-0.268-4.3422-0.335-6.5594l-1.999 0.0606zm-1e-3 -0.0308v5e-4h2v-5e-4h-2zm0-4e-4v4e-4h2v-4e-4h-2zm0-0.0041v0.0041h2v-0.0041h-2zm-0.609-8.825c0.428 2.8911 0.518 5.8376 0.61 8.8553l1.999-0.0606c-0.091-2.9976-0.183-6.0614-0.631-9.0874l-1.978 0.2927zm-18.915-25.252c11.652 4.5074 17.18 13.523 18.915 25.252l1.978-0.2926c-1.814-12.266-7.698-22-20.171-26.825l-0.722 1.8653zm-2.719-1.6522c0.76 0.8189 1.858 1.3191 2.719 1.6522l0.722-1.8653c-0.828-0.32-1.548-0.6875-1.976-1.1478l-1.465 1.3609zm-20.001-7.1806c7.863-0.0825 14.665 1.4342 20.001 7.1806l1.465-1.3609c-5.883-6.3357-13.358-7.9049-21.487-7.8196l0.021 1.9999zm-30.154-10.273c8.527 7.4559 19.001 10.39 30.154 10.273l-0.021-1.9999c-10.78 0.1131-20.74-2.7172-28.816-9.779l-1.317 1.5056zm-20.039-19.502c6.092 7.0329 13.049 13.39 20.039 19.502l1.317-1.5056c-6.977-6.1003-13.847-12.382-19.844-19.305l-1.512 1.3094zm-48.781-0.2809c13.133-15.091 35.642-14.888 48.781 0.2809l1.512-1.3094c-13.92-16.071-37.855-16.311-51.802-0.2845l1.509 1.313zm-16.28 15.979c5.847-4.852 11.309-10.267 16.28-15.979l-1.509-1.313c-4.906 5.6378-10.291 10.976-16.048 15.753l1.277 1.5391zm-13.416 10.432c4.515-3.3973 9.052-6.8117 13.416-10.432l-1.277-1.5391c-4.321 3.585-8.82 6.9711-13.341 10.373l1.202 1.5981zm0.022-0.0167 2e-3 -0.0015-1.25-1.5617-2e-3 0.0015 1.25 1.5617zm-15.599 12.279c4.987-4.2928 10.265-8.2651 15.575-12.261l-1.202-1.5981c-5.301 3.9893-10.633 8.0006-15.678 12.343l1.305 1.5158zm-13.257 12.574c4.343-4.3223 8.656-8.6139 13.257-12.574l-1.305-1.5158c-4.665 4.0155-9.028 8.3589-13.362 12.672l1.41 1.4176zm-0.065 0.0595v-1e-4l-1.28-1.5364v1e-4l1.28 1.5364zm0.067-0.0608v-3e-4l-1.414-1.4142-1e-3 3e-4 1.415 1.4142zm-3e-3 0.0026 3e-3 -0.0026-1.415-1.4142-2e-3 0.0026 1.414 1.4142zm-12.639 12.046c4.393-3.8384 8.529-7.9548 12.637-12.044l-1.41-1.4176c-4.117 4.0967-8.207 8.1667-12.543 11.955l1.316 1.5061zm-36.561-6.4883c4.3162 8.1145 9.8651 12.944 16.269 14.072 6.3989 1.1262 13.332-1.5021 20.292-7.5833l-1.316-1.5061c-6.715 5.8668-13.055 8.1006-18.629 7.1196-5.5694-0.9801-10.693-5.2265-14.85-13.041l-1.7657 0.9392zm-10.233-24.022c3.0489 8.1056 6.1392 16.325 10.233 24.022l1.7657-0.9392c-4.0229-7.5629-7.07-15.66-10.127-23.786l-1.872 0.7041zm0.0222 0.054v1e-4l1.8276-0.8123v-1e-4l-1.8276 0.8123zm-0.0148-0.0351 1e-4 3e-4 1.857-0.7428-2e-4 -3e-4 -1.8569 0.7428zm-0.0205-0.0561 3e-4 1e-3 1.8973-0.6325-3e-4 -1e-3 -1.8973 0.6325zm9e-3 0.0261 0.0033 0.0088 1.8727-0.7022-0.0033-0.0088-1.8727 0.7022zm-1.1625-3.084c0.3885 1.0263 0.7754 2.0548 1.1629 3.0849l1.8719-0.7041c-0.3874-1.0298-0.7749-2.0603-1.1643-3.0889l-1.8705 0.7081zm1.552-7.1789c-0.8076 0.8548-1.3637 2.154-1.6428 3.4072-0.2777 1.247-0.3288 2.6631 0.0908 3.7717l1.8705-0.7081c-0.2255-0.5958-0.2446-1.5714-0.0091-2.6288 0.2341-1.0512 0.6723-1.9688 1.1444-2.4685l-1.4538-1.3735zm2.995-8.1283c-0.3832 3.05-0.7453 5.747-2.995 8.1283l1.4538 1.3735c2.7523-2.9132 3.1485-6.2511 3.5256-9.2525l-1.9844-0.2493zm-0.0078 0.1246v1e-4h2v-1e-4h-2zm0.0196-0.1973-2e-4 0.0012 1.9612 0.3922 2e-4 -0.0011-1.9612-0.3923zm0.3614-2.5101c-0.1581 0.8691-0.2675 1.742-0.373 2.5816l1.9844 0.2493c0.1066-0.8487 0.2097-1.6669 0.3563-2.4729l-1.9677-0.358zm-17.184 0.1461c5.961-2.1643 11.654-1.3663 17.813 0.968l0.7088-1.8702c-6.4091-2.4291-12.628-3.3654-19.204-0.9777l0.6825 1.8799zm-4.1656 0.6423c1.3082-0.0717 2.7979-0.1457 4.1656-0.6423l-0.6825-1.8799c-1.0404 0.3777-2.2224 0.4501-3.5925 0.5252l0.1094 1.997zm-3.3855 0.4502c1.0043-0.3142 2.1193-0.3808 3.3855-0.4502l-0.1094-1.997c-1.2159 0.0667-2.5887 0.1365-3.8734 0.5385l0.5973 1.9087zm-2.5174 0.754c0.8404-0.2461 1.6866-0.494 2.5174-0.754l-0.5973-1.9087c-0.8104 0.2536-1.6388 0.4963-2.4823 0.7434l0.5622 1.9193zm0.0351-0.011-0.6324-1.8973 0.6324 1.8973zm-9.8553 4.1218c2.6524-1.9987 6.1628-3.0395 9.8202-4.1108l-0.5622-1.9193c-3.5733 1.0466-7.4636 2.1736-10.462 4.4328l1.2036 1.5973zm-16.984 6.1742c6.7198 0.0033 11.84-2.2977 16.984-6.1742l-1.2036-1.5973c-4.901 3.6933-9.6084 5.7745-15.779 5.7715l-1e-3 2zm-18.012 13.095c1.1599-3.4526 3.6861-6.7383 6.943-9.1621 3.2553-2.4225 7.1734-3.9345 11.069-3.9326l1e-3 -2c-4.4037-0.0021-8.7312 1.6991-12.264 4.3282-3.5311 2.6278-6.3355 6.2323-7.6449 10.13l1.8959 0.6369zm3.1986 5.4956c-2.037-0.3104-2.987-0.9205-3.3924-1.6265-0.41571-0.724-0.46698-1.9025 0.19373-3.8691l-1.8959-0.6369c-0.7079 2.107-0.89154 4.0053-0.032316 5.5018 0.86958 1.5146 2.6018 2.269 4.8255 2.6079l0.30132-1.9772zm11.292 1.1006c-3.7886-0.213-7.5704-0.5334-11.292-1.1006l-0.30132 1.9772c3.8071 0.5802 7.6575 0.9053 11.481 1.1202l0.1123-1.9968zm0.9074 0.0491c-0.2834-0.015-0.5849-0.031-0.9074-0.0491l-0.1123 1.9968c0.3262 0.0184 0.6309 0.0345 0.914 0.0495l0.1057-1.9972zm4.3584 1.0461c-0.4649-0.5487-1.1364-0.7392-1.7687-0.8407-0.6468-0.104-1.5128-0.1484-2.5897-0.2054l-0.1057 1.9972c1.1266 0.0596 1.8627 0.1 2.3781 0.1828 0.5299 0.0852 0.5807 0.1833 0.56 0.1589l1.526-1.2928zm0.5627 3.2605c0.0136-0.6748 0.0273-1.2804-0.0179-1.7692-0.0454-0.4908-0.1616-1.039-0.5448-1.4913l-1.526 1.2928c-0.0138-0.0163 0.0471 0.0346 0.0793 0.3828 0.0324 0.3502 0.0243 0.8235 0.0098 1.5445l1.9996 0.0404zm2e-4 -0.0201v-1e-4h-2v1e-4h2zm-0.0172 1.8826c-0.0061-0.7181 0.0062-1.3299 0.017-1.8624l-1.9996-0.0404c-0.0108 0.5324-0.0237 1.1698-0.0174 1.9196l2-0.0168zm0.0266 11.725c0.0031-3.905 0.0063-7.8153-0.0266-11.725l-2 0.0168c0.0328 3.8986 0.0297 7.7997 0.0266 11.706l2 0.0016zm0 0.0017v-0.0025h-2v0.0025h2zm0.4775 28.125c-0.4924-9.3446-0.4851-18.719-0.4775-28.124l-2-0.0016c-0.0076 9.3966-0.0154 18.824 0.4802 28.231l1.9973-0.105zm4.1003 17.807c-2.2168-5.662-3.7852-11.826-4.1003-17.807l-1.9973 0.105c0.329 6.244 1.9606 12.621 4.2353 18.431l1.8623-0.729zm16.897 10.718c-8.003-0.365-14.11-3.599-16.897-10.718l-1.8623 0.729c3.1589 8.068 10.134 11.598 18.668 11.987l0.0911-1.998zm15.785-9.489c-1.7152 3.133-3.7997 5.579-6.3595 7.203-2.5494 1.617-5.6333 2.458-9.4258 2.286l-0.0911 1.998c4.1598 0.189 7.6577-0.736 10.588-2.595 2.9201-1.852 5.2134-4.591 7.0426-7.931l-1.7543-0.961zm3.1379-6.811c-0.9869 2.35-1.9517 4.644-3.1379 6.811l1.7543 0.961c1.2442-2.273 2.2474-4.664 3.2276-6.997l-1.844-0.775zm1.1689-2.743c-0.4001 0.913-0.7863 1.832-1.1689 2.743l1.844 0.775c0.3835-0.913 0.7637-1.819 1.1566-2.715l-1.8317-0.803zm1.4961-3.574c-0.5175 1.265-0.9928 2.427-1.4961 3.574l1.8317 0.804c0.515-1.175 0.9998-2.36 1.5155-3.621l-1.8511-0.757zm0 0-5e-4 1e-3 1.8521 0.755 6e-4 -1e-3 -1.8522-0.755zm0.0022-5e-3 -0.0017 4e-3 1.8511 0.757 0.0017-4e-3 -1.8511-0.757zm0.7641-1.859c-0.2679 0.646-0.5206 1.263-0.7641 1.859l1.8511 0.757c0.2437-0.596 0.4947-1.209 0.7605-1.85l-1.8475-0.766zm3.1608 0.766c-0.5197-0.374-1.0644-0.765-1.6473-1.191l-1.1795 1.615c0.5901 0.431 1.1409 0.827 1.6601 1.2l1.1667-1.624zm0.0415 0.031h-2e-4l-1.2493 1.562h1e-4l1.2494-1.562zm2.8548 2.106c-0.9164-0.715-1.8596-1.393-2.8961-2.137l-1.1669 1.624c1.043 0.749 1.9528 1.403 2.8319 2.09l1.2311-1.577zm41.103 10.599c-15.277 2.677-28.959-1.114-41.103-10.599l-1.2311 1.577c12.562 9.81 26.81 13.773 42.68 10.992l-0.346-1.97zm13.203-3.334c-4.412 1.287-8.77 2.557-13.203 3.334l0.346 1.97c4.56-0.799 9.023-2.103 13.418-3.385l-0.561-1.919zm3.742-1.08c-1.25 0.353-2.498 0.717-3.742 1.08l0.561 1.919c1.244-0.363 2.484-0.724 3.724-1.074l-0.543-1.925zm6.31 3.674c-0.336-1.504-0.977-2.758-2.145-3.449-1.165-0.69-2.599-0.667-4.165-0.225l0.543 1.925c1.326-0.375 2.115-0.268 2.604 0.021 0.486 0.288 0.931 0.908 1.211 2.164l1.952-0.436zm0.18 0.783c-0.062-0.265-0.122-0.524-0.18-0.783l-1.952 0.436c0.06 0.269 0.123 0.537 0.184 0.8l1.948-0.453zm0.473 2.27c-0.126-0.779-0.304-1.544-0.473-2.27l-1.948 0.453c0.171 0.737 0.333 1.436 0.446 2.136l1.975-0.319zm3.188 19.653c-1.065-6.551-2.131-13.101-3.188-19.653l-1.975 0.319c1.058 6.553 2.124 13.104 3.189 19.655l1.974-0.321zm3e-3 0.018-3e-3 -0.017-1.974 0.32 3e-3 0.017 1.974-0.32zm3e-3 0.018-3e-3 -0.018-1.974 0.32 3e-3 0.018 1.974-0.32zm1e-3 3e-3 -1e-3 -6e-3 -1.974 0.325 1e-3 6e-3 1.974-0.325zm5e-3 0.036-5e-3 -0.035-1.974 0.323 6e-3 0.036 1.973-0.324zm8.352 52.298c-2.683-17.45-5.518-34.876-8.351-52.297l-1.974 0.321c2.834 17.423 5.667 34.84 8.348 52.28l1.977-0.304zm0.52 3.335c-0.175-1.113-0.35-2.225-0.52-3.335l-1.977 0.304c0.171 1.114 0.346 2.228 0.521 3.341l1.976-0.31zm2e-3 0.011-2e-3 -0.011-1.976 0.31 2e-3 0.011 1.976-0.31zm1.832 32.538c1.55-11.052-0.161-21.897-1.832-32.539l-1.976 0.311c1.679 10.69 3.329 21.241 1.828 31.95l1.98 0.278zm-13.973 23.995c9.796-5.358 12.628-14.398 13.973-23.995l-1.98-0.278c-1.321 9.419-4.015 17.629-12.953 22.518l0.96 1.755zm-3.735 3.303c1.258-1.361 2.384-2.564 3.735-3.303l-0.96-1.755c-1.689 0.924-3.033 2.391-4.243 3.7l1.468 1.358zm-1.778 1.839c0.624-0.591 1.214-1.23 1.778-1.839l-1.468-1.358c-0.572 0.618-1.118 1.208-1.686 1.746l1.376 1.451zm6.194-1.627c-2.29-0.032-4.578-0.064-6.867-0.098l-0.03 2c2.29 0.034 4.579 0.066 6.868 0.098l0.029-2zm16.315 0.254c-5.439-0.1-10.879-0.177-16.315-0.254l-0.029 2c5.438 0.077 10.873 0.154 16.307 0.253l0.037-1.999zm2.822 0.058c-0.941-0.021-1.881-0.041-2.822-0.058l-0.037 1.999c0.937 0.018 1.875 0.038 2.816 0.058l0.043-1.999zm-0.021-1e-3v2-2zm1e-3 0h-1e-3v2h1e-3v-2zm11.463 0.064c-3.964 0.097-7.712 0.017-11.442-0.063l-0.043 1.999c3.724 0.08 7.517 0.162 11.534 0.064l-0.049-2zm0.588-17.533c-0.148 6.042-0.783 12.084-1.556 18.412l1.985 0.242c0.775-6.341 1.419-12.462 1.571-18.605l-2-0.049zm-0.285-6.375c0.171 2.17 0.337 4.281 0.285 6.375l2 0.049c0.054-2.215-0.121-4.429-0.291-6.581l-1.994 0.157zm-2e-3 -0.04v1e-3l1.999-0.079-1e-3 -1e-3 -1.998 0.079zm-1e-3 -0.041v1e-3h2v-1e-3h-2zm-0.246-7.477c-0.148 2.541 0.055 5.088 0.249 7.556l1.994-0.157c-0.196-2.492-0.385-4.902-0.246-7.283l-1.997-0.116zm1.05-10.83c-0.417 3.582-0.839 7.198-1.05 10.83l1.997 0.116c0.207-3.564 0.621-7.123 1.04-10.715l-1.987-0.231zm1.138-12.876c-0.136 4.279-0.634 8.552-1.138 12.876l1.987 0.231c0.502-4.309 1.011-8.666 1.15-13.043l-1.999-0.064zm1.114-48.304c-0.3 16.109-0.601 32.211-1.114 48.304l1.999 0.064c0.513-16.109 0.814-32.224 1.115-48.33l-2-0.038zm0 0.019h2-2zm0-1e-3v1e-3h2v-1e-3h-2zm0-1e-3v1e-3h2v-1e-3h-2zm0-0.033v0.015l2 0.036v-0.016l-2-0.035zm0.357-18.449c-0.127 6.15-0.242 12.3-0.357 18.448l2 0.037c0.115-6.148 0.23-12.297 0.356-18.444l-1.999-0.041zm7e-3 -2.483c5e-3 0.946 8e-3 1.716-7e-3 2.483l1.999 0.041c0.017-0.797 0.013-1.593 8e-3 -2.533l-2 9e-3zm-4e-3 -1.637c0 0.606 2e-3 1.145 4e-3 1.637l2-9e-3c-2e-3 -0.493-4e-3 -1.028-4e-3 -1.628h-2zm79.823-9.168c-12.204 8.812-24.78 14.033-37.794 15.481-13.013 1.448-26.526-0.868-40.618-7.225l-0.823 1.824c14.373 6.482 28.245 8.882 41.662 7.389 13.414-1.493 26.311-6.87 38.744-15.847l-1.171-1.622zm2.14 1.788c-0.195-0.434-0.408-0.908-0.655-1.414l-1.798 0.875c0.231 0.476 0.433 0.924 0.629 1.36l1.824-0.821zm1.11 2.18c-0.402-0.614-0.714-1.3-1.11-2.18l-1.824 0.821c0.383 0.85 0.757 1.686 1.261 2.455l1.673-1.096zm3.826 6.172c-1.245-2.065-2.501-4.149-3.826-6.172l-1.673 1.096c1.301 1.987 2.538 4.038 3.786 6.109l1.713-1.033zm9.594 13.674c-3.749-3.983-6.641-8.774-9.594-13.674l-1.713 1.033c2.933 4.865 5.93 9.846 9.851 14.012l1.456-1.371zm11.863 28.88c0.574-11.364-4.04-20.568-11.863-28.88l-1.456 1.371c7.568 8.041 11.86 16.739 11.322 27.408l1.997 0.101zm-3.776 63.28c1.396-21.082 2.711-42.175 3.776-63.28l-1.997-0.101c-1.065 21.09-2.379 42.172-3.775 63.249l1.996 0.132zm-10.833 18.255c7.502-3.967 10.33-10.674 10.833-18.255l-1.996-0.132c-0.472 7.13-3.07 13.075-9.771 16.619l0.934 1.768zm-1.262 1.323c0.512-0.68 0.858-1.109 1.262-1.323l-0.934-1.768c-0.875 0.462-1.483 1.301-1.926 1.889l1.598 1.202zm-0.092 0.106-1.414-1.414 1.414 1.414zm-230.37-196.64-8.9751-2.9428-0.6231 1.9005 8.9751 2.9428 0.6231-1.9005zm10.82 8.5465c-2.3841-4.1667-5.4491-7.2834-10.902-8.5695l-0.4591 1.9465c4.7669 1.1245 7.4311 3.7825 9.6247 7.6163l1.7359-0.9933zm9.3647 15.876c-3.1614-5.2795-6.3166-10.549-9.3647-15.876l-1.7359 0.9933c3.0595 5.347 6.225 10.634 9.3847 15.91l1.7159-1.0275zm0.0037 0.0063-8e-4 -0.0013-1.7218 1.0175 7e-4 0.0012 1.7219-1.0174zm-0.0075-0.0125-2e-4 -3e-4 -1.7065 1.0429 1e-4 3e-4 1.7066-1.0429zm8.5432 14.445c-2.795-4.8455-5.6693-9.6456-8.5386-14.437l-1.7159 1.0274c2.8707 4.7942 5.7366 9.5803 8.522 14.409l1.7325-0.999zm0.4564 5.797c0.3672-0.884 0.4594-1.955 0.3743-2.948-0.0854-0.998-0.3591-2.031-0.8307-2.849l-1.7325 0.999c0.2905 0.504 0.5034 1.237 0.5705 2.02 0.0674 0.788-0.0219 1.513-0.2286 2.01l1.847 0.768zm-0.1915 0.461 0.1916-0.461-1.8471-0.767-0.1916 0.461 1.8471 0.767zm-7.6726 16.305c3.0606-5.194 5.392-10.813 7.6726-16.305l-1.8471-0.767c-2.29 5.515-4.5706 11.003-7.5486 16.057l1.7231 1.015zm-18.737 4.438c3.6878 2.213 7.2541 3.07 10.52 2.322 3.2772-0.751 6.0412-3.068 8.2163-6.76l-1.7231-1.015c-1.9885 3.375-4.3533 5.233-6.9398 5.825-2.5975 0.595-5.6297-0.037-9.0446-2.087l-1.0292 1.715zm-10.04-12.926c0.8146 6.442 5.2891 10.075 10.04 12.926l1.0292-1.715c-4.6353-2.781-8.3919-5.983-9.0848-11.462l-1.9842 0.251zm-1.0912-7.162c0.3969 2.4 0.7901 4.78 1.0912 7.162l1.9842-0.251c-0.3067-2.426-0.7064-4.843-1.1022-7.238l-1.9732 0.327zm-1.61-13.068c0.1761 4.4017 0.8994 8.7686 1.61 13.068l1.9732-0.327c-0.7141-4.319-1.4144-8.5636-1.5848-12.82l-1.9984 0.0799zm-0.1835-24.098c-0.0682 8.1629-0.1351 16.136 0.1835 24.098l1.9984-0.0799c-0.3163-7.9058-0.2503-15.83-0.182-24.002l-1.9999-0.0168zm0 2e-3v0.0064h2v-0.0064h-2zm0-0.0083v8e-4l1.9999 0.0151v-7e-4l-1.9999-0.0152zm0 0.0074v2e-4h2v-2e-4h-2zm0.0587-10.602c0 3.5796-0.0295 7.1042-0.0587 10.594l1.9999 0.0167c0.0292-3.4883 0.0588-7.0212 0.0588-10.61h-2zm281.6 142.16c0.039-2.99 0.093-5.979 0.147-8.972l-2-0.036c-0.054 2.992-0.107 5.986-0.147 8.981l2 0.027zm-6.537 44.556c3.587-14.394 6.482-28.937 6.537-44.566l-2-7e-3c-0.054 15.389-2.904 29.749-6.478 44.089l1.941 0.484zm-8.804 7.438c2.455-0.328 4.405-1.065 5.883-2.332 1.485-1.273 2.395-2.995 2.921-5.106l-1.941-0.484c-0.455 1.829-1.195 3.14-2.282 4.071-1.093 0.937-2.634 1.574-4.846 1.868l0.265 1.983zm-2.575-9.261c0.643 2.827 1.263 5.56 1.445 8.335l1.995-0.131c-0.193-2.959-0.852-5.847-1.489-8.648l-1.951 0.444zm-0.24-17.877c-2.389 6.414-1.025 12.311 0.24 17.877l1.951-0.444c-1.281-5.631-2.469-10.956-0.317-16.735l-1.874-0.698zm4.741-14.439c-1.494 4.87-2.979 9.708-4.741 14.439l1.874 0.698c1.786-4.795 3.288-9.689 4.779-14.55l-1.912-0.587zm-5e-3 0.018v1e-3l1.923 0.55v-1e-3l-1.923-0.55zm0.011-0.037v1e-3l1.901 0.622v-1e-3l-1.901-0.622zm4e-3 -0.012-2e-3 7e-3 1.898 0.633 2e-3 -7e-3 -1.898-0.633zm5.431-16.255c-2.083 5.345-3.766 10.832-5.438 16.278l1.912 0.587c1.675-5.458 3.338-10.874 5.389-16.139l-1.863-0.726zm1.326-22.012c1.641 7.524 1.544 14.646-1.326 22.012l1.863 0.726c3.042-7.805 3.124-15.34 1.417-23.164l-1.954 0.426zm-2.753-13.495c0.92 4.667 1.791 9.09 2.753 13.495l1.954-0.426c-0.956-4.383-1.824-8.785-2.745-13.456l-1.962 0.387zm0 0 1e-3 6e-3 1.96-0.398-1e-3 -6e-3 -1.96 0.398zm-1.313-6.614c0.457 2.271 0.889 4.466 1.312 6.608l1.962-0.386c-0.422-2.143-0.856-4.341-1.313-6.616l-1.961 0.394zm11.059 17.992c-0.056-7.347-2.708-13.75-9.467-18.98l-1.224 1.582c6.24 4.829 8.639 10.636 8.691 17.413l2-0.015zm-0.198 21.026c0.126-6.998 0.252-14.012 0.198-21.026l-2 0.015c0.054 6.984-0.072 13.972-0.198 20.975l2 0.036zm12.138-101.2v19.865h2v-19.865h-2zm-3.693-30.339c2.649 9.7679 4.439 19.557 3.695 30.27l1.996 0.1384c0.765-11.027-1.084-21.06-3.761-30.932l-1.93 0.5234zm1.441-1.7546-1.016 0.6511 1.08 1.6836 1.015-0.6511-1.079-1.6836zm2.644 1.5163c-0.496-0.4659-0.957-0.8997-1.365-1.3475l-1.479 1.346c0.469 0.5159 0.989 1.0035 1.474 1.4591l1.37-1.4576zm2.924 3.6178c-0.621-1.4765-1.882-2.6386-2.925-3.6178l-1.369 1.4576c1.122 1.0542 2.025 1.9254 2.451 2.9364l1.843-0.7762zm3.842 12.172c-0.633-4.2147-2.222-8.3259-3.842-12.172l-1.843 0.7762c1.615 3.8347 3.114 7.7464 3.708 11.693l1.977-0.2973zm-5.259 35.092c5.492-11.253 7.074-23.021 5.259-35.092l-1.977 0.2973c1.757 11.691 0.226 23.047-5.08 33.918l1.798 0.877zm-114.05 2.821-1.8-20.16-1.992 0.1779 1.8 20.16 1.992-0.177zm-19.956 4.209c7.683 0 14.143-1.051 19.342-3.196l-0.763-1.849c-4.882 2.015-11.062 3.045-18.579 3.045v2zm-18.686-2.455c4.786 1.65 11.029 2.455 18.686 2.455v-2c-7.543 0-13.54-0.796-18.034-2.346l-0.652 1.891zm-11.267-7.897c2.772 3.612 6.541 6.238 11.262 7.895l0.662-1.887c-4.398-1.543-7.829-3.957-10.337-7.225l-1.587 1.217zm-5.702-12.51c1.068 4.7677 2.965 8.9437 5.702 12.51l1.587-1.217c-2.544-3.314-4.327-7.218-5.338-11.73l-1.951 0.4375zm-1.585-17.379c0 6.8449 0.523 12.644 1.585 17.379l1.951-0.4375c-1.019-4.5448-1.536-10.186-1.536-16.941h-2zm1.585-17.379c-1.062 4.7352-1.585 10.534-1.585 17.379h2c0-6.7551 0.517-12.396 1.536-16.941l-1.951-0.4375zm5.702-12.63c-2.739 3.569-4.635 7.7871-5.703 12.634l1.953 0.4303c1.012-4.5934 2.796-8.5352 5.337-11.846l-1.587-1.2177zm28.993-10.351c-13.795 0-23.589 3.3424-28.992 10.349l1.584 1.2213c4.837-6.2731 13.843-9.5706 27.408-9.5706v-2zm10.835 0.972c-4.114-0.6454-7.728-0.972-10.835-0.972v2c2.974 0 6.48 0.3133 10.525 0.9479l0.31-1.9759zm9.488 2.2326c-2.132-0.938-5.325-1.6725-9.509-2.2357l-0.267 1.9821c4.136 0.5568 7.103 1.2624 8.971 2.0843l0.805-1.8307zm-3.021 19.468 3.6-18.36-1.963-0.3849-3.6 18.36 1.963 0.3849zm-15.262-0.8724c4.235 0 8.924 0.5492 14.07 1.6575l0.421-1.9551c-5.254-1.1316-10.086-1.7024-14.491-1.7024v2zm-8.57 1.1028c1.457-0.6939 4.252-1.1028 8.57-1.1028v-2c-4.322 0-7.527 0.391-9.43 1.2971l0.86 1.8057zm-1.95 3.8972c0-2.1479 0.725-3.3136 1.95-3.8972l-0.86-1.8057c-2.134 1.0164-3.09 3.0507-3.09 5.7029h2zm0 31.44v-31.44h-2v31.44h2zm8.48-0.04c-3.133 0-6.225-0.3133-9.279-0.9396l-0.402 1.9592c3.187 0.6536 6.414 0.9804 9.681 0.9804v-2zm17.779-2.8198c-5.151 1.8728-11.071 2.8198-17.779 2.8198v2c6.893 0 13.052-0.973 18.462-2.9402l-0.683-1.8796zm54.345 1.0287 1.8 20.16 1.992-0.177-1.8-20.16-1.992 0.1779zm-17.124 3.7911c6.893 0 13.052-0.973 18.462-2.9402l-0.683-1.8796c-5.151 1.8728-11.071 2.8198-17.779 2.8198v2zm-9.681-0.9804c3.187 0.6536 6.414 0.9804 9.681 0.9804v-2c-3.133 0-6.225-0.3133-9.279-0.9396l-0.402 1.9592zm-0.799-32.42v31.44h2v-31.44h-2zm3.09-5.7029c-2.134 1.0164-3.09 3.0507-3.09 5.7029h2c0-2.1479 0.725-3.3136 1.95-3.8972l-0.86-1.8057zm9.43-1.2971c-4.322 0-7.527 0.391-9.43 1.2971l0.86 1.8057c1.457-0.6939 4.252-1.1028 8.57-1.1028v-2zm14.491 1.7024c-5.254-1.1316-10.086-1.7024-14.491-1.7024v2c4.235 0 8.924 0.5492 14.07 1.6575l0.421-1.9551zm2.408-17.575-3.6 18.36 1.963 0.3849 3.6-18.36-1.963-0.3849zm-8.392-0.9765c4.136 0.5568 7.103 1.2624 8.971 2.0843l0.805-1.8307c-2.132-0.938-5.325-1.6725-9.509-2.2357l-0.267 1.9821zm-10.547-0.951c2.974 0 6.48 0.3133 10.525 0.9479l0.31-1.9759c-4.114-0.6454-7.728-0.972-10.835-0.972v2zm-27.408 9.5706c4.837-6.2731 13.843-9.5706 27.408-9.5706v-2c-13.795 0-23.589 3.3424-28.992 10.349l1.584 1.2213zm-5.335 11.844c1.012-4.5934 2.796-8.5352 5.337-11.846l-1.587-1.2177c-2.739 3.569-4.635 7.7871-5.703 12.634l1.953 0.4303zm-1.537 16.945c0-6.7551 0.517-12.396 1.536-16.941l-1.951-0.4375c-1.062 4.7352-1.585 10.534-1.585 17.379h2zm1.536 16.941c-1.019-4.5448-1.536-10.186-1.536-16.941h-2c0 6.8449 0.523 12.644 1.585 17.379l1.951-0.4375zm5.338 11.73c-2.544-3.314-4.327-7.218-5.338-11.73l-1.951 0.4375c1.068 4.7677 2.965 8.9437 5.702 12.51l1.587-1.217zm10.337 7.225c-4.398-1.543-7.829-3.957-10.337-7.225l-1.587 1.217c2.772 3.612 6.541 6.238 11.262 7.895l0.662-1.887zm18.029 2.344c-7.543 0-13.54-0.796-18.034-2.346l-0.652 1.891c4.786 1.65 11.029 2.455 18.686 2.455v-2zm18.579-3.045c-4.882 2.015-11.062 3.045-18.579 3.045v2c7.683 0 14.143-1.051 19.342-3.196l-0.763-1.849z" fill="#BC873C" mask="url(#a)"/>
</svg>
