<svg width="336" height="262" viewBox="0 0 336 262" fill="none" xmlns="http://www.w3.org/2000/svg">
<mask id="path-1-outside-1_2_42" maskUnits="userSpaceOnUse" x="0.499695" y="0.978439" width="335" height="261" fill="black">
<rect fill="white" x="0.499695" y="0.978439" width="335" height="261"/>
<path fill-rule="evenodd" clip-rule="evenodd" d="M264.824 259.401C264.603 259.694 264.382 259.988 264.144 260.252C264.717 260.33 265.29 260.428 265.863 260.526C267.1 260.738 268.337 260.95 269.575 260.956C282.325 261.012 295.075 260.978 308.213 260.691C308.684 259.62 309.014 258.548 309.329 257.52C309.778 256.059 310.199 254.688 310.962 253.535C313.127 250.263 313.978 247.025 313.129 243.224C313.022 242.748 312.898 242.262 312.773 241.772C312.292 239.889 311.792 237.935 312.219 236.25C312.662 234.506 313.099 232.759 313.537 231.012C316.022 221.086 318.513 211.139 321.924 201.518C325.444 191.591 326.043 182.119 322.553 172.248C322.319 171.586 322.075 170.921 321.831 170.254C320.614 166.937 319.374 163.554 319.194 160.157C318.77 152.128 318.766 144.077 318.763 136.027V136.025C318.762 133.398 318.76 130.771 318.745 128.144C318.741 127.48 318.897 126.816 319.092 125.985L319.093 125.983L319.094 125.979C319.197 125.539 319.312 125.052 319.419 124.494L328.202 140.124C328.562 139.169 328.926 138.223 329.287 137.283C332.57 128.737 335.653 120.713 334.073 111.636C333.045 105.731 332.396 99.75 331.838 93.7794C331.633 91.5821 331.566 89.3685 331.499 87.1563V87.1523C331.408 84.1446 331.317 81.1394 330.879 78.1809C329.104 66.1833 323.398 56.8087 311.335 52.1423C310.491 51.8157 309.582 51.3819 308.988 50.7423C303.378 44.7012 296.24 43.1583 288.244 43.2422C277.278 43.3572 267.06 40.4749 258.759 33.2161C251.776 27.11 244.862 20.7905 238.818 13.8125C225.288 -1.80749 202.066 -2.02876 188.526 13.5298C183.588 19.2046 178.164 24.5811 172.362 29.3956C168.02 32.9983 163.501 36.3986 158.984 39.7983L158.982 39.7998C153.676 43.7924 148.372 47.7843 143.355 52.1021C138.722 56.0901 134.384 60.4077 130.045 64.7258L130.043 64.7284C125.93 68.8213 121.818 72.9145 117.453 76.728C103.778 88.6761 90.9058 86.4521 82.4328 70.5232C78.3744 62.8935 75.3056 54.735 72.2528 46.6188L72.2524 46.6178C71.8639 45.5849 71.4756 44.5525 71.0856 43.5221C70.4404 41.8177 71.1496 38.7384 72.4292 37.384C74.9302 34.7367 75.3093 31.7192 75.6895 28.6935L75.6897 28.6924C75.7957 27.8482 75.902 27.0027 76.0544 26.1651C69.7704 23.7835 63.8141 22.9163 57.5455 25.1923C56.3415 25.6294 55.0057 25.7027 53.6665 25.776C52.4254 25.8441 51.1815 25.9123 50.037 26.2704C49.2164 26.5272 48.3791 26.7725 47.5372 27.0191C43.9219 28.0781 40.2215 29.1619 37.3963 31.2909C32.3737 35.0758 27.46 37.2669 21.0146 37.2637C12.7153 37.2597 4.52344 43.69 2.05415 51.04C0.68554 55.1137 1.78938 57.1933 6.05006 57.8427C9.81434 58.4163 13.6304 58.7391 17.4364 58.953C17.7608 58.9713 18.0639 58.9873 18.3471 59.0023C20.5507 59.119 21.5512 59.172 21.9954 59.6963C22.3648 60.1323 22.3495 60.8944 22.3213 62.2902C22.3105 62.8227 22.2979 63.4473 22.3041 64.1812C22.3369 68.0852 22.3338 71.9909 22.3307 75.8966V75.8991C22.3231 85.3003 22.3156 94.7013 22.8096 104.077C23.1316 110.189 24.7316 116.46 26.9773 122.196C29.9503 129.789 36.4913 133.171 44.7597 133.548C52.7119 133.91 57.9232 130.014 61.4676 123.541C62.6829 121.321 63.6668 118.979 64.6504 116.637C65.0334 115.725 65.4166 114.813 65.8132 113.908C66.3223 112.747 66.8024 111.574 67.319 110.311L67.3195 110.31L67.3211 110.306C67.5648 109.71 67.8166 109.095 68.0835 108.451C68.67 108.88 69.2178 109.273 69.7373 109.646C70.777 110.393 71.7035 111.059 72.6012 111.76C84.9543 121.408 98.9195 125.284 114.493 122.555C118.989 121.767 123.4 120.481 127.803 119.196C129.047 118.833 130.291 118.47 131.536 118.119C134.428 117.302 135.982 118.288 136.599 121.049C136.658 121.313 136.719 121.576 136.78 121.84C136.951 122.571 137.121 123.303 137.24 124.043C138.3 130.607 139.367 137.169 140.435 143.732L140.436 143.738L140.441 143.773C143.275 161.195 146.109 178.617 148.791 196.061C148.962 197.174 149.137 198.286 149.312 199.4L149.313 199.41C150.989 210.076 152.669 220.774 151.144 231.654C149.811 241.162 147.048 249.787 137.681 254.911C136.161 255.742 134.926 257.077 133.691 258.412C133.123 259.026 132.556 259.64 131.96 260.205C134.249 260.239 136.538 260.271 138.827 260.304C144.264 260.381 149.702 260.457 155.138 260.557C156.077 260.574 157.016 260.594 157.958 260.615C161.685 260.695 165.455 260.776 169.446 260.678C170.22 254.344 170.86 248.263 171.01 242.17C171.063 240.015 170.892 237.853 170.722 235.692L170.722 235.691V235.69C170.526 233.21 170.331 230.732 170.474 228.27C170.683 224.673 171.101 221.085 171.519 217.498C172.023 213.182 172.526 208.866 172.663 204.539C173.176 188.437 173.477 172.329 173.778 156.221V156.22C173.893 150.066 174.007 143.912 174.134 137.758C174.15 136.976 174.147 136.193 174.142 135.25C174.14 134.757 174.137 134.22 174.137 133.617C202.602 146.456 228.908 143.05 253.546 125.261C253.786 125.752 253.993 126.213 254.189 126.647C254.578 127.513 254.921 128.274 255.374 128.965C256.687 130.97 257.933 133.038 259.18 135.106C262.123 139.989 265.068 144.874 268.903 148.949C276.598 157.126 281.051 166.077 280.495 177.093C279.43 198.191 278.116 219.278 276.719 240.358C276.232 247.713 273.519 254.039 266.418 257.794C265.778 258.132 265.301 258.766 264.824 259.401ZM25.8699 61.4795L34.8449 64.4223C39.9546 65.6275 42.8192 68.5149 45.1081 72.5152C48.1618 77.8522 51.3222 83.1302 54.4827 88.4083C57.353 93.2018 60.2233 97.9953 63.0139 102.833C63.776 104.155 63.9868 106.365 63.413 107.747L63.2214 108.208C60.9361 113.711 58.6301 119.265 55.6108 124.389C51.4473 131.455 45.3531 132.74 38.2503 128.477C33.5573 125.661 29.4417 122.243 28.688 116.283C28.3841 113.879 27.9876 111.48 27.5913 109.083C26.879 104.774 26.1671 100.468 25.9939 96.1389C25.6765 88.2048 25.7429 80.256 25.8112 72.0888V72.0825C25.8403 68.5933 25.8699 65.0642 25.8699 61.4795ZM305.613 194.648C305.559 197.64 305.505 200.632 305.465 203.624C305.411 219.133 302.538 233.585 298.958 247.951C297.977 251.891 295.658 254.018 290.992 254.64C290.804 251.773 290.165 248.962 289.525 246.148C288.252 240.55 286.976 234.939 289.246 228.843C291.021 224.079 292.514 219.212 294.008 214.347L294.01 214.34C295.683 208.888 297.356 203.437 299.423 198.132C302.379 190.546 302.469 183.217 300.794 175.543C299.836 171.149 298.966 166.737 298.046 162.068L298.044 162.062C297.622 159.92 297.189 157.724 296.732 155.451C303.231 160.48 305.757 166.585 305.811 173.647C305.864 180.646 305.739 187.647 305.613 194.648ZM319.751 113.332V93.4663C320.505 82.596 318.686 72.6852 316.023 62.8652L317.038 62.2141C317.477 62.696 317.967 63.1567 318.457 63.6174C319.54 64.6341 320.622 65.6508 321.146 66.8945C322.763 70.735 324.307 74.7464 324.92 78.8272C326.706 90.7079 325.149 102.27 319.751 113.332Z"/>
</mask>
<path fill-rule="evenodd" clip-rule="evenodd" d="M264.824 259.401C264.603 259.694 264.382 259.988 264.144 260.252C264.717 260.33 265.29 260.428 265.863 260.526C267.1 260.738 268.337 260.95 269.575 260.956C282.325 261.012 295.075 260.978 308.213 260.691C308.684 259.62 309.014 258.548 309.329 257.52C309.778 256.059 310.199 254.688 310.962 253.535C313.127 250.263 313.978 247.025 313.129 243.224C313.022 242.748 312.898 242.262 312.773 241.772C312.292 239.889 311.792 237.935 312.219 236.25C312.662 234.506 313.099 232.759 313.537 231.012C316.022 221.086 318.513 211.139 321.924 201.518C325.444 191.591 326.043 182.119 322.553 172.248C322.319 171.586 322.075 170.921 321.831 170.254C320.614 166.937 319.374 163.554 319.194 160.157C318.77 152.128 318.766 144.077 318.763 136.027V136.025C318.762 133.398 318.76 130.771 318.745 128.144C318.741 127.48 318.897 126.816 319.092 125.985L319.093 125.983L319.094 125.979C319.197 125.539 319.312 125.052 319.419 124.494L328.202 140.124C328.562 139.169 328.926 138.223 329.287 137.283C332.57 128.737 335.653 120.713 334.073 111.636C333.045 105.731 332.396 99.75 331.838 93.7794C331.633 91.5821 331.566 89.3685 331.499 87.1563V87.1523C331.408 84.1446 331.317 81.1394 330.879 78.1809C329.104 66.1833 323.398 56.8087 311.335 52.1423C310.491 51.8157 309.582 51.3819 308.988 50.7423C303.378 44.7012 296.24 43.1583 288.244 43.2422C277.278 43.3572 267.06 40.4749 258.759 33.2161C251.776 27.11 244.862 20.7905 238.818 13.8125C225.288 -1.80749 202.066 -2.02876 188.526 13.5298C183.588 19.2046 178.164 24.5811 172.362 29.3956C168.02 32.9983 163.501 36.3986 158.984 39.7983L158.982 39.7998C153.676 43.7924 148.372 47.7843 143.355 52.1021C138.722 56.0901 134.384 60.4077 130.045 64.7258L130.043 64.7284C125.93 68.8213 121.818 72.9145 117.453 76.728C103.778 88.6761 90.9058 86.4521 82.4328 70.5232C78.3744 62.8935 75.3056 54.735 72.2528 46.6188L72.2524 46.6178C71.8639 45.5849 71.4756 44.5525 71.0856 43.5221C70.4404 41.8177 71.1496 38.7384 72.4292 37.384C74.9302 34.7367 75.3093 31.7192 75.6895 28.6935L75.6897 28.6924C75.7957 27.8482 75.902 27.0027 76.0544 26.1651C69.7704 23.7835 63.8141 22.9163 57.5455 25.1923C56.3415 25.6294 55.0057 25.7027 53.6665 25.776C52.4254 25.8441 51.1815 25.9123 50.037 26.2704C49.2164 26.5272 48.3791 26.7725 47.5372 27.0191C43.9219 28.0781 40.2215 29.1619 37.3963 31.2909C32.3737 35.0758 27.46 37.2669 21.0146 37.2637C12.7153 37.2597 4.52344 43.69 2.05415 51.04C0.68554 55.1137 1.78938 57.1933 6.05006 57.8427C9.81434 58.4163 13.6304 58.7391 17.4364 58.953C17.7608 58.9713 18.0639 58.9873 18.3471 59.0023C20.5507 59.119 21.5512 59.172 21.9954 59.6963C22.3648 60.1323 22.3495 60.8944 22.3213 62.2902C22.3105 62.8227 22.2979 63.4473 22.3041 64.1812C22.3369 68.0852 22.3338 71.9909 22.3307 75.8966V75.8991C22.3231 85.3003 22.3156 94.7013 22.8096 104.077C23.1316 110.189 24.7316 116.46 26.9773 122.196C29.9503 129.789 36.4913 133.171 44.7597 133.548C52.7119 133.91 57.9232 130.014 61.4676 123.541C62.6829 121.321 63.6668 118.979 64.6504 116.637C65.0334 115.725 65.4166 114.813 65.8132 113.908C66.3223 112.747 66.8024 111.574 67.319 110.311L67.3195 110.31L67.3211 110.306C67.5648 109.71 67.8166 109.095 68.0835 108.451C68.67 108.88 69.2178 109.273 69.7373 109.646C70.777 110.393 71.7035 111.059 72.6012 111.76C84.9543 121.408 98.9195 125.284 114.493 122.555C118.989 121.767 123.4 120.481 127.803 119.196C129.047 118.833 130.291 118.47 131.536 118.119C134.428 117.302 135.982 118.288 136.599 121.049C136.658 121.313 136.719 121.576 136.78 121.84C136.951 122.571 137.121 123.303 137.24 124.043C138.3 130.607 139.367 137.169 140.435 143.732L140.436 143.738L140.441 143.773C143.275 161.195 146.109 178.617 148.791 196.061C148.962 197.174 149.137 198.286 149.312 199.4L149.313 199.41C150.989 210.076 152.669 220.774 151.144 231.654C149.811 241.162 147.048 249.787 137.681 254.911C136.161 255.742 134.926 257.077 133.691 258.412C133.123 259.026 132.556 259.64 131.96 260.205C134.249 260.239 136.538 260.271 138.827 260.304C144.264 260.381 149.702 260.457 155.138 260.557C156.077 260.574 157.016 260.594 157.958 260.615C161.685 260.695 165.455 260.776 169.446 260.678C170.22 254.344 170.86 248.263 171.01 242.17C171.063 240.015 170.892 237.853 170.722 235.692L170.722 235.691V235.69C170.526 233.21 170.331 230.732 170.474 228.27C170.683 224.673 171.101 221.085 171.519 217.498C172.023 213.182 172.526 208.866 172.663 204.539C173.176 188.437 173.477 172.329 173.778 156.221V156.22C173.893 150.066 174.007 143.912 174.134 137.758C174.15 136.976 174.147 136.193 174.142 135.25C174.14 134.757 174.137 134.22 174.137 133.617C202.602 146.456 228.908 143.05 253.546 125.261C253.786 125.752 253.993 126.213 254.189 126.647C254.578 127.513 254.921 128.274 255.374 128.965C256.687 130.97 257.933 133.038 259.18 135.106C262.123 139.989 265.068 144.874 268.903 148.949C276.598 157.126 281.051 166.077 280.495 177.093C279.43 198.191 278.116 219.278 276.719 240.358C276.232 247.713 273.519 254.039 266.418 257.794C265.778 258.132 265.301 258.766 264.824 259.401ZM25.8699 61.4795L34.8449 64.4223C39.9546 65.6275 42.8192 68.5149 45.1081 72.5152C48.1618 77.8522 51.3222 83.1302 54.4827 88.4083C57.353 93.2018 60.2233 97.9953 63.0139 102.833C63.776 104.155 63.9868 106.365 63.413 107.747L63.2214 108.208C60.9361 113.711 58.6301 119.265 55.6108 124.389C51.4473 131.455 45.3531 132.74 38.2503 128.477C33.5573 125.661 29.4417 122.243 28.688 116.283C28.3841 113.879 27.9876 111.48 27.5913 109.083C26.879 104.774 26.1671 100.468 25.9939 96.1389C25.6765 88.2048 25.7429 80.256 25.8112 72.0888V72.0825C25.8403 68.5933 25.8699 65.0642 25.8699 61.4795ZM305.613 194.648C305.559 197.64 305.505 200.632 305.465 203.624C305.411 219.133 302.538 233.585 298.958 247.951C297.977 251.891 295.658 254.018 290.992 254.64C290.804 251.773 290.165 248.962 289.525 246.148C288.252 240.55 286.976 234.939 289.246 228.843C291.021 224.079 292.514 219.212 294.008 214.347L294.01 214.34C295.683 208.888 297.356 203.437 299.423 198.132C302.379 190.546 302.469 183.217 300.794 175.543C299.836 171.149 298.966 166.737 298.046 162.068L298.044 162.062C297.622 159.92 297.189 157.724 296.732 155.451C303.231 160.48 305.757 166.585 305.811 173.647C305.864 180.646 305.739 187.647 305.613 194.648ZM319.751 113.332V93.4663C320.505 82.596 318.686 72.6852 316.023 62.8652L317.038 62.2141C317.477 62.696 317.967 63.1567 318.457 63.6174C319.54 64.6341 320.622 65.6508 321.146 66.8945C322.763 70.735 324.307 74.7464 324.92 78.8272C326.706 90.7079 325.149 102.27 319.751 113.332Z" fill="#BC873C"/>
<path d="M202.257 7.5039L201.687 7.5812L201.821 8.57215L202.392 8.49485L202.257 7.5039ZM216.612 6.18164L217.278 6.09146L217.144 5.1005L216.478 5.19068L216.612 6.18164ZM264.144 260.252L263.4 259.585L262.139 260.99L264.01 261.243L264.144 260.252ZM264.824 259.401L264.025 258.799L264.025 258.799L264.824 259.401ZM265.863 260.526L266.031 259.541L266.031 259.541L265.863 260.526ZM269.575 260.956L269.571 261.956L269.571 261.956L269.575 260.956ZM308.213 260.691L308.235 261.691L308.872 261.677L309.128 261.094L308.213 260.691ZM309.329 257.52L310.285 257.814L310.285 257.814L309.329 257.52ZM310.962 253.535L310.128 252.983L310.128 252.983L310.962 253.535ZM313.129 243.224L314.104 243.005L314.104 243.005L313.129 243.224ZM312.773 241.772L311.804 242.019L311.804 242.019L312.773 241.772ZM312.219 236.25L313.189 236.496L313.189 236.496L312.219 236.25ZM313.537 231.012L312.567 230.769L312.567 230.769L313.537 231.012ZM321.924 201.518L320.982 201.184L320.982 201.184L321.924 201.518ZM322.553 172.248L323.496 171.915L323.496 171.915L322.553 172.248ZM321.831 170.254L322.77 169.909L322.77 169.909L321.831 170.254ZM319.194 160.157L320.193 160.104L320.193 160.104L319.194 160.157ZM318.763 136.027L317.763 136.027L317.763 136.028L318.763 136.027ZM318.763 136.025L319.763 136.025L319.763 136.025L318.763 136.025ZM318.745 128.144L319.745 128.138L319.745 128.138L318.745 128.144ZM319.092 125.985L318.123 125.738L318.121 125.747L318.119 125.756L319.092 125.985ZM319.093 125.983L320.062 126.231L320.064 126.222L320.066 126.212L319.093 125.983ZM319.094 125.979L320.067 126.208L320.067 126.208L319.094 125.979ZM319.419 124.494L320.291 124.004L318.952 121.623L318.437 124.305L319.419 124.494ZM328.202 140.124L327.331 140.614L328.381 142.483L329.138 140.477L328.202 140.124ZM329.287 137.283L328.354 136.925L328.354 136.925L329.287 137.283ZM334.073 111.636L335.059 111.465L335.059 111.465L334.073 111.636ZM331.838 93.7794L332.834 93.6864L332.834 93.6863L331.838 93.7794ZM331.499 87.1563H330.499V87.1715L330.499 87.1866L331.499 87.1563ZM331.499 87.1523H332.499V87.1371L332.498 87.122L331.499 87.1523ZM330.879 78.1809L329.89 78.3272L329.89 78.3272L330.879 78.1809ZM311.335 52.1423L311.696 51.2096L311.696 51.2096L311.335 52.1423ZM308.988 50.7423L309.721 50.0619L309.721 50.0619L308.988 50.7423ZM288.244 43.2422L288.254 44.2421L288.254 44.2421L288.244 43.2422ZM258.759 33.2161L259.417 32.4633L259.417 32.4633L258.759 33.2161ZM238.818 13.8125L239.574 13.1578L239.574 13.1578L238.818 13.8125ZM188.526 13.5298L189.281 14.1863L189.281 14.1863L188.526 13.5298ZM172.362 29.3956L171.723 28.626L171.723 28.626L172.362 29.3956ZM158.984 39.7983L158.382 38.9993L158.37 39.0082L158.359 39.0174L158.984 39.7983ZM158.982 39.7998L159.583 40.5988L159.595 40.5899L159.606 40.5806L158.982 39.7998ZM143.355 52.1021L144.008 52.86L144.008 52.86L143.355 52.1021ZM130.045 64.7258L129.34 64.017L129.338 64.0187L130.045 64.7258ZM130.043 64.7284L130.748 65.4372L130.75 65.4355L130.043 64.7284ZM117.453 76.728L116.795 75.9749L116.795 75.9749L117.453 76.728ZM82.4328 70.5232L83.3157 70.0535L83.3157 70.0535L82.4328 70.5232ZM72.2528 46.6188L71.3041 46.935L71.3101 46.953L71.3168 46.9708L72.2528 46.6188ZM72.2524 46.6178L73.2011 46.3016L73.1951 46.2835L73.1884 46.2658L72.2524 46.6178ZM71.0856 43.5221L72.0208 43.1681L72.0208 43.1681L71.0856 43.5221ZM72.4292 37.384L73.1561 38.0708L73.1561 38.0708L72.4292 37.384ZM75.6895 28.6935L74.7089 28.4974L74.7018 28.5329L74.6973 28.5689L75.6895 28.6935ZM75.6897 28.6924L76.6703 28.8885L76.6774 28.853L76.6819 28.817L75.6897 28.6924ZM76.0544 26.1651L77.0382 26.3441L77.1872 25.525L76.4088 25.23L76.0544 26.1651ZM57.5455 25.1923L57.8868 26.1323L57.8868 26.1323L57.5455 25.1923ZM53.6665 25.776L53.6118 24.7775L53.6118 24.7775L53.6665 25.776ZM50.037 26.2704L50.3357 27.2248L50.3357 27.2248L50.037 26.2704ZM47.5372 27.0191L47.8183 27.9788L47.8183 27.9788L47.5372 27.0191ZM37.3963 31.2909L36.7945 30.4923L36.7945 30.4923L37.3963 31.2909ZM21.0146 37.2637L21.0151 36.2637L21.0151 36.2637L21.0146 37.2637ZM2.05415 51.04L3.00208 51.3584L3.00208 51.3584L2.05415 51.04ZM6.05006 57.8427L5.8994 58.8313L5.89941 58.8313L6.05006 57.8427ZM17.4364 58.953L17.3803 59.9515L17.3803 59.9515L17.4364 58.953ZM18.3471 59.0023L18.2943 60.0009L18.2943 60.0009L18.3471 59.0023ZM21.9954 59.6963L22.7584 59.0498L22.7584 59.0498L21.9954 59.6963ZM22.3213 62.2902L23.3211 62.3104L23.3211 62.3104L22.3213 62.2902ZM22.3041 64.1812L21.3041 64.1896L21.3041 64.1896L22.3041 64.1812ZM22.3307 75.8966L21.3307 75.8958V75.8966H22.3307ZM22.3307 75.8991L23.3307 75.8999V75.8991H22.3307ZM22.8096 104.077L23.8082 104.024L23.8082 104.024L22.8096 104.077ZM26.9773 122.196L27.9085 121.831L27.9085 121.831L26.9773 122.196ZM44.7597 133.548L44.8052 132.549L44.8052 132.549L44.7597 133.548ZM61.4676 123.541L62.3448 124.021L62.3448 124.021L61.4676 123.541ZM64.6504 116.637L65.5724 117.024L65.5724 117.024L64.6504 116.637ZM65.8132 113.908L64.8973 113.507L64.8973 113.507L65.8132 113.908ZM67.319 110.311L68.2445 110.69L68.245 110.688L67.319 110.311ZM67.3195 110.31L66.3939 109.931L66.3934 109.933L67.3195 110.31ZM67.3211 110.306L66.3956 109.927L66.3956 109.927L67.3211 110.306ZM68.0835 108.451L68.6732 107.644L67.6467 106.894L67.1597 108.068L68.0835 108.451ZM69.7373 109.646L70.3207 108.834L70.3207 108.834L69.7373 109.646ZM72.6012 111.76L73.2168 110.972L73.2168 110.972L72.6012 111.76ZM114.493 122.555L114.665 123.54L114.665 123.54L114.493 122.555ZM127.803 119.196L128.083 120.156L128.083 120.156L127.803 119.196ZM131.536 118.119L131.808 119.081L131.808 119.081L131.536 118.119ZM136.599 121.049L137.575 120.831L137.575 120.831L136.599 121.049ZM136.78 121.84L137.754 121.613L137.754 121.613L136.78 121.84ZM137.24 124.043L136.253 124.202L136.253 124.202L137.24 124.043ZM140.435 143.732L139.448 143.893L139.448 143.895L140.435 143.732ZM140.436 143.738L141.422 143.576L141.422 143.575L140.436 143.738ZM140.441 143.773L141.428 143.613L141.428 143.611L140.441 143.773ZM148.791 196.061L147.803 196.213L147.803 196.213L148.791 196.061ZM149.312 199.4L150.3 199.245L150.3 199.244L149.312 199.4ZM149.313 199.41L148.325 199.565L148.325 199.565L149.313 199.41ZM151.144 231.654L150.153 231.515L150.153 231.515L151.144 231.654ZM137.681 254.911L137.201 254.034L137.201 254.034L137.681 254.911ZM133.691 258.412L132.957 257.733L132.957 257.733L133.691 258.412ZM131.96 260.205L131.272 259.48L129.491 261.169L131.945 261.205L131.96 260.205ZM138.827 260.304L138.841 259.304L138.841 259.304L138.827 260.304ZM155.138 260.557L155.12 261.557L155.12 261.557L155.138 260.557ZM157.958 260.615L157.936 261.615L157.936 261.615L157.958 260.615ZM169.446 260.678L169.471 261.678L170.334 261.657L170.439 260.8L169.446 260.678ZM171.01 242.17L170.01 242.145L170.01 242.145L171.01 242.17ZM170.722 235.692L169.723 235.732L169.724 235.751L169.725 235.771L170.722 235.692ZM170.722 235.691H169.722V235.711L169.723 235.73L170.722 235.691ZM170.722 235.69H171.722V235.65L171.719 235.611L170.722 235.69ZM170.474 228.27L171.472 228.328L171.472 228.328L170.474 228.27ZM171.519 217.498L172.513 217.614L172.513 217.614L171.519 217.498ZM172.663 204.539L171.664 204.507L171.664 204.507L172.663 204.539ZM173.778 156.221L174.778 156.239L174.778 156.23V156.221H173.778ZM173.778 156.22L172.778 156.201L172.778 156.21V156.22H173.778ZM174.134 137.758L173.134 137.738L173.134 137.738L174.134 137.758ZM174.142 135.25L175.142 135.246L175.142 135.246L174.142 135.25ZM174.137 133.617L174.548 132.706L173.137 132.069V133.617H174.137ZM253.546 125.261L254.446 124.823L253.925 123.754L252.961 124.45L253.546 125.261ZM254.189 126.647L253.277 127.058L253.277 127.058L254.189 126.647ZM255.374 128.965L256.21 128.417L256.21 128.417L255.374 128.965ZM259.18 135.106L260.036 134.59L260.036 134.59L259.18 135.106ZM268.903 148.949L269.631 148.264L269.631 148.264L268.903 148.949ZM280.495 177.093L281.494 177.143L281.494 177.143L280.495 177.093ZM276.719 240.358L277.717 240.424L277.717 240.424L276.719 240.358ZM266.418 257.794L265.95 256.91L265.95 256.91L266.418 257.794ZM34.8449 64.4223L34.5334 65.3725L34.5739 65.3858L34.6154 65.3956L34.8449 64.4223ZM25.8699 61.4795L26.1814 60.5293L24.8699 60.0992V61.4795H25.8699ZM45.1081 72.5152L44.2401 73.0118L44.2401 73.0118L45.1081 72.5152ZM54.4827 88.4083L55.3406 87.8945L55.3406 87.8945L54.4827 88.4083ZM63.0139 102.833L62.1476 103.333L62.1476 103.333L63.0139 102.833ZM63.413 107.747L62.4895 107.363L62.4895 107.363L63.413 107.747ZM63.2214 108.208L62.2979 107.824L62.2979 107.824L63.2214 108.208ZM55.6108 124.389L54.7492 123.881L54.7492 123.881L55.6108 124.389ZM38.2503 128.477L38.7649 127.62L38.7649 127.62L38.2503 128.477ZM28.688 116.283L27.6959 116.408L27.6959 116.408L28.688 116.283ZM27.5913 109.083L28.5779 108.92L28.5779 108.92L27.5913 109.083ZM25.9939 96.1389L24.9947 96.1789L24.9947 96.1789L25.9939 96.1389ZM25.8112 72.0888L26.8112 72.0972V72.0888H25.8112ZM25.8112 72.0825L24.8112 72.0741V72.0825H25.8112ZM305.465 203.624L304.466 203.61L304.465 203.62L305.465 203.624ZM305.613 194.648L304.613 194.63L304.613 194.63L305.613 194.648ZM298.958 247.951L297.988 247.71L297.988 247.71L298.958 247.951ZM290.992 254.64L289.994 254.705L290.064 255.773L291.124 255.631L290.992 254.64ZM289.525 246.148L288.55 246.37L288.55 246.37L289.525 246.148ZM289.246 228.843L288.309 228.493L288.309 228.494L289.246 228.843ZM294.008 214.347L293.059 214.031L293.055 214.042L293.052 214.053L294.008 214.347ZM294.01 214.34L294.958 214.656L294.962 214.645L294.966 214.634L294.01 214.34ZM299.423 198.132L300.355 198.495L300.355 198.495L299.423 198.132ZM300.794 175.543L301.771 175.33L301.771 175.33L300.794 175.543ZM298.046 162.068L299.027 161.875L299.026 161.869L298.046 162.068ZM298.044 162.062L297.063 162.256L297.064 162.262L298.044 162.062ZM296.732 155.451L297.344 154.66L295.223 153.019L295.752 155.648L296.732 155.451ZM305.811 173.647L306.811 173.639L306.811 173.639L305.811 173.647ZM319.751 93.4663L318.753 93.3971L318.751 93.4317V93.4663H319.751ZM319.751 113.332H318.751L320.649 113.77L319.751 113.332ZM316.023 62.8652L315.483 62.0234L314.866 62.4192L315.058 63.1269L316.023 62.8652ZM317.038 62.2141L317.778 61.5411L317.21 60.9164L316.499 61.3723L317.038 62.2141ZM318.457 63.6174L317.773 64.3462L317.773 64.3462L318.457 63.6174ZM321.146 66.8945L320.224 67.2827L320.224 67.2827L321.146 66.8945ZM324.92 78.8272L323.931 78.9758L323.931 78.9758L324.92 78.8272ZM264.889 260.92C265.16 260.618 265.407 260.289 265.623 260.002L264.025 258.799C263.799 259.1 263.603 259.358 263.4 259.585L264.889 260.92ZM266.031 259.541C265.462 259.443 264.872 259.342 264.279 259.261L264.01 261.243C264.563 261.318 265.118 261.413 265.694 261.512L266.031 259.541ZM269.58 259.956C268.439 259.951 267.283 259.755 266.031 259.541L265.694 261.512C266.916 261.721 268.236 261.95 269.571 261.956L269.58 259.956ZM308.191 259.691C295.066 259.978 282.325 260.012 269.58 259.956L269.571 261.956C282.325 262.012 295.085 261.978 308.235 261.691L308.191 259.691ZM308.373 257.227C308.056 258.261 307.742 259.279 307.298 260.288L309.128 261.094C309.627 259.961 309.972 258.835 310.285 257.814L308.373 257.227ZM310.128 252.983C309.271 254.278 308.812 255.796 308.373 257.227L310.285 257.814C310.743 256.323 311.127 255.097 311.796 254.086L310.128 252.983ZM312.153 243.442C312.932 246.928 312.174 249.891 310.128 252.983L311.796 254.086C314.08 250.634 315.025 247.122 314.104 243.005L312.153 243.442ZM311.804 242.019C311.93 242.513 312.05 242.984 312.153 243.442L314.104 243.005C313.994 242.513 313.866 242.012 313.742 241.524L311.804 242.019ZM311.25 236.005C310.748 237.985 311.341 240.21 311.804 242.019L313.742 241.524C313.242 239.568 312.837 237.885 313.189 236.496L311.25 236.005ZM312.567 230.769C312.129 232.516 311.692 234.262 311.25 236.005L313.189 236.496C313.631 234.75 314.069 233.002 314.507 231.254L312.567 230.769ZM320.982 201.184C317.552 210.858 315.05 220.851 312.567 230.769L314.507 231.254C316.994 221.321 319.474 211.421 322.867 201.852L320.982 201.184ZM321.61 172.581C325.01 182.196 324.44 191.429 320.982 201.184L322.867 201.852C326.448 191.752 327.076 182.041 323.496 171.915L321.61 172.581ZM320.892 170.598C321.137 171.267 321.379 171.926 321.61 172.581L323.496 171.915C323.26 171.247 323.014 170.576 322.77 169.909L320.892 170.598ZM318.196 160.21C318.385 163.784 319.687 167.311 320.892 170.598L322.77 169.909C321.542 166.562 320.363 163.324 320.193 160.104L318.196 160.21ZM317.763 136.028C317.766 144.073 317.77 152.15 318.196 160.21L320.193 160.104C319.77 152.106 319.766 144.081 319.763 136.027L317.763 136.028ZM317.763 136.025V136.027H319.763V136.025H317.763ZM317.745 128.15C317.76 130.773 317.762 133.398 317.763 136.026L319.763 136.025C319.762 133.398 319.76 130.768 319.745 128.138L317.745 128.15ZM318.119 125.756C317.93 126.557 317.74 127.344 317.745 128.15L319.745 128.138C319.741 127.616 319.864 127.074 320.066 126.214L318.119 125.756ZM318.124 125.736L318.123 125.738L320.061 126.233L320.062 126.231L318.124 125.736ZM318.12 125.75L318.119 125.754L320.066 126.212L320.067 126.208L318.12 125.75ZM318.437 124.305C318.334 124.841 318.224 125.309 318.12 125.751L320.067 126.208C320.17 125.769 320.289 125.263 320.401 124.683L318.437 124.305ZM329.074 139.634L320.291 124.004L318.547 124.984L327.331 140.614L329.074 139.634ZM328.354 136.925C327.993 137.864 327.628 138.813 327.267 139.771L329.138 140.477C329.497 139.525 329.859 138.582 330.221 137.642L328.354 136.925ZM333.088 111.808C334.613 120.569 331.653 128.336 328.354 136.925L330.221 137.642C333.488 129.138 336.693 120.856 335.059 111.465L333.088 111.808ZM330.843 93.8724C331.401 99.8504 332.053 105.862 333.088 111.808L335.059 111.465C334.037 105.599 333.391 99.6496 332.834 93.6864L330.843 93.8724ZM330.499 87.1866C330.566 89.3935 330.634 91.6386 330.843 93.8724L332.834 93.6863C332.632 91.5256 332.566 89.3435 332.498 87.126L330.499 87.1866ZM329.89 78.3272C330.317 81.2183 330.408 84.1648 330.499 87.1826L332.498 87.122C332.407 84.1243 332.316 81.0605 331.868 78.0345L329.89 78.3272ZM310.975 53.0749C322.627 57.5823 328.155 66.5981 329.89 78.3272L331.868 78.0345C330.054 65.7685 324.17 56.035 311.696 51.2096L310.975 53.0749ZM308.255 51.4228C309.016 52.2416 310.114 52.7418 310.975 53.0749L311.696 51.2096C310.869 50.8896 310.148 50.5221 309.721 50.0619L308.255 51.4228ZM288.254 44.2421C296.117 44.1596 302.919 45.6763 308.255 51.4228L309.721 50.0619C303.838 43.7261 296.363 42.1569 288.233 42.2422L288.254 44.2421ZM258.101 33.9689C266.628 41.4247 277.102 44.3591 288.254 44.2421L288.233 42.2422C277.453 42.3553 267.493 39.525 259.417 32.4633L258.101 33.9689ZM238.062 14.4672C244.154 21.5001 251.111 27.857 258.101 33.9689L259.417 32.4633C252.441 26.3629 245.57 20.0809 239.574 13.1578L238.062 14.4672ZM189.281 14.1863C202.414 -0.904829 224.923 -0.701874 238.062 14.4672L239.574 13.1578C225.654 -2.9131 201.718 -3.15269 187.772 12.8734L189.281 14.1863ZM173 30.1652C178.848 25.3131 184.31 19.8981 189.281 14.1863L187.772 12.8734C182.866 18.5112 177.48 23.8491 171.723 28.626L173 30.1652ZM159.585 40.5973C164.099 37.2001 168.637 33.7856 173 30.1652L171.723 28.626C167.403 32.211 162.903 35.5972 158.382 38.9993L159.585 40.5973ZM144.008 52.86C148.995 48.5672 154.273 44.5948 159.583 40.5988L158.38 39.0007C153.079 42.9901 147.748 47.0014 142.703 51.3442L144.008 52.86ZM130.751 65.4346C135.094 61.1122 139.406 56.8205 144.008 52.86L142.703 51.3442C138.038 55.3598 133.674 59.7033 129.34 64.017L130.751 65.4346ZM118.111 77.481C122.504 73.6426 126.64 69.5262 130.748 65.4372L129.337 64.0196C125.221 68.1163 121.131 72.1864 116.795 75.9749L118.111 77.481ZM81.55 70.9928C85.8662 79.1072 91.4151 83.9373 97.8188 85.0643C104.218 86.1905 111.151 83.5623 118.111 77.481L116.795 75.9749C110.08 81.8418 103.74 84.0756 98.1655 83.0946C92.5961 82.1144 87.4724 77.868 83.3157 70.0535L81.55 70.9928ZM71.3168 46.9708C74.3657 55.0766 77.4561 63.2964 81.55 70.9928L83.3157 70.0535C79.2927 62.4906 76.2456 54.3935 73.1887 46.2667L71.3168 46.9708ZM71.3038 46.934L71.3041 46.935L73.2014 46.3025L73.2011 46.3016L71.3038 46.934ZM70.1503 43.8761C70.5399 44.9053 70.9279 45.9368 71.3165 46.9699L73.1884 46.2658C72.7999 45.233 72.4113 44.1996 72.0208 43.1681L70.1503 43.8761ZM71.7023 36.6973C70.8947 37.552 70.3386 38.8513 70.0595 40.1044C69.7818 41.3514 69.7307 42.7676 70.1503 43.8761L72.0208 43.1681C71.7953 42.5723 71.7762 41.5966 72.0117 40.5392C72.2458 39.488 72.684 38.5704 73.1561 38.0708L71.7023 36.6973ZM74.6973 28.5689C74.3141 31.6189 73.952 34.3159 71.7023 36.6973L73.1561 38.0708C75.9084 35.1575 76.3046 31.8196 76.6817 28.8182L74.6973 28.5689ZM74.7091 28.4963L74.7089 28.4974L76.6701 28.8896L76.6703 28.8885L74.7091 28.4963ZM75.0705 25.9861C74.9124 26.8553 74.803 27.7281 74.6975 28.5678L76.6819 28.817C76.7885 27.9683 76.8916 27.1501 77.0382 26.3441L75.0705 25.9861ZM57.8868 26.1323C63.8478 23.968 69.5411 24.766 75.7 27.1002L76.4088 25.23C69.9997 22.801 63.7804 21.8647 57.2042 24.2523L57.8868 26.1323ZM53.7212 26.7746C55.0294 26.7029 56.5191 26.6288 57.8868 26.1323L57.2042 24.2523C56.1639 24.63 54.9819 24.7025 53.6118 24.7775L53.7212 26.7746ZM50.3357 27.2248C51.34 26.9105 52.455 26.844 53.7212 26.7745L53.6118 24.7775C52.3959 24.8442 51.0231 24.914 49.7384 25.3161L50.3357 27.2248ZM47.8183 27.9788C48.6587 27.7326 49.5049 27.4848 50.3357 27.2248L49.7384 25.3161C48.928 25.5696 48.0996 25.8123 47.2561 26.0594L47.8183 27.9788ZM37.9981 32.0895C40.6505 30.0908 44.1609 29.0501 47.8183 27.9788L47.2561 26.0594C43.6829 27.1061 39.7925 28.2331 36.7945 30.4923L37.9981 32.0895ZM21.0141 38.2637C27.7339 38.267 32.8539 35.9661 37.9981 32.0895L36.7945 30.4923C31.8935 34.1855 27.1861 36.2667 21.0151 36.2637L21.0141 38.2637ZM3.00208 51.3584C4.16203 47.9058 6.68816 44.6202 9.94512 42.1964C13.2004 39.7738 17.1185 38.2619 21.0141 38.2637L21.0151 36.2637C16.6114 36.2616 12.2839 37.9628 8.7511 40.5919C5.21999 43.2197 2.41556 46.8242 1.10621 50.7215L3.00208 51.3584ZM6.20073 56.8541C4.16372 56.5436 3.21371 55.9336 2.80835 55.2275C2.39264 54.5035 2.34137 53.3251 3.00208 51.3584L1.10621 50.7215C0.398318 52.8286 0.214669 54.7268 1.0739 56.2234C1.94348 57.7379 3.67573 58.4924 5.8994 58.8313L6.20073 56.8541ZM17.4926 57.9546C13.704 57.7416 9.92216 57.4212 6.20072 56.8541L5.89941 58.8313C9.70652 59.4115 13.5569 59.7365 17.3803 59.9515L17.4926 57.9546ZM18.4 58.0037C18.1166 57.9887 17.8151 57.9728 17.4926 57.9546L17.3803 59.9515C17.7065 59.9698 18.0112 59.9859 18.2943 60.0009L18.4 58.0037ZM22.7584 59.0498C22.2935 58.5011 21.622 58.3107 20.9897 58.2091C20.3429 58.1052 19.4769 58.0607 18.4 58.0037L18.2943 60.0009C19.4209 60.0606 20.1569 60.101 20.6724 60.1838C21.2023 60.2689 21.2531 60.3671 21.2324 60.3427L22.7584 59.0498ZM23.3211 62.3104C23.3347 61.6356 23.3484 61.0299 23.3032 60.5412C23.2578 60.0504 23.1416 59.5022 22.7584 59.0498L21.2324 60.3427C21.2186 60.3264 21.2795 60.3773 21.3117 60.7254C21.3441 61.0757 21.336 61.549 21.3215 62.2701L23.3211 62.3104ZM23.3041 64.1728C23.298 63.4547 23.3103 62.8429 23.3211 62.3104L21.3215 62.2701C21.3107 62.8024 21.2978 63.4399 21.3041 64.1896L23.3041 64.1728ZM23.3307 75.8974C23.3338 71.9925 23.3369 68.0821 23.3041 64.1728L21.3041 64.1896C21.3369 68.0882 21.3338 71.9893 21.3307 75.8958L23.3307 75.8974ZM23.3307 75.8991V75.8966H21.3307V75.8991H23.3307ZM23.8082 104.024C23.3158 94.6799 23.3231 85.3056 23.3307 75.8999L21.3307 75.8983C21.3231 85.295 21.3153 94.7228 21.8109 104.13L23.8082 104.024ZM27.9085 121.831C25.6917 116.17 24.1233 110.005 23.8082 104.024L21.8109 104.13C22.1399 110.373 23.7715 116.751 26.0462 122.561L27.9085 121.831ZM44.8052 132.549C36.8022 132.185 30.6956 128.95 27.9085 121.831L26.0462 122.561C29.2051 130.629 36.1805 134.158 44.7141 134.547L44.8052 132.549ZM60.5905 123.061C58.8753 126.193 56.7908 128.64 54.231 130.263C51.6816 131.881 48.5977 132.722 44.8052 132.549L44.7141 134.547C48.8739 134.737 52.3718 133.811 55.3022 131.952C58.2222 130.1 60.5156 127.362 62.3448 124.021L60.5905 123.061ZM63.7284 116.25C62.7414 118.599 61.7767 120.894 60.5905 123.061L62.3448 124.021C63.589 121.749 64.5922 119.358 65.5724 117.024L63.7284 116.25ZM64.8973 113.507C64.4971 114.419 64.111 115.339 63.7284 116.25L65.5724 117.024C65.9559 116.111 66.3361 115.206 66.729 114.31L64.8973 113.507ZM66.3934 109.933C65.8759 111.197 65.4006 112.359 64.8973 113.507L66.729 114.31C67.244 113.135 67.7288 111.95 68.2445 110.69L66.3934 109.933ZM66.3934 109.933L66.3929 109.934L68.245 110.688L68.2456 110.687L66.3934 109.933ZM66.3956 109.927L66.3939 109.931L68.245 110.689L68.2467 110.685L66.3956 109.927ZM67.1597 108.068C66.8918 108.714 66.6391 109.332 66.3956 109.927L68.2466 110.685C68.4904 110.089 68.7414 109.475 69.0072 108.834L67.1597 108.068ZM70.3207 108.834C69.8009 108.461 69.2562 108.069 68.6732 107.644L67.4937 109.259C68.0839 109.69 68.6347 110.086 69.1539 110.458L70.3207 108.834ZM73.2168 110.972C72.3004 110.256 71.3572 109.579 70.3207 108.834L69.1538 110.458C70.1968 111.208 71.1066 111.861 71.9857 112.548L73.2168 110.972ZM114.32 121.57C99.0428 124.248 85.3608 120.456 73.2168 110.972L71.9857 112.548C84.5477 122.359 98.7962 126.321 114.665 123.54L114.32 121.57ZM127.523 118.236C123.111 119.523 118.753 120.794 114.32 121.57L114.665 123.54C119.225 122.741 123.689 121.438 128.083 120.156L127.523 118.236ZM131.264 117.156C130.015 117.509 128.766 117.873 127.523 118.236L128.083 120.156C129.328 119.793 130.568 119.431 131.808 119.081L131.264 117.156ZM137.575 120.831C137.239 119.326 136.598 118.073 135.43 117.382C134.265 116.692 132.83 116.714 131.264 117.156L131.808 119.081C133.134 118.707 133.923 118.814 134.412 119.103C134.898 119.391 135.342 120.011 135.623 121.267L137.575 120.831ZM137.754 121.613C137.693 121.349 137.633 121.09 137.575 120.831L135.623 121.267C135.683 121.536 135.745 121.804 135.806 122.067L137.754 121.613ZM138.228 123.883C138.102 123.104 137.923 122.339 137.754 121.613L135.806 122.067C135.978 122.804 136.14 123.502 136.253 124.202L138.228 123.883ZM141.422 143.572C140.354 137.009 139.287 130.447 138.228 123.883L136.253 124.202C137.312 130.767 138.38 137.33 139.448 143.893L141.422 143.572ZM141.422 143.575L141.421 143.569L139.448 143.895L139.449 143.901L141.422 143.575ZM149.779 195.909C147.097 178.46 144.262 161.034 141.428 143.613L139.454 143.934C142.288 161.356 145.121 178.774 147.803 196.213L149.779 195.909ZM150.3 199.244C150.125 198.131 149.95 197.02 149.779 195.909L147.803 196.213C147.974 197.328 148.149 198.442 148.324 199.555L150.3 199.244ZM150.301 199.255L150.3 199.245L148.324 199.555L148.325 199.565L150.301 199.255ZM152.134 231.793C153.683 220.741 151.973 209.896 150.301 199.255L148.325 199.565C150.005 210.255 151.655 220.806 150.153 231.515L152.134 231.793ZM138.161 255.788C147.957 250.43 150.789 241.391 152.134 231.793L150.153 231.515C148.833 240.934 146.139 249.144 137.201 254.034L138.161 255.788ZM134.426 259.091C135.684 257.73 136.81 256.527 138.161 255.788L137.201 254.034C135.512 254.957 134.168 256.424 132.957 257.733L134.426 259.091ZM132.648 260.931C133.272 260.339 133.862 259.701 134.426 259.091L132.957 257.733C132.385 258.351 131.84 258.941 131.272 259.48L132.648 260.931ZM138.841 259.304C136.552 259.272 134.263 259.239 131.975 259.205L131.945 261.205C134.235 261.239 136.524 261.271 138.813 261.304L138.841 259.304ZM155.157 259.557C149.717 259.457 144.278 259.381 138.841 259.304L138.813 261.304C144.251 261.38 149.686 261.457 155.12 261.557L155.157 259.557ZM157.979 259.615C157.038 259.595 156.097 259.575 155.157 259.557L155.12 261.557C156.057 261.574 156.994 261.594 157.936 261.615L157.979 259.615ZM169.422 259.679C165.457 259.776 161.709 259.695 157.979 259.615L157.936 261.615C161.66 261.695 165.453 261.776 169.471 261.678L169.422 259.679ZM170.01 242.145C169.861 248.188 169.227 254.23 168.454 260.557L170.439 260.8C171.214 254.458 171.858 248.338 172.009 242.194L170.01 242.145ZM169.725 235.771C169.896 237.941 170.062 240.051 170.01 242.145L172.009 242.194C172.064 239.98 171.889 237.766 171.719 235.613L169.725 235.771ZM169.723 235.73L169.723 235.732L171.721 235.653L171.721 235.651L169.723 235.73ZM169.722 235.69V235.691H171.722V235.69H169.722ZM169.476 228.212C169.328 230.753 169.53 233.3 169.725 235.768L171.719 235.611C171.522 233.119 171.334 230.71 171.472 228.328L169.476 228.212ZM170.526 217.382C170.108 220.964 169.687 224.581 169.476 228.212L171.472 228.328C171.679 224.764 172.094 221.205 172.513 217.614L170.526 217.382ZM171.664 204.507C171.528 208.785 171.03 213.059 170.526 217.382L172.513 217.614C173.015 213.304 173.524 208.947 173.663 204.57L171.664 204.507ZM172.778 156.202C172.477 172.311 172.177 188.413 171.664 204.507L173.663 204.57C174.176 188.461 174.477 172.346 174.778 156.239L172.778 156.202ZM172.778 156.22V156.221H174.778V156.22H172.778ZM173.134 137.738C173.008 143.892 172.893 150.047 172.778 156.201L174.778 156.238C174.892 150.084 175.007 143.931 175.134 137.779L173.134 137.738ZM173.142 135.255C173.147 136.2 173.15 136.97 173.134 137.738L175.134 137.779C175.15 136.981 175.147 136.185 175.142 135.246L173.142 135.255ZM173.137 133.617C173.137 134.223 173.14 134.762 173.142 135.255L175.142 135.246C175.14 134.752 175.137 134.218 175.137 133.617H173.137ZM252.961 124.45C240.756 133.262 228.181 138.482 215.166 139.931C202.154 141.379 188.641 139.062 174.548 132.706L173.726 134.529C188.099 141.012 201.971 143.411 215.388 141.918C228.802 140.426 241.698 135.048 254.132 126.071L252.961 124.45ZM255.101 126.237C254.906 125.804 254.692 125.33 254.446 124.823L252.647 125.698C252.879 126.174 253.081 126.622 253.277 127.058L255.101 126.237ZM256.21 128.417C255.808 127.804 255.497 127.117 255.101 126.237L253.277 127.058C253.66 127.908 254.034 128.744 254.537 129.513L256.21 128.417ZM260.036 134.59C258.792 132.524 257.536 130.441 256.21 128.417L254.537 129.513C255.839 131.5 257.075 133.551 258.323 135.622L260.036 134.59ZM269.631 148.264C265.882 144.28 262.99 139.49 260.036 134.59L258.323 135.622C261.256 140.488 264.254 145.469 268.175 149.634L269.631 148.264ZM281.494 177.143C282.067 165.78 277.454 156.576 269.631 148.264L268.175 149.634C275.743 157.676 280.035 166.374 279.496 177.043L281.494 177.143ZM277.717 240.424C279.114 219.342 280.428 198.249 281.494 177.143L279.496 177.043C278.432 198.133 277.118 219.214 275.722 240.292L277.717 240.424ZM266.885 258.678C274.387 254.712 277.215 248.005 277.717 240.424L275.722 240.292C275.249 247.421 272.652 253.367 265.95 256.91L266.885 258.678ZM265.623 260.002C266.135 259.322 266.481 258.892 266.885 258.678L265.95 256.91C265.076 257.372 264.467 258.211 264.025 258.799L265.623 260.002ZM35.1565 63.4721L26.1814 60.5293L25.5583 62.4297L34.5334 65.3725L35.1565 63.4721ZM45.976 72.0186C43.5919 67.8519 40.5269 64.7351 35.0745 63.449L34.6154 65.3956C39.3823 66.52 42.0465 69.178 44.2401 73.0118L45.976 72.0186ZM55.3406 87.8945C52.1793 82.6151 49.024 77.3455 45.976 72.0185L44.2401 73.0118C47.2996 78.3589 50.4651 83.6454 53.6247 88.922L55.3406 87.8945ZM63.8801 102.334C61.0848 97.4874 58.2102 92.6869 55.3406 87.8945L53.6247 88.922C56.4957 93.7167 59.3619 98.5032 62.1476 103.333L63.8801 102.334ZM64.3365 108.13C64.7037 107.246 64.7959 106.176 64.7108 105.182C64.6254 104.185 64.3517 103.151 63.8801 102.334L62.1476 103.333C62.4381 103.837 62.651 104.569 62.7181 105.353C62.7855 106.14 62.6962 106.865 62.4895 107.363L64.3365 108.13ZM64.145 108.591L64.3366 108.13L62.4895 107.363L62.2979 107.824L64.145 108.591ZM56.4724 124.897C59.533 119.703 61.8644 114.084 64.145 108.591L62.2979 107.824C60.0079 113.339 57.7273 118.827 54.7492 123.881L56.4724 124.897ZM37.7357 129.335C41.4235 131.548 44.9898 132.404 48.2561 131.656C51.5332 130.905 54.2973 128.588 56.4724 124.897L54.7492 123.881C52.7608 127.256 50.396 129.114 47.8095 129.707C45.212 130.302 42.1798 129.669 38.7649 127.62L37.7357 129.335ZM27.6959 116.408C28.5105 122.85 32.985 126.484 37.7357 129.335L38.7649 127.62C34.1296 124.838 30.3729 121.637 29.6801 116.157L27.6959 116.408ZM26.6047 109.246C27.0015 111.647 27.3948 114.026 27.6959 116.408L29.6801 116.157C29.3734 113.731 28.9737 111.314 28.5779 108.92L26.6047 109.246ZM24.9947 96.1789C25.1708 100.581 25.8941 104.948 26.6047 109.246L28.5779 108.92C27.8638 104.6 27.1634 100.356 26.9931 96.0989L24.9947 96.1789ZM24.8112 72.0805C24.743 80.2434 24.6761 88.2166 24.9947 96.1789L26.9931 96.0989C26.6768 88.1931 26.7428 80.2685 26.8111 72.0972L24.8112 72.0805ZM24.8699 61.4795C24.8699 65.0594 24.8404 68.5843 24.8112 72.0741L26.8111 72.0908C26.8403 68.6023 26.8699 65.0691 26.8699 61.4795H24.8699ZM306.465 203.637C306.505 200.648 306.559 197.658 306.613 194.666L304.613 194.63C304.559 197.621 304.505 200.616 304.466 203.61L306.465 203.637ZM299.929 248.193C303.515 233.8 306.411 219.256 306.465 203.627L304.465 203.62C304.412 219.009 301.561 233.37 297.988 247.71L299.929 248.193ZM291.124 255.631C293.579 255.304 295.53 254.566 297.008 253.299C298.492 252.026 299.403 250.304 299.929 248.193L297.988 247.71C297.532 249.538 296.793 250.849 295.706 251.781C294.613 252.717 293.071 253.354 290.86 253.649L291.124 255.631ZM288.55 246.37C289.193 249.197 289.813 251.93 289.994 254.705L291.99 254.575C291.796 251.615 291.137 248.727 290.5 245.926L288.55 246.37ZM288.309 228.494C285.92 234.907 287.284 240.804 288.55 246.37L290.5 245.926C289.22 240.296 288.031 234.97 290.184 229.192L288.309 228.494ZM293.052 214.053C291.557 218.924 290.072 223.762 288.309 228.493L290.184 229.192C291.97 224.396 293.472 219.501 294.964 214.64L293.052 214.053ZM298.492 197.769C296.409 203.114 294.725 208.6 293.054 214.047L294.966 214.634C296.641 209.175 298.304 203.76 300.355 198.495L298.492 197.769ZM299.817 175.757C301.459 183.281 301.362 190.403 298.492 197.769L300.355 198.495C303.397 190.689 303.479 183.154 301.771 175.33L299.817 175.757ZM297.065 162.262C297.984 166.928 298.856 171.351 299.817 175.757L301.771 175.33C300.815 170.948 299.947 166.545 299.027 161.875L297.065 162.262ZM297.064 162.262L297.066 162.267L299.026 161.869L299.024 161.863L297.064 162.262ZM295.752 155.648C296.208 157.919 296.641 160.113 297.063 162.256L299.026 161.869C298.603 159.727 298.17 157.529 297.713 155.254L295.752 155.648ZM306.811 173.639C306.754 166.292 304.103 159.89 297.344 154.66L296.12 156.242C302.36 161.07 304.759 166.878 304.811 173.654L306.811 173.639ZM306.613 194.666C306.738 187.667 306.865 180.653 306.811 173.639L304.811 173.654C304.864 180.639 304.739 187.627 304.613 194.63L306.613 194.666ZM318.751 93.4663V113.332H320.751V93.4663H318.751ZM315.058 63.1269C317.706 72.8949 319.496 82.684 318.753 93.3971L320.748 93.5355C321.513 82.5081 319.665 72.4755 316.988 62.6035L315.058 63.1269ZM316.499 61.3723L315.483 62.0234L316.563 63.707L317.578 63.0559L316.499 61.3723ZM319.142 62.8886C318.646 62.4228 318.185 61.9889 317.778 61.5411L316.299 62.8871C316.768 63.403 317.288 63.8906 317.773 64.3462L319.142 62.8886ZM322.067 66.5064C321.445 65.03 320.184 63.8678 319.142 62.8886L317.773 64.3462C318.895 65.4004 319.798 66.2717 320.224 67.2827L322.067 66.5064ZM325.909 78.6785C325.276 74.4638 323.687 70.3526 322.067 66.5064L320.224 67.2827C321.839 71.1173 323.338 75.029 323.931 78.9758L325.909 78.6785ZM320.649 113.77C326.141 102.518 327.724 90.7493 325.909 78.6785L323.931 78.9758C325.689 90.6666 324.157 102.023 318.852 112.893L320.649 113.77ZM330.499 87.1523V87.1563H332.499V87.1523H330.499ZM159.606 40.5806L159.608 40.5792L158.359 39.0174L158.357 39.0189L159.606 40.5806ZM130.75 65.4355L130.752 65.4329L129.338 64.0187L129.336 64.0213L130.75 65.4355ZM141.428 143.611L141.422 143.576L139.449 143.9L139.455 143.935L141.428 143.611ZM24.8112 72.0825V72.0888H26.8112V72.0825H24.8112ZM293.061 214.024L293.059 214.031L294.956 214.663L294.958 214.656L293.061 214.024Z" fill="#BC873C" mask="url(#path-1-outside-1_2_42)"/>
</svg>
